G04 #@! TF.GenerationSoftware,KiCad,Pcbnew,8.0.7-8.0.7-0~ubuntu24.04.1*
G04 #@! TF.CreationDate,2024-12-30T14:28:34-07:00*
G04 #@! TF.ProjectId,2 connector Sensor Board,3220636f-6e6e-4656-9374-6f722053656e,V1*
G04 #@! TF.SameCoordinates,Original*
G04 #@! TF.FileFunction,Legend,Bot*
G04 #@! TF.FilePolarity,Positive*
%FSLAX46Y46*%
G04 Gerber Fmt 4.6, Leading zero omitted, Abs format (unit mm)*
G04 Created by KiCad (PCBNEW 8.0.7-8.0.7-0~ubuntu24.04.1) date 2024-12-30 14:28:34*
%MOMM*%
%LPD*%
G01*
G04 APERTURE LIST*
G04 Aperture macros list*
%AMRoundRect*
0 Rectangle with rounded corners*
0 $1 Rounding radius*
0 $2 $3 $4 $5 $6 $7 $8 $9 X,Y pos of 4 corners*
0 Add a 4 corners polygon primitive as box body*
4,1,4,$2,$3,$4,$5,$6,$7,$8,$9,$2,$3,0*
0 Add four circle primitives for the rounded corners*
1,1,$1+$1,$2,$3*
1,1,$1+$1,$4,$5*
1,1,$1+$1,$6,$7*
1,1,$1+$1,$8,$9*
0 Add four rect primitives between the rounded corners*
20,1,$1+$1,$2,$3,$4,$5,0*
20,1,$1+$1,$4,$5,$6,$7,0*
20,1,$1+$1,$6,$7,$8,$9,0*
20,1,$1+$1,$8,$9,$2,$3,0*%
G04 Aperture macros list end*
%ADD10C,0.150000*%
%ADD11RoundRect,0.050000X0.500000X-0.500000X0.500000X0.500000X-0.500000X0.500000X-0.500000X-0.500000X0*%
%ADD12O,1.100000X1.100000*%
%ADD13RoundRect,0.050000X-0.500000X0.500000X-0.500000X-0.500000X0.500000X-0.500000X0.500000X0.500000X0*%
%ADD14RoundRect,0.050000X0.115000X0.325000X-0.115000X0.325000X-0.115000X-0.325000X0.115000X-0.325000X0*%
%ADD15RoundRect,0.050000X0.225000X0.265000X-0.225000X0.265000X-0.225000X-0.265000X0.225000X-0.265000X0*%
G04 APERTURE END LIST*
D10*
X147863220Y-102969819D02*
X147863220Y-101969819D01*
X147863220Y-101969819D02*
X147625125Y-101969819D01*
X147625125Y-101969819D02*
X147482268Y-102017438D01*
X147482268Y-102017438D02*
X147387030Y-102112676D01*
X147387030Y-102112676D02*
X147339411Y-102207914D01*
X147339411Y-102207914D02*
X147291792Y-102398390D01*
X147291792Y-102398390D02*
X147291792Y-102541247D01*
X147291792Y-102541247D02*
X147339411Y-102731723D01*
X147339411Y-102731723D02*
X147387030Y-102826961D01*
X147387030Y-102826961D02*
X147482268Y-102922200D01*
X147482268Y-102922200D02*
X147625125Y-102969819D01*
X147625125Y-102969819D02*
X147863220Y-102969819D01*
X146672744Y-101969819D02*
X146482268Y-101969819D01*
X146482268Y-101969819D02*
X146387030Y-102017438D01*
X146387030Y-102017438D02*
X146291792Y-102112676D01*
X146291792Y-102112676D02*
X146244173Y-102303152D01*
X146244173Y-102303152D02*
X146244173Y-102636485D01*
X146244173Y-102636485D02*
X146291792Y-102826961D01*
X146291792Y-102826961D02*
X146387030Y-102922200D01*
X146387030Y-102922200D02*
X146482268Y-102969819D01*
X146482268Y-102969819D02*
X146672744Y-102969819D01*
X146672744Y-102969819D02*
X146767982Y-102922200D01*
X146767982Y-102922200D02*
X146863220Y-102826961D01*
X146863220Y-102826961D02*
X146910839Y-102636485D01*
X146910839Y-102636485D02*
X146910839Y-102303152D01*
X146910839Y-102303152D02*
X146863220Y-102112676D01*
X146863220Y-102112676D02*
X146767982Y-102017438D01*
X146767982Y-102017438D02*
X146672744Y-101969819D01*
X145053696Y-102969819D02*
X145053696Y-101969819D01*
X145053696Y-101969819D02*
X144815601Y-101969819D01*
X144815601Y-101969819D02*
X144672744Y-102017438D01*
X144672744Y-102017438D02*
X144577506Y-102112676D01*
X144577506Y-102112676D02*
X144529887Y-102207914D01*
X144529887Y-102207914D02*
X144482268Y-102398390D01*
X144482268Y-102398390D02*
X144482268Y-102541247D01*
X144482268Y-102541247D02*
X144529887Y-102731723D01*
X144529887Y-102731723D02*
X144577506Y-102826961D01*
X144577506Y-102826961D02*
X144672744Y-102922200D01*
X144672744Y-102922200D02*
X144815601Y-102969819D01*
X144815601Y-102969819D02*
X145053696Y-102969819D01*
X144053696Y-102969819D02*
X144053696Y-101969819D01*
X142863220Y-102922200D02*
X142720363Y-102969819D01*
X142720363Y-102969819D02*
X142482268Y-102969819D01*
X142482268Y-102969819D02*
X142387030Y-102922200D01*
X142387030Y-102922200D02*
X142339411Y-102874580D01*
X142339411Y-102874580D02*
X142291792Y-102779342D01*
X142291792Y-102779342D02*
X142291792Y-102684104D01*
X142291792Y-102684104D02*
X142339411Y-102588866D01*
X142339411Y-102588866D02*
X142387030Y-102541247D01*
X142387030Y-102541247D02*
X142482268Y-102493628D01*
X142482268Y-102493628D02*
X142672744Y-102446009D01*
X142672744Y-102446009D02*
X142767982Y-102398390D01*
X142767982Y-102398390D02*
X142815601Y-102350771D01*
X142815601Y-102350771D02*
X142863220Y-102255533D01*
X142863220Y-102255533D02*
X142863220Y-102160295D01*
X142863220Y-102160295D02*
X142815601Y-102065057D01*
X142815601Y-102065057D02*
X142767982Y-102017438D01*
X142767982Y-102017438D02*
X142672744Y-101969819D01*
X142672744Y-101969819D02*
X142434649Y-101969819D01*
X142434649Y-101969819D02*
X142291792Y-102017438D01*
X141291792Y-102874580D02*
X141339411Y-102922200D01*
X141339411Y-102922200D02*
X141482268Y-102969819D01*
X141482268Y-102969819D02*
X141577506Y-102969819D01*
X141577506Y-102969819D02*
X141720363Y-102922200D01*
X141720363Y-102922200D02*
X141815601Y-102826961D01*
X141815601Y-102826961D02*
X141863220Y-102731723D01*
X141863220Y-102731723D02*
X141910839Y-102541247D01*
X141910839Y-102541247D02*
X141910839Y-102398390D01*
X141910839Y-102398390D02*
X141863220Y-102207914D01*
X141863220Y-102207914D02*
X141815601Y-102112676D01*
X141815601Y-102112676D02*
X141720363Y-102017438D01*
X141720363Y-102017438D02*
X141577506Y-101969819D01*
X141577506Y-101969819D02*
X141482268Y-101969819D01*
X141482268Y-101969819D02*
X141339411Y-102017438D01*
X141339411Y-102017438D02*
X141291792Y-102065057D01*
X140863220Y-102969819D02*
X140863220Y-101969819D01*
X140291792Y-102969819D02*
X140720363Y-102398390D01*
X140291792Y-101969819D02*
X140863220Y-102541247D01*
X139869819Y-99241541D02*
X139869819Y-99860588D01*
X139869819Y-99860588D02*
X140250771Y-99527255D01*
X140250771Y-99527255D02*
X140250771Y-99670112D01*
X140250771Y-99670112D02*
X140298390Y-99765350D01*
X140298390Y-99765350D02*
X140346009Y-99812969D01*
X140346009Y-99812969D02*
X140441247Y-99860588D01*
X140441247Y-99860588D02*
X140679342Y-99860588D01*
X140679342Y-99860588D02*
X140774580Y-99812969D01*
X140774580Y-99812969D02*
X140822200Y-99765350D01*
X140822200Y-99765350D02*
X140869819Y-99670112D01*
X140869819Y-99670112D02*
X140869819Y-99384398D01*
X140869819Y-99384398D02*
X140822200Y-99289160D01*
X140822200Y-99289160D02*
X140774580Y-99241541D01*
X140203152Y-100193922D02*
X140869819Y-100432017D01*
X140869819Y-100432017D02*
X140203152Y-100670112D01*
X139869819Y-100955827D02*
X139869819Y-101574874D01*
X139869819Y-101574874D02*
X140250771Y-101241541D01*
X140250771Y-101241541D02*
X140250771Y-101384398D01*
X140250771Y-101384398D02*
X140298390Y-101479636D01*
X140298390Y-101479636D02*
X140346009Y-101527255D01*
X140346009Y-101527255D02*
X140441247Y-101574874D01*
X140441247Y-101574874D02*
X140679342Y-101574874D01*
X140679342Y-101574874D02*
X140774580Y-101527255D01*
X140774580Y-101527255D02*
X140822200Y-101479636D01*
X140822200Y-101479636D02*
X140869819Y-101384398D01*
X140869819Y-101384398D02*
X140869819Y-101098684D01*
X140869819Y-101098684D02*
X140822200Y-101003446D01*
X140822200Y-101003446D02*
X140774580Y-100955827D01*
X148217438Y-99760588D02*
X148169819Y-99665350D01*
X148169819Y-99665350D02*
X148169819Y-99522493D01*
X148169819Y-99522493D02*
X148217438Y-99379636D01*
X148217438Y-99379636D02*
X148312676Y-99284398D01*
X148312676Y-99284398D02*
X148407914Y-99236779D01*
X148407914Y-99236779D02*
X148598390Y-99189160D01*
X148598390Y-99189160D02*
X148741247Y-99189160D01*
X148741247Y-99189160D02*
X148931723Y-99236779D01*
X148931723Y-99236779D02*
X149026961Y-99284398D01*
X149026961Y-99284398D02*
X149122200Y-99379636D01*
X149122200Y-99379636D02*
X149169819Y-99522493D01*
X149169819Y-99522493D02*
X149169819Y-99617731D01*
X149169819Y-99617731D02*
X149122200Y-99760588D01*
X149122200Y-99760588D02*
X149074580Y-99808207D01*
X149074580Y-99808207D02*
X148741247Y-99808207D01*
X148741247Y-99808207D02*
X148741247Y-99617731D01*
X149169819Y-100236779D02*
X148169819Y-100236779D01*
X148169819Y-100236779D02*
X149169819Y-100808207D01*
X149169819Y-100808207D02*
X148169819Y-100808207D01*
X149169819Y-101284398D02*
X148169819Y-101284398D01*
X148169819Y-101284398D02*
X148169819Y-101522493D01*
X148169819Y-101522493D02*
X148217438Y-101665350D01*
X148217438Y-101665350D02*
X148312676Y-101760588D01*
X148312676Y-101760588D02*
X148407914Y-101808207D01*
X148407914Y-101808207D02*
X148598390Y-101855826D01*
X148598390Y-101855826D02*
X148741247Y-101855826D01*
X148741247Y-101855826D02*
X148931723Y-101808207D01*
X148931723Y-101808207D02*
X149026961Y-101760588D01*
X149026961Y-101760588D02*
X149122200Y-101665350D01*
X149122200Y-101665350D02*
X149169819Y-101522493D01*
X149169819Y-101522493D02*
X149169819Y-101284398D01*
%LPC*%
D11*
G04 #@! TO.C,J1*
X141950000Y-100600000D03*
D12*
X143220000Y-100600000D03*
X144490000Y-100600000D03*
X145760000Y-100600000D03*
X147030000Y-100600000D03*
G04 #@! TD*
D13*
G04 #@! TO.C,J3*
X146100000Y-97800000D03*
D12*
X144830000Y-97800000D03*
X143560000Y-97800000D03*
X142290000Y-97800000D03*
G04 #@! TD*
D14*
G04 #@! TO.C,J4*
X147310000Y-95680000D03*
X147310000Y-93930000D03*
X146910000Y-95680000D03*
X146910000Y-93930000D03*
X146510000Y-95680000D03*
X146510000Y-93930000D03*
X146110000Y-95680000D03*
X146110000Y-93930000D03*
X145710000Y-95680000D03*
X145710000Y-93930000D03*
X145310000Y-95680000D03*
X145310000Y-93930000D03*
X144910000Y-95680000D03*
X144910000Y-93930000D03*
X144510000Y-95680000D03*
X144510000Y-93930000D03*
X144110000Y-95680000D03*
X144110000Y-93930000D03*
X143710000Y-95680000D03*
X143710000Y-93930000D03*
X143310000Y-95680000D03*
X143310000Y-93930000D03*
X142910000Y-95680000D03*
X142910000Y-93930000D03*
X142510000Y-95680000D03*
X142510000Y-93930000D03*
X142110000Y-95680000D03*
X142110000Y-93930000D03*
X141710000Y-95680000D03*
X141710000Y-93930000D03*
D15*
X148110000Y-95370000D03*
X148110000Y-94240000D03*
X140910000Y-95370000D03*
X140910000Y-94240000D03*
G04 #@! TD*
D14*
G04 #@! TO.C,J15*
X147310000Y-110680000D03*
X147310000Y-108930000D03*
X146910000Y-110680000D03*
X146910000Y-108930000D03*
X146510000Y-110680000D03*
X146510000Y-108930000D03*
X146110000Y-110680000D03*
X146110000Y-108930000D03*
X145710000Y-110680000D03*
X145710000Y-108930000D03*
X145310000Y-110680000D03*
X145310000Y-108930000D03*
X144910000Y-110680000D03*
X144910000Y-108930000D03*
X144510000Y-110680000D03*
X144510000Y-108930000D03*
X144110000Y-110680000D03*
X144110000Y-108930000D03*
X143710000Y-110680000D03*
X143710000Y-108930000D03*
X143310000Y-110680000D03*
X143310000Y-108930000D03*
X142910000Y-110680000D03*
X142910000Y-108930000D03*
X142510000Y-110680000D03*
X142510000Y-108930000D03*
X142110000Y-110680000D03*
X142110000Y-108930000D03*
X141710000Y-110680000D03*
X141710000Y-108930000D03*
D15*
X148110000Y-110370000D03*
X148110000Y-109240000D03*
X140910000Y-110370000D03*
X140910000Y-109240000D03*
G04 #@! TD*
%LPD*%
M02*
