G04 #@! TF.GenerationSoftware,KiCad,Pcbnew,8.0.7-8.0.7-0~ubuntu24.04.1*
G04 #@! TF.CreationDate,2024-12-30T14:28:34-07:00*
G04 #@! TF.ProjectId,2 connector Sensor Board,3220636f-6e6e-4656-9374-6f722053656e,V1*
G04 #@! TF.SameCoordinates,Original*
G04 #@! TF.FileFunction,Copper,L1,Top*
G04 #@! TF.FilePolarity,Positive*
%FSLAX46Y46*%
G04 Gerber Fmt 4.6, Leading zero omitted, Abs format (unit mm)*
G04 Created by KiCad (PCBNEW 8.0.7-8.0.7-0~ubuntu24.04.1) date 2024-12-30 14:28:34*
%MOMM*%
%LPD*%
G01*
G04 APERTURE LIST*
G04 Aperture macros list*
%AMRoundRect*
0 Rectangle with rounded corners*
0 $1 Rounding radius*
0 $2 $3 $4 $5 $6 $7 $8 $9 X,Y pos of 4 corners*
0 Add a 4 corners polygon primitive as box body*
4,1,4,$2,$3,$4,$5,$6,$7,$8,$9,$2,$3,0*
0 Add four circle primitives for the rounded corners*
1,1,$1+$1,$2,$3*
1,1,$1+$1,$4,$5*
1,1,$1+$1,$6,$7*
1,1,$1+$1,$8,$9*
0 Add four rect primitives between the rounded corners*
20,1,$1+$1,$2,$3,$4,$5,0*
20,1,$1+$1,$4,$5,$6,$7,0*
20,1,$1+$1,$6,$7,$8,$9,0*
20,1,$1+$1,$8,$9,$2,$3,0*%
G04 Aperture macros list end*
G04 #@! TA.AperFunction,ComponentPad*
%ADD10R,1.000000X1.000000*%
G04 #@! TD*
G04 #@! TA.AperFunction,ComponentPad*
%ADD11O,1.000000X1.000000*%
G04 #@! TD*
G04 #@! TA.AperFunction,SMDPad,CuDef*
%ADD12RoundRect,0.150000X-0.150000X-0.625000X0.150000X-0.625000X0.150000X0.625000X-0.150000X0.625000X0*%
G04 #@! TD*
G04 #@! TA.AperFunction,SMDPad,CuDef*
%ADD13RoundRect,0.250000X-0.350000X-0.650000X0.350000X-0.650000X0.350000X0.650000X-0.350000X0.650000X0*%
G04 #@! TD*
G04 #@! TA.AperFunction,SMDPad,CuDef*
%ADD14C,1.000000*%
G04 #@! TD*
G04 #@! TA.AperFunction,SMDPad,CuDef*
%ADD15RoundRect,0.135000X-0.185000X0.135000X-0.185000X-0.135000X0.185000X-0.135000X0.185000X0.135000X0*%
G04 #@! TD*
G04 #@! TA.AperFunction,SMDPad,CuDef*
%ADD16R,0.440000X0.230000*%
G04 #@! TD*
G04 #@! TA.AperFunction,SMDPad,CuDef*
%ADD17R,0.340000X0.230000*%
G04 #@! TD*
G04 #@! TA.AperFunction,ViaPad*
%ADD18C,0.600000*%
G04 #@! TD*
G04 #@! TA.AperFunction,Conductor*
%ADD19C,0.200000*%
G04 #@! TD*
G04 #@! TA.AperFunction,Conductor*
%ADD20C,0.160000*%
G04 #@! TD*
G04 APERTURE END LIST*
D10*
G04 #@! TO.P,J1,1,Pin_1*
G04 #@! TO.N,VDD*
X141950000Y-100600000D03*
D11*
G04 #@! TO.P,J1,2,Pin_2*
G04 #@! TO.N,SCK1*
X143220000Y-100600000D03*
G04 #@! TO.P,J1,3,Pin_3*
G04 #@! TO.N,MISO1*
X144490000Y-100600000D03*
G04 #@! TO.P,J1,4,Pin_4*
G04 #@! TO.N,MOSI1*
X145760000Y-100600000D03*
G04 #@! TO.P,J1,5,Pin_5*
G04 #@! TO.N,GND*
X147030000Y-100600000D03*
G04 #@! TD*
D12*
G04 #@! TO.P,J7,1,Pin_1*
G04 #@! TO.N,GND*
X143000000Y-107050000D03*
G04 #@! TO.P,J7,2,Pin_2*
G04 #@! TO.N,VDD*
X144000000Y-107050000D03*
G04 #@! TO.P,J7,3,Pin_3*
G04 #@! TO.N,SDA1*
X145000000Y-107050000D03*
G04 #@! TO.P,J7,4,Pin_4*
G04 #@! TO.N,SCL1*
X146000000Y-107050000D03*
D13*
G04 #@! TO.P,J7,MP,MountPin*
G04 #@! TO.N,GND*
X141700000Y-110925000D03*
X147300000Y-110925000D03*
G04 #@! TD*
D14*
G04 #@! TO.P,TP2,1,1*
G04 #@! TO.N,RS485+*
X145500000Y-94700000D03*
G04 #@! TD*
D15*
G04 #@! TO.P,R2,1*
G04 #@! TO.N,VDD*
X140300000Y-100690000D03*
G04 #@! TO.P,R2,2*
G04 #@! TO.N,CS6*
X140300000Y-101710000D03*
G04 #@! TD*
D10*
G04 #@! TO.P,J3,1,Pin_1*
G04 #@! TO.N,CS7*
X146100000Y-97800000D03*
D11*
G04 #@! TO.P,J3,2,Pin_2*
G04 #@! TO.N,CS8*
X144830000Y-97800000D03*
G04 #@! TO.P,J3,3,Pin_3*
G04 #@! TO.N,Free1*
X143560000Y-97800000D03*
G04 #@! TO.P,J3,4,Pin_4*
G04 #@! TO.N,Free2*
X142290000Y-97800000D03*
G04 #@! TD*
D16*
G04 #@! TO.P,J2,1,Pin_1*
G04 #@! TO.N,VDD*
X148940000Y-104850000D03*
D17*
G04 #@! TO.P,J2,2,Pin_2*
G04 #@! TO.N,SCK1*
X146180000Y-104550000D03*
D16*
G04 #@! TO.P,J2,3,Pin_3*
G04 #@! TO.N,GND*
X148940000Y-104250000D03*
D17*
G04 #@! TO.P,J2,4,Pin_4*
G04 #@! TO.N,MISO1*
X146180000Y-103950000D03*
D16*
G04 #@! TO.P,J2,5,Pin_5*
G04 #@! TO.N,CS5*
X148940000Y-103650000D03*
D17*
G04 #@! TO.P,J2,6,Pin_6*
G04 #@! TO.N,MOSI1*
X146180000Y-103350000D03*
D16*
G04 #@! TO.P,J2,7,Pin_7*
G04 #@! TO.N,GND*
X148940000Y-103050000D03*
G04 #@! TD*
D15*
G04 #@! TO.P,R4,1*
G04 #@! TO.N,VDD*
X148700000Y-100690000D03*
G04 #@! TO.P,R4,2*
G04 #@! TO.N,CS5*
X148700000Y-101710000D03*
G04 #@! TD*
D16*
G04 #@! TO.P,J5,1,Pin_1*
G04 #@! TO.N,VDD*
X140060000Y-103050000D03*
D17*
G04 #@! TO.P,J5,2,Pin_2*
G04 #@! TO.N,SCK1*
X142820000Y-103350000D03*
D16*
G04 #@! TO.P,J5,3,Pin_3*
G04 #@! TO.N,GND*
X140060000Y-103650000D03*
D17*
G04 #@! TO.P,J5,4,Pin_4*
G04 #@! TO.N,MISO1*
X142820000Y-103950000D03*
D16*
G04 #@! TO.P,J5,5,Pin_5*
G04 #@! TO.N,CS6*
X140060000Y-104250000D03*
D17*
G04 #@! TO.P,J5,6,Pin_6*
G04 #@! TO.N,MOSI1*
X142820000Y-104550000D03*
D16*
G04 #@! TO.P,J5,7,Pin_7*
G04 #@! TO.N,GND*
X140060000Y-104850000D03*
G04 #@! TD*
D14*
G04 #@! TO.P,TP1,1,1*
G04 #@! TO.N,RS485-*
X143500000Y-94600000D03*
G04 #@! TD*
D18*
G04 #@! TO.N,GND*
X148314936Y-104248741D03*
X140300000Y-110400000D03*
X148700000Y-109300000D03*
X148600000Y-93900000D03*
X141900000Y-105900000D03*
X140717934Y-103305765D03*
X140700000Y-93700000D03*
X148800000Y-102500000D03*
G04 #@! TO.N,MOSI1*
X143600000Y-104500000D03*
X145100000Y-102900000D03*
G04 #@! TO.N,VDD*
X148200000Y-105000000D03*
X143296053Y-109715002D03*
X140100000Y-102439997D03*
X140100000Y-97900000D03*
G04 #@! TO.N,MISO1*
X148000000Y-98600000D03*
G04 #@! TO.N,CS5*
X147058203Y-108165810D03*
G04 #@! TO.N,CS6*
X146200000Y-109715002D03*
G04 #@! TO.N,Free1*
X145196170Y-109715002D03*
G04 #@! TO.N,SCL1*
X146300000Y-105900000D03*
G04 #@! TO.N,RS485+*
X145600000Y-93100000D03*
G04 #@! TO.N,RS485-*
X144600000Y-93100000D03*
G04 #@! TO.N,SDA1*
X145300000Y-105900000D03*
G04 #@! TD*
D19*
G04 #@! TO.N,GND*
X148940000Y-104250000D02*
X148316195Y-104250000D01*
X148316195Y-104250000D02*
X148314936Y-104248741D01*
X140060000Y-103650000D02*
X140373699Y-103650000D01*
X148940000Y-103050000D02*
X148940000Y-102640000D01*
X140373699Y-103650000D02*
X140717934Y-103305765D01*
X148940000Y-102640000D02*
X148800000Y-102500000D01*
X143000000Y-107050000D02*
X143000000Y-107000000D01*
X143000000Y-107000000D02*
X141900000Y-105900000D01*
D20*
G04 #@! TO.N,MOSI1*
X146180000Y-103350000D02*
X145550000Y-103350000D01*
X145550000Y-103350000D02*
X145100000Y-102900000D01*
X145100000Y-102900000D02*
X145760000Y-102240000D01*
X143550000Y-104550000D02*
X142820000Y-104550000D01*
X143600000Y-104500000D02*
X143550000Y-104550000D01*
X145760000Y-102240000D02*
X145760000Y-100600000D01*
D19*
G04 #@! TO.N,VDD*
X148350000Y-104850000D02*
X148200000Y-105000000D01*
X149100000Y-97800000D02*
X149100000Y-100290000D01*
X144000000Y-109011055D02*
X143296053Y-109715002D01*
X140060000Y-103050000D02*
X140060000Y-102479997D01*
X140100000Y-97900000D02*
X141600000Y-96400000D01*
X140060000Y-102479997D02*
X140100000Y-102439997D01*
X140390000Y-100600000D02*
X140300000Y-100690000D01*
X149100000Y-100290000D02*
X148700000Y-100690000D01*
X147700000Y-96400000D02*
X149100000Y-97800000D01*
X144000000Y-107050000D02*
X144000000Y-109011055D01*
X141950000Y-100600000D02*
X140390000Y-100600000D01*
X148940000Y-104850000D02*
X148350000Y-104850000D01*
X141600000Y-96400000D02*
X147700000Y-96400000D01*
D20*
G04 #@! TO.N,MISO1*
X144500000Y-103950000D02*
X146180000Y-103950000D01*
X145690000Y-99400000D02*
X144490000Y-100600000D01*
X148000000Y-98600000D02*
X147200000Y-99400000D01*
X144500000Y-103950000D02*
X144490000Y-103940000D01*
X147200000Y-99400000D02*
X145690000Y-99400000D01*
X144490000Y-103940000D02*
X144490000Y-100600000D01*
X142820000Y-103950000D02*
X144500000Y-103950000D01*
G04 #@! TO.N,CS5*
X148700000Y-101710000D02*
X148150000Y-102260000D01*
X148150000Y-102260000D02*
X148150000Y-103650000D01*
X148150000Y-103650000D02*
X147500000Y-104300000D01*
X147500000Y-107724013D02*
X147058203Y-108165810D01*
X148150000Y-103650000D02*
X148940000Y-103650000D01*
X147500000Y-104300000D02*
X147500000Y-107724013D01*
G04 #@! TO.N,SCK1*
X142765000Y-103350000D02*
X142820000Y-103350000D01*
X142410000Y-103705000D02*
X142765000Y-103350000D01*
X143050000Y-103350000D02*
X143220000Y-103180000D01*
X142820000Y-103350000D02*
X143050000Y-103350000D01*
X145630000Y-105100000D02*
X142700000Y-105100000D01*
X142700000Y-105100000D02*
X142410000Y-104810000D01*
X143220000Y-103180000D02*
X143220000Y-100600000D01*
X146180000Y-104550000D02*
X145630000Y-105100000D01*
X142410000Y-104810000D02*
X142410000Y-103705000D01*
G04 #@! TO.N,CS6*
X141300000Y-103700000D02*
X140750000Y-104250000D01*
X140750000Y-108050000D02*
X140750000Y-104250000D01*
X142955002Y-110255002D02*
X140750000Y-108050000D01*
X140300000Y-101710000D02*
X141300000Y-102710000D01*
X140750000Y-104250000D02*
X140060000Y-104250000D01*
X145660000Y-110255002D02*
X142955002Y-110255002D01*
X146200000Y-109715002D02*
X145660000Y-110255002D01*
X141300000Y-102710000D02*
X141300000Y-103700000D01*
G04 #@! TO.N,Free1*
X148600000Y-98000000D02*
X148600000Y-98763676D01*
X146900000Y-104500000D02*
X146900000Y-107560337D01*
X147800000Y-99563676D02*
X147800000Y-101400000D01*
X146900000Y-107560337D02*
X146400000Y-108060337D01*
X147800000Y-101400000D02*
X146900000Y-102300000D01*
X143560000Y-97800000D02*
X144300000Y-97060000D01*
X148600000Y-98763676D02*
X147800000Y-99563676D01*
X147660000Y-97060000D02*
X148600000Y-98000000D01*
X146900000Y-102300000D02*
X146900000Y-104500000D01*
X146400000Y-108060337D02*
X146400000Y-108700000D01*
X146400000Y-108700000D02*
X145384998Y-109715002D01*
X144300000Y-97060000D02*
X147660000Y-97060000D01*
X145384998Y-109715002D02*
X145196170Y-109715002D01*
G04 #@! TO.N,SCL1*
X146000000Y-106200000D02*
X146300000Y-105900000D01*
X146000000Y-107050000D02*
X146000000Y-106200000D01*
G04 #@! TO.N,RS485+*
X145600000Y-93100000D02*
X145600000Y-94600000D01*
X145600000Y-94600000D02*
X145500000Y-94700000D01*
G04 #@! TO.N,RS485-*
X144600000Y-93500000D02*
X143500000Y-94600000D01*
X144600000Y-93100000D02*
X144600000Y-93500000D01*
G04 #@! TO.N,SDA1*
X145000000Y-107050000D02*
X145000000Y-106200000D01*
X145000000Y-106200000D02*
X145300000Y-105900000D01*
G04 #@! TD*
G04 #@! TA.AperFunction,Conductor*
G04 #@! TO.N,GND*
G36*
X140481280Y-104508982D02*
G01*
X140508300Y-104555782D01*
X140509500Y-104569500D01*
X140509500Y-108002161D01*
X140509500Y-108097839D01*
X140533909Y-108156768D01*
X140546114Y-108186234D01*
X140546116Y-108186235D01*
X141637557Y-109277676D01*
X141926861Y-109566979D01*
X141949699Y-109615955D01*
X141950000Y-109622840D01*
X141950000Y-110675000D01*
X142799999Y-110675000D01*
X142799999Y-110569344D01*
X142818481Y-110518564D01*
X142865281Y-110491544D01*
X142899278Y-110495268D01*
X142899534Y-110493984D01*
X142907163Y-110495501D01*
X142907164Y-110495502D01*
X142907165Y-110495502D01*
X145707837Y-110495502D01*
X145707839Y-110495502D01*
X145796233Y-110458888D01*
X146058771Y-110196349D01*
X146107745Y-110173512D01*
X146128062Y-110175536D01*
X146128183Y-110174696D01*
X146132229Y-110175277D01*
X146133777Y-110176106D01*
X146136915Y-110176419D01*
X146139238Y-110177102D01*
X146138748Y-110178768D01*
X146179867Y-110200790D01*
X146199960Y-110250955D01*
X146200000Y-110253475D01*
X146200000Y-110675000D01*
X147050000Y-110675000D01*
X147550000Y-110675000D01*
X148399999Y-110675000D01*
X148399999Y-110225024D01*
X148389506Y-110122308D01*
X148389504Y-110122298D01*
X148334358Y-109955877D01*
X148242317Y-109806656D01*
X148242315Y-109806653D01*
X148118346Y-109682684D01*
X148118343Y-109682682D01*
X147969122Y-109590641D01*
X147802695Y-109535493D01*
X147802696Y-109535493D01*
X147699975Y-109525000D01*
X147550000Y-109525000D01*
X147550000Y-110675000D01*
X147050000Y-110675000D01*
X147050000Y-109525000D01*
X146900024Y-109525000D01*
X146797308Y-109535493D01*
X146797295Y-109535495D01*
X146714282Y-109563003D01*
X146660266Y-109561431D01*
X146619898Y-109525506D01*
X146617573Y-109520830D01*
X146591381Y-109463478D01*
X146591381Y-109463477D01*
X146504664Y-109363401D01*
X146393268Y-109291810D01*
X146393267Y-109291809D01*
X146393266Y-109291809D01*
X146331661Y-109273720D01*
X146288146Y-109241679D01*
X146275406Y-109189163D01*
X146298056Y-109142061D01*
X146603886Y-108836232D01*
X146640500Y-108747838D01*
X146640500Y-108652161D01*
X146640500Y-108589442D01*
X146658982Y-108538662D01*
X146705782Y-108511642D01*
X146759000Y-108521026D01*
X146762185Y-108522968D01*
X146864937Y-108589003D01*
X146954685Y-108615355D01*
X146991992Y-108626310D01*
X146991993Y-108626310D01*
X147124414Y-108626310D01*
X147153252Y-108617841D01*
X147251469Y-108589003D01*
X147362867Y-108517411D01*
X147449584Y-108417335D01*
X147504593Y-108296882D01*
X147523438Y-108165810D01*
X147513337Y-108095561D01*
X147524404Y-108042670D01*
X147535667Y-108028463D01*
X147703886Y-107860246D01*
X147740500Y-107771852D01*
X147740500Y-107676175D01*
X147740500Y-105384717D01*
X147758982Y-105333937D01*
X147805782Y-105306917D01*
X147859000Y-105316301D01*
X147879202Y-105332981D01*
X147895336Y-105351601D01*
X148006734Y-105423193D01*
X148062271Y-105439500D01*
X148133789Y-105460500D01*
X148133790Y-105460500D01*
X148266211Y-105460500D01*
X148295049Y-105452031D01*
X148393266Y-105423193D01*
X148504664Y-105351601D01*
X148591381Y-105251525D01*
X148627871Y-105171622D01*
X148665775Y-105133111D01*
X148700313Y-105127091D01*
X148700313Y-105125500D01*
X149120500Y-105125500D01*
X149171280Y-105143982D01*
X149198300Y-105190782D01*
X149199500Y-105204500D01*
X149199500Y-110297174D01*
X149199299Y-110302810D01*
X149182605Y-110536227D01*
X149181000Y-110547384D01*
X149131856Y-110773288D01*
X149128681Y-110784102D01*
X149047896Y-111000698D01*
X149043214Y-111010952D01*
X148932417Y-111213861D01*
X148926323Y-111223343D01*
X148787778Y-111408417D01*
X148780396Y-111416935D01*
X148616935Y-111580396D01*
X148608417Y-111587778D01*
X148526343Y-111649218D01*
X148474615Y-111664853D01*
X148424939Y-111643581D01*
X148400559Y-111595354D01*
X148400000Y-111585975D01*
X148400000Y-111175000D01*
X146200001Y-111175000D01*
X146200001Y-111624975D01*
X146210493Y-111727691D01*
X146210495Y-111727701D01*
X146266148Y-111895651D01*
X146264576Y-111949667D01*
X146228651Y-111990036D01*
X146191158Y-111999500D01*
X142808842Y-111999500D01*
X142758062Y-111981018D01*
X142731042Y-111934218D01*
X142733852Y-111895651D01*
X142789506Y-111727696D01*
X142800000Y-111624974D01*
X142800000Y-111175000D01*
X140600001Y-111175000D01*
X140600001Y-111585976D01*
X140581519Y-111636756D01*
X140534719Y-111663776D01*
X140481501Y-111654392D01*
X140473658Y-111649219D01*
X140391582Y-111587778D01*
X140383064Y-111580396D01*
X140219603Y-111416935D01*
X140212221Y-111408417D01*
X140073672Y-111223337D01*
X140067586Y-111213868D01*
X139956784Y-111010950D01*
X139952103Y-111000698D01*
X139871318Y-110784102D01*
X139868143Y-110773288D01*
X139818999Y-110547384D01*
X139817395Y-110536236D01*
X139800701Y-110302809D01*
X139800500Y-110297174D01*
X139800500Y-110225025D01*
X140600000Y-110225025D01*
X140600000Y-110675000D01*
X141450000Y-110675000D01*
X141450000Y-109525000D01*
X141300024Y-109525000D01*
X141197308Y-109535493D01*
X141197298Y-109535495D01*
X141030877Y-109590641D01*
X140881656Y-109682682D01*
X140881653Y-109682684D01*
X140757684Y-109806653D01*
X140757682Y-109806656D01*
X140665641Y-109955877D01*
X140610493Y-110122303D01*
X140600000Y-110225025D01*
X139800500Y-110225025D01*
X139800500Y-104604500D01*
X139818982Y-104553720D01*
X139865782Y-104526700D01*
X139879500Y-104525500D01*
X140295806Y-104525500D01*
X140342624Y-104516187D01*
X140361143Y-104503812D01*
X140405032Y-104490500D01*
X140430500Y-104490500D01*
X140481280Y-104508982D01*
G37*
G04 #@! TD.AperFunction*
G04 #@! TA.AperFunction,Conductor*
G36*
X141261280Y-100878982D02*
G01*
X141288300Y-100925782D01*
X141289500Y-100939500D01*
X141289500Y-101115806D01*
X141289864Y-101117634D01*
X141298812Y-101162623D01*
X141334285Y-101215714D01*
X141360831Y-101233450D01*
X141387376Y-101251187D01*
X141434194Y-101260500D01*
X142465806Y-101260500D01*
X142512624Y-101251187D01*
X142565714Y-101215714D01*
X142601187Y-101162624D01*
X142610500Y-101115806D01*
X142610500Y-101115801D01*
X142610881Y-101111942D01*
X142612634Y-101112114D01*
X142628982Y-101067199D01*
X142675782Y-101040179D01*
X142729000Y-101049563D01*
X142741887Y-101058847D01*
X142808243Y-101117633D01*
X142842038Y-101147573D01*
X142937214Y-101197525D01*
X142973587Y-101237488D01*
X142979500Y-101267475D01*
X142979500Y-102995500D01*
X142961018Y-103046280D01*
X142914218Y-103073300D01*
X142900500Y-103074500D01*
X142634194Y-103074500D01*
X142587376Y-103083812D01*
X142534285Y-103119285D01*
X142498812Y-103172376D01*
X142489500Y-103219194D01*
X142489500Y-103252659D01*
X142471018Y-103303439D01*
X142466361Y-103308520D01*
X142206116Y-103568764D01*
X142206114Y-103568766D01*
X142199675Y-103584312D01*
X142183436Y-103623520D01*
X142182615Y-103625501D01*
X142182614Y-103625501D01*
X142169500Y-103657159D01*
X142169500Y-103657162D01*
X142169500Y-104762161D01*
X142169500Y-104857839D01*
X142193909Y-104916768D01*
X142206114Y-104946234D01*
X142563765Y-105303885D01*
X142563766Y-105303885D01*
X142563767Y-105303886D01*
X142652161Y-105340500D01*
X142652162Y-105340500D01*
X142652163Y-105340500D01*
X145049782Y-105340500D01*
X145100562Y-105358982D01*
X145127582Y-105405782D01*
X145118198Y-105459000D01*
X145092493Y-105485959D01*
X144995335Y-105548399D01*
X144908619Y-105648474D01*
X144853610Y-105768927D01*
X144853609Y-105768930D01*
X144834765Y-105900000D01*
X144844864Y-105970246D01*
X144833796Y-106023140D01*
X144822531Y-106037348D01*
X144796113Y-106063767D01*
X144785110Y-106090331D01*
X144748601Y-106130172D01*
X144744034Y-106132366D01*
X144671489Y-106164398D01*
X144671483Y-106164402D01*
X144589405Y-106246480D01*
X144589398Y-106246489D01*
X144572267Y-106285288D01*
X144534847Y-106324275D01*
X144481122Y-106330088D01*
X144436229Y-106300007D01*
X144427733Y-106285291D01*
X144410599Y-106246486D01*
X144410595Y-106246482D01*
X144410594Y-106246480D01*
X144328519Y-106164405D01*
X144328515Y-106164402D01*
X144328514Y-106164401D01*
X144222320Y-106117512D01*
X144196357Y-106114500D01*
X144196355Y-106114500D01*
X143803649Y-106114500D01*
X143803632Y-106114501D01*
X143777779Y-106117500D01*
X143725208Y-106104990D01*
X143700680Y-106079240D01*
X143667682Y-106023443D01*
X143667680Y-106023440D01*
X143551559Y-105907319D01*
X143551556Y-105907317D01*
X143410195Y-105823716D01*
X143252492Y-105777900D01*
X143250000Y-105777703D01*
X143250000Y-108322295D01*
X143252490Y-108322099D01*
X143252493Y-108322099D01*
X143410195Y-108276283D01*
X143551556Y-108192682D01*
X143551559Y-108192680D01*
X143604639Y-108139601D01*
X143653615Y-108116763D01*
X143705813Y-108130749D01*
X143736808Y-108175015D01*
X143739500Y-108195462D01*
X143739500Y-108870429D01*
X143721018Y-108921209D01*
X143716361Y-108926290D01*
X143411288Y-109231363D01*
X143362312Y-109254201D01*
X143355427Y-109254502D01*
X143229842Y-109254502D01*
X143102786Y-109291809D01*
X143102784Y-109291810D01*
X142991388Y-109363401D01*
X142904672Y-109463476D01*
X142849663Y-109583929D01*
X142849662Y-109583932D01*
X142843762Y-109624969D01*
X142818240Y-109672602D01*
X142768071Y-109692685D01*
X142716731Y-109675823D01*
X142709705Y-109669586D01*
X141013639Y-107973520D01*
X140990801Y-107924544D01*
X140990500Y-107917659D01*
X140990500Y-107740634D01*
X142200000Y-107740634D01*
X142202900Y-107777489D01*
X142202901Y-107777494D01*
X142248716Y-107935195D01*
X142332317Y-108076556D01*
X142332319Y-108076559D01*
X142448440Y-108192680D01*
X142448443Y-108192682D01*
X142589804Y-108276283D01*
X142747507Y-108322099D01*
X142750000Y-108322295D01*
X142750000Y-107300000D01*
X142200000Y-107300000D01*
X142200000Y-107740634D01*
X140990500Y-107740634D01*
X140990500Y-106359365D01*
X142200000Y-106359365D01*
X142200000Y-106800000D01*
X142750000Y-106800000D01*
X142750000Y-105777703D01*
X142747508Y-105777900D01*
X142747506Y-105777900D01*
X142589804Y-105823716D01*
X142448443Y-105907317D01*
X142448440Y-105907319D01*
X142332319Y-106023440D01*
X142332317Y-106023443D01*
X142248716Y-106164804D01*
X142202901Y-106322505D01*
X142202900Y-106322510D01*
X142200000Y-106359365D01*
X140990500Y-106359365D01*
X140990500Y-104382340D01*
X141008982Y-104331560D01*
X141013639Y-104326479D01*
X141503885Y-103836233D01*
X141503886Y-103836232D01*
X141540500Y-103747838D01*
X141540500Y-102662162D01*
X141503886Y-102573768D01*
X141436232Y-102506114D01*
X140803638Y-101873520D01*
X140780800Y-101824544D01*
X140780499Y-101817659D01*
X140780499Y-101530883D01*
X140780498Y-101530875D01*
X140777634Y-101506173D01*
X140733010Y-101405109D01*
X140733007Y-101405106D01*
X140733005Y-101405103D01*
X140654896Y-101326994D01*
X140654890Y-101326989D01*
X140594627Y-101300381D01*
X140553827Y-101282366D01*
X140529123Y-101279500D01*
X140529122Y-101279500D01*
X140070883Y-101279500D01*
X140070871Y-101279501D01*
X140046173Y-101282366D01*
X139945109Y-101326990D01*
X139945103Y-101326994D01*
X139935361Y-101336737D01*
X139886385Y-101359575D01*
X139834187Y-101345589D01*
X139803192Y-101301323D01*
X139800500Y-101280876D01*
X139800500Y-101119124D01*
X139818982Y-101068344D01*
X139865782Y-101041324D01*
X139919000Y-101050708D01*
X139935361Y-101063263D01*
X139945103Y-101073005D01*
X139945108Y-101073009D01*
X139945109Y-101073010D01*
X140046173Y-101117634D01*
X140070877Y-101120500D01*
X140529122Y-101120499D01*
X140553827Y-101117634D01*
X140654891Y-101073010D01*
X140733010Y-100994891D01*
X140771557Y-100907589D01*
X140808976Y-100868602D01*
X140843826Y-100860500D01*
X141210500Y-100860500D01*
X141261280Y-100878982D01*
G37*
G04 #@! TD.AperFunction*
G04 #@! TA.AperFunction,Conductor*
G36*
X148638856Y-103903812D02*
G01*
X148657376Y-103916187D01*
X148704194Y-103925500D01*
X149120500Y-103925500D01*
X149171280Y-103943982D01*
X149198300Y-103990782D01*
X149199500Y-104004500D01*
X149199500Y-104495500D01*
X149181018Y-104546280D01*
X149134218Y-104573300D01*
X149120500Y-104574500D01*
X148704194Y-104574500D01*
X148649744Y-104585331D01*
X148649711Y-104585167D01*
X148627932Y-104589500D01*
X148436213Y-104589500D01*
X148398709Y-104578488D01*
X148398405Y-104579154D01*
X148393774Y-104577039D01*
X148393505Y-104576960D01*
X148393268Y-104576808D01*
X148393267Y-104576807D01*
X148266211Y-104539500D01*
X148266210Y-104539500D01*
X148133790Y-104539500D01*
X148133789Y-104539500D01*
X148006733Y-104576807D01*
X148006731Y-104576808D01*
X147895335Y-104648399D01*
X147879204Y-104667016D01*
X147831982Y-104693290D01*
X147778919Y-104683062D01*
X147744845Y-104641120D01*
X147740500Y-104615282D01*
X147740500Y-104432340D01*
X147758982Y-104381560D01*
X147763639Y-104376479D01*
X148226479Y-103913639D01*
X148275455Y-103890801D01*
X148282340Y-103890500D01*
X148594968Y-103890500D01*
X148638856Y-103903812D01*
G37*
G04 #@! TD.AperFunction*
G04 #@! TA.AperFunction,Conductor*
G36*
X140685473Y-102436381D02*
G01*
X140692500Y-102442618D01*
X141036361Y-102786479D01*
X141059199Y-102835455D01*
X141059500Y-102842340D01*
X141059500Y-103567659D01*
X141041018Y-103618439D01*
X141036361Y-103623520D01*
X140673520Y-103986361D01*
X140624544Y-104009199D01*
X140617659Y-104009500D01*
X140405032Y-104009500D01*
X140361143Y-103996187D01*
X140346437Y-103986361D01*
X140342624Y-103983813D01*
X140342623Y-103983812D01*
X140295806Y-103974500D01*
X139879500Y-103974500D01*
X139828720Y-103956018D01*
X139801700Y-103909218D01*
X139800500Y-103895500D01*
X139800500Y-103404500D01*
X139818982Y-103353720D01*
X139865782Y-103326700D01*
X139879500Y-103325500D01*
X140295806Y-103325500D01*
X140342624Y-103316187D01*
X140395714Y-103280714D01*
X140431187Y-103227624D01*
X140440500Y-103180806D01*
X140440500Y-102919194D01*
X140431187Y-102872376D01*
X140422634Y-102859576D01*
X140409792Y-102807086D01*
X140428618Y-102763954D01*
X140437155Y-102754101D01*
X140491381Y-102691522D01*
X140546390Y-102571069D01*
X140558443Y-102487235D01*
X140583964Y-102439603D01*
X140634132Y-102419519D01*
X140685473Y-102436381D01*
G37*
G04 #@! TD.AperFunction*
G04 #@! TA.AperFunction,Conductor*
G36*
X149165813Y-102074411D02*
G01*
X149196808Y-102118677D01*
X149199500Y-102139124D01*
X149199500Y-103295500D01*
X149181018Y-103346280D01*
X149134218Y-103373300D01*
X149120500Y-103374500D01*
X148704194Y-103374500D01*
X148657376Y-103383812D01*
X148638857Y-103396187D01*
X148594968Y-103409500D01*
X148469500Y-103409500D01*
X148418720Y-103391018D01*
X148391700Y-103344218D01*
X148390500Y-103330500D01*
X148390500Y-102392340D01*
X148408982Y-102341560D01*
X148413639Y-102336479D01*
X148586480Y-102163638D01*
X148635456Y-102140800D01*
X148642341Y-102140499D01*
X148929116Y-102140499D01*
X148929122Y-102140499D01*
X148953827Y-102137634D01*
X149054891Y-102093010D01*
X149054896Y-102093005D01*
X149064639Y-102083263D01*
X149113615Y-102060425D01*
X149165813Y-102074411D01*
G37*
G04 #@! TD.AperFunction*
G04 #@! TA.AperFunction,Conductor*
G36*
X147531280Y-100368482D02*
G01*
X147558300Y-100415282D01*
X147559500Y-100429000D01*
X147559500Y-100771000D01*
X147541018Y-100821780D01*
X147494218Y-100848800D01*
X147480500Y-100850000D01*
X147280000Y-100850000D01*
X147280000Y-101547158D01*
X147261518Y-101597938D01*
X147256861Y-101603019D01*
X146696115Y-102163764D01*
X146676070Y-102212160D01*
X146676069Y-102212162D01*
X146659500Y-102252161D01*
X146659500Y-103166168D01*
X146641018Y-103216948D01*
X146594218Y-103243968D01*
X146541000Y-103234584D01*
X146506264Y-103193188D01*
X146503018Y-103181581D01*
X146501187Y-103172376D01*
X146465714Y-103119285D01*
X146416437Y-103086361D01*
X146412624Y-103083813D01*
X146412623Y-103083812D01*
X146365806Y-103074500D01*
X145994194Y-103074500D01*
X145947376Y-103083812D01*
X145928857Y-103096187D01*
X145884968Y-103109500D01*
X145682341Y-103109500D01*
X145631561Y-103091018D01*
X145626480Y-103086361D01*
X145577469Y-103037350D01*
X145554631Y-102988374D01*
X145555133Y-102970254D01*
X145565235Y-102900000D01*
X145555134Y-102829751D01*
X145566201Y-102776860D01*
X145577464Y-102762653D01*
X145963886Y-102376233D01*
X146000500Y-102287839D01*
X146000500Y-102192161D01*
X146000500Y-101267475D01*
X146018982Y-101216695D01*
X146042783Y-101197526D01*
X146114390Y-101159944D01*
X146167939Y-101152712D01*
X146212168Y-101179779D01*
X146319471Y-101310528D01*
X146471739Y-101435492D01*
X146645468Y-101528351D01*
X146645472Y-101528352D01*
X146780000Y-101569160D01*
X146780000Y-100809618D01*
X146830446Y-100860064D01*
X146904555Y-100902851D01*
X146987213Y-100925000D01*
X147072787Y-100925000D01*
X147155445Y-100902851D01*
X147229554Y-100860064D01*
X147290064Y-100799554D01*
X147332851Y-100725445D01*
X147355000Y-100642787D01*
X147355000Y-100557213D01*
X147332851Y-100474555D01*
X147290064Y-100400446D01*
X147239618Y-100350000D01*
X147480500Y-100350000D01*
X147531280Y-100368482D01*
G37*
G04 #@! TD.AperFunction*
G04 #@! TA.AperFunction,Conductor*
G36*
X144307202Y-92618982D02*
G01*
X144334222Y-92665782D01*
X144324838Y-92719000D01*
X144299134Y-92745958D01*
X144295336Y-92748398D01*
X144295335Y-92748399D01*
X144208619Y-92848474D01*
X144153610Y-92968927D01*
X144153609Y-92968930D01*
X144134765Y-93100000D01*
X144153609Y-93231069D01*
X144153610Y-93231072D01*
X144208619Y-93351525D01*
X144253178Y-93402949D01*
X144272464Y-93453430D01*
X144254790Y-93504497D01*
X144249335Y-93510544D01*
X143804392Y-93955487D01*
X143755416Y-93978325D01*
X143729625Y-93976330D01*
X143580202Y-93939500D01*
X143580199Y-93939500D01*
X143419801Y-93939500D01*
X143419797Y-93939500D01*
X143264064Y-93977885D01*
X143264063Y-93977885D01*
X143122038Y-94052426D01*
X143001981Y-94158787D01*
X143001979Y-94158789D01*
X142910859Y-94290797D01*
X142853983Y-94440768D01*
X142853983Y-94440769D01*
X142834649Y-94599999D01*
X142834649Y-94600000D01*
X142853983Y-94759230D01*
X142853983Y-94759231D01*
X142910859Y-94909202D01*
X142971605Y-94997207D01*
X142979886Y-95009204D01*
X143001979Y-95041210D01*
X143001981Y-95041212D01*
X143122038Y-95147573D01*
X143122037Y-95147573D01*
X143264063Y-95222114D01*
X143419801Y-95260500D01*
X143580199Y-95260500D01*
X143735937Y-95222114D01*
X143877962Y-95147573D01*
X143998022Y-95041209D01*
X144089139Y-94909204D01*
X144146017Y-94759229D01*
X144165351Y-94600000D01*
X144146017Y-94440771D01*
X144146016Y-94440769D01*
X144127064Y-94390797D01*
X144123798Y-94382187D01*
X144123073Y-94328154D01*
X144141800Y-94298317D01*
X144803886Y-93636233D01*
X144840500Y-93547839D01*
X144840500Y-93535974D01*
X144858982Y-93485194D01*
X144876789Y-93469515D01*
X144904664Y-93451601D01*
X144991381Y-93351525D01*
X145028139Y-93271035D01*
X145066046Y-93232522D01*
X145119840Y-93227385D01*
X145164351Y-93258028D01*
X145171861Y-93271036D01*
X145208617Y-93351523D01*
X145208618Y-93351524D01*
X145238612Y-93386138D01*
X145295336Y-93451601D01*
X145303216Y-93456665D01*
X145323211Y-93469515D01*
X145355937Y-93512518D01*
X145359500Y-93535974D01*
X145359500Y-93992469D01*
X145341018Y-94043249D01*
X145299408Y-94069173D01*
X145264062Y-94077885D01*
X145122038Y-94152426D01*
X145001981Y-94258787D01*
X145001979Y-94258789D01*
X144910859Y-94390797D01*
X144853983Y-94540768D01*
X144853983Y-94540769D01*
X144834649Y-94699999D01*
X144834649Y-94700000D01*
X144853983Y-94859230D01*
X144853983Y-94859231D01*
X144910859Y-95009202D01*
X145001979Y-95141210D01*
X145001981Y-95141212D01*
X145122038Y-95247573D01*
X145122037Y-95247573D01*
X145264063Y-95322114D01*
X145419801Y-95360500D01*
X145580199Y-95360500D01*
X145735937Y-95322114D01*
X145877962Y-95247573D01*
X145998022Y-95141209D01*
X146089139Y-95009204D01*
X146146017Y-94859229D01*
X146165351Y-94700000D01*
X146146017Y-94540771D01*
X146108092Y-94440770D01*
X146089140Y-94390797D01*
X146045900Y-94328154D01*
X145998022Y-94258791D01*
X145998020Y-94258789D01*
X145998018Y-94258787D01*
X145877962Y-94152427D01*
X145874620Y-94150120D01*
X145843330Y-94106061D01*
X145840500Y-94085106D01*
X145840500Y-93535974D01*
X145858982Y-93485194D01*
X145876789Y-93469515D01*
X145904664Y-93451601D01*
X145991381Y-93351525D01*
X146046390Y-93231072D01*
X146065235Y-93100000D01*
X146046390Y-92968928D01*
X145991381Y-92848475D01*
X145904664Y-92748399D01*
X145904663Y-92748398D01*
X145900866Y-92745958D01*
X145868140Y-92702955D01*
X145870713Y-92648977D01*
X145907380Y-92609281D01*
X145943578Y-92600500D01*
X147452405Y-92600500D01*
X147497174Y-92600500D01*
X147502809Y-92600701D01*
X147529936Y-92602641D01*
X147736236Y-92617395D01*
X147747384Y-92618999D01*
X147973288Y-92668143D01*
X147984101Y-92671317D01*
X148200700Y-92752104D01*
X148210950Y-92756784D01*
X148413868Y-92867586D01*
X148423337Y-92873672D01*
X148548646Y-92967477D01*
X148608417Y-93012221D01*
X148616935Y-93019603D01*
X148780396Y-93183064D01*
X148787778Y-93191582D01*
X148909452Y-93354120D01*
X148926323Y-93376656D01*
X148932415Y-93386135D01*
X148968162Y-93451600D01*
X149043214Y-93589047D01*
X149047896Y-93599301D01*
X149128681Y-93815897D01*
X149131856Y-93826711D01*
X149181000Y-94052615D01*
X149182605Y-94063772D01*
X149199299Y-94297189D01*
X149199500Y-94302825D01*
X149199500Y-97340375D01*
X149181018Y-97391155D01*
X149134218Y-97418175D01*
X149081000Y-97408791D01*
X149064639Y-97396236D01*
X147847564Y-96179161D01*
X147847557Y-96179156D01*
X147751818Y-96139500D01*
X147751817Y-96139500D01*
X141548183Y-96139500D01*
X141548182Y-96139500D01*
X141452442Y-96179156D01*
X141452435Y-96179161D01*
X140215236Y-97416361D01*
X140166260Y-97439199D01*
X140159375Y-97439500D01*
X140033789Y-97439500D01*
X139901757Y-97478268D01*
X139847826Y-97474841D01*
X139808716Y-97437549D01*
X139800500Y-97402468D01*
X139800500Y-94302825D01*
X139800701Y-94297190D01*
X139803447Y-94258789D01*
X139817395Y-94063761D01*
X139818999Y-94052615D01*
X139868143Y-93826711D01*
X139871318Y-93815897D01*
X139952106Y-93599293D01*
X139956781Y-93589054D01*
X140067590Y-93386125D01*
X140073667Y-93376668D01*
X140212227Y-93191574D01*
X140219596Y-93183071D01*
X140383071Y-93019596D01*
X140391574Y-93012227D01*
X140576668Y-92873667D01*
X140586125Y-92867590D01*
X140789054Y-92756781D01*
X140799293Y-92752106D01*
X141015902Y-92671316D01*
X141026711Y-92668143D01*
X141252615Y-92618999D01*
X141263761Y-92617395D01*
X141472114Y-92602494D01*
X141497191Y-92600701D01*
X141502826Y-92600500D01*
X141547595Y-92600500D01*
X144256422Y-92600500D01*
X144307202Y-92618982D01*
G37*
G04 #@! TD.AperFunction*
G04 #@! TD*
M02*
