G04 #@! TF.GenerationSoftware,KiCad,Pcbnew,8.0.7-8.0.7-0~ubuntu24.04.1*
G04 #@! TF.CreationDate,2024-12-30T14:28:34-07:00*
G04 #@! TF.ProjectId,2 connector Sensor Board,3220636f-6e6e-4656-9374-6f722053656e,V1*
G04 #@! TF.SameCoordinates,Original*
G04 #@! TF.FileFunction,Soldermask,Bot*
G04 #@! TF.FilePolarity,Negative*
%FSLAX46Y46*%
G04 Gerber Fmt 4.6, Leading zero omitted, Abs format (unit mm)*
G04 Created by KiCad (PCBNEW 8.0.7-8.0.7-0~ubuntu24.04.1) date 2024-12-30 14:28:34*
%MOMM*%
%LPD*%
G01*
G04 APERTURE LIST*
G04 Aperture macros list*
%AMRoundRect*
0 Rectangle with rounded corners*
0 $1 Rounding radius*
0 $2 $3 $4 $5 $6 $7 $8 $9 X,Y pos of 4 corners*
0 Add a 4 corners polygon primitive as box body*
4,1,4,$2,$3,$4,$5,$6,$7,$8,$9,$2,$3,0*
0 Add four circle primitives for the rounded corners*
1,1,$1+$1,$2,$3*
1,1,$1+$1,$4,$5*
1,1,$1+$1,$6,$7*
1,1,$1+$1,$8,$9*
0 Add four rect primitives between the rounded corners*
20,1,$1+$1,$2,$3,$4,$5,0*
20,1,$1+$1,$4,$5,$6,$7,0*
20,1,$1+$1,$6,$7,$8,$9,0*
20,1,$1+$1,$8,$9,$2,$3,0*%
G04 Aperture macros list end*
%ADD10RoundRect,0.050000X0.500000X-0.500000X0.500000X0.500000X-0.500000X0.500000X-0.500000X-0.500000X0*%
%ADD11O,1.100000X1.100000*%
%ADD12RoundRect,0.050000X-0.500000X0.500000X-0.500000X-0.500000X0.500000X-0.500000X0.500000X0.500000X0*%
%ADD13RoundRect,0.050000X0.115000X0.325000X-0.115000X0.325000X-0.115000X-0.325000X0.115000X-0.325000X0*%
%ADD14RoundRect,0.050000X0.225000X0.265000X-0.225000X0.265000X-0.225000X-0.265000X0.225000X-0.265000X0*%
G04 APERTURE END LIST*
D10*
G04 #@! TO.C,J1*
X141950000Y-100600000D03*
D11*
X143220000Y-100600000D03*
X144490000Y-100600000D03*
X145760000Y-100600000D03*
X147030000Y-100600000D03*
G04 #@! TD*
D12*
G04 #@! TO.C,J3*
X146100000Y-97800000D03*
D11*
X144830000Y-97800000D03*
X143560000Y-97800000D03*
X142290000Y-97800000D03*
G04 #@! TD*
D13*
G04 #@! TO.C,J4*
X147310000Y-95680000D03*
X147310000Y-93930000D03*
X146910000Y-95680000D03*
X146910000Y-93930000D03*
X146510000Y-95680000D03*
X146510000Y-93930000D03*
X146110000Y-95680000D03*
X146110000Y-93930000D03*
X145710000Y-95680000D03*
X145710000Y-93930000D03*
X145310000Y-95680000D03*
X145310000Y-93930000D03*
X144910000Y-95680000D03*
X144910000Y-93930000D03*
X144510000Y-95680000D03*
X144510000Y-93930000D03*
X144110000Y-95680000D03*
X144110000Y-93930000D03*
X143710000Y-95680000D03*
X143710000Y-93930000D03*
X143310000Y-95680000D03*
X143310000Y-93930000D03*
X142910000Y-95680000D03*
X142910000Y-93930000D03*
X142510000Y-95680000D03*
X142510000Y-93930000D03*
X142110000Y-95680000D03*
X142110000Y-93930000D03*
X141710000Y-95680000D03*
X141710000Y-93930000D03*
D14*
X148110000Y-95370000D03*
X148110000Y-94240000D03*
X140910000Y-95370000D03*
X140910000Y-94240000D03*
G04 #@! TD*
D13*
G04 #@! TO.C,J15*
X147310000Y-110680000D03*
X147310000Y-108930000D03*
X146910000Y-110680000D03*
X146910000Y-108930000D03*
X146510000Y-110680000D03*
X146510000Y-108930000D03*
X146110000Y-110680000D03*
X146110000Y-108930000D03*
X145710000Y-110680000D03*
X145710000Y-108930000D03*
X145310000Y-110680000D03*
X145310000Y-108930000D03*
X144910000Y-110680000D03*
X144910000Y-108930000D03*
X144510000Y-110680000D03*
X144510000Y-108930000D03*
X144110000Y-110680000D03*
X144110000Y-108930000D03*
X143710000Y-110680000D03*
X143710000Y-108930000D03*
X143310000Y-110680000D03*
X143310000Y-108930000D03*
X142910000Y-110680000D03*
X142910000Y-108930000D03*
X142510000Y-110680000D03*
X142510000Y-108930000D03*
X142110000Y-110680000D03*
X142110000Y-108930000D03*
X141710000Y-110680000D03*
X141710000Y-108930000D03*
D14*
X148110000Y-110370000D03*
X148110000Y-109240000D03*
X140910000Y-110370000D03*
X140910000Y-109240000D03*
G04 #@! TD*
M02*
