%TF.GenerationSoftware,KiCad,Pcbnew,8.0.7-8.0.7-0~ubuntu24.04.1*%
%TF.CreationDate,2024-12-30T14:28:34-07:00*%
%TF.ProjectId,2 connector Sensor Board,3220636f-6e6e-4656-9374-6f722053656e,V1*%
%TF.SameCoordinates,Original*%
%TF.FileFunction,Drillmap*%
%TF.FilePolarity,Positive*%
%FSLAX45Y45*%
G04 Gerber Fmt 4.5, Leading zero omitted, Abs format (unit mm)*
G04 Created by KiCad (PCBNEW 8.0.7-8.0.7-0~ubuntu24.04.1) date 2024-12-30 14:28:34*
%MOMM*%
%LPD*%
G01*
G04 APERTURE LIST*
%ADD10C,0.050000*%
%ADD11C,0.200000*%
%ADD12C,0.100000*%
G04 APERTURE END LIST*
D10*
X14150000Y-11230000D02*
G75*
G02*
X13950000Y-11030000I0J200000D01*
G01*
X14950000Y-9430000D02*
X14950000Y-11030000D01*
X14150000Y-9230000D02*
X14750000Y-9230000D01*
X14950000Y-11030000D02*
G75*
G02*
X14750000Y-11230000I-200000J0D01*
G01*
X14750000Y-9230000D02*
G75*
G02*
X14950000Y-9430000I0J-200000D01*
G01*
X13950000Y-9430000D02*
G75*
G02*
X14150000Y-9230000I200000J0D01*
G01*
X14750000Y-11230000D02*
X14150000Y-11230000D01*
X13950000Y-11030000D02*
X13950000Y-9430000D01*
D11*
D12*
X13995000Y-9775000D02*
X14025000Y-9805000D01*
X14025000Y-9775000D02*
X13995000Y-9805000D01*
X13995000Y-10229000D02*
X14025000Y-10259000D01*
X14025000Y-10229000D02*
X13995000Y-10259000D01*
X14015000Y-11025000D02*
X14045000Y-11055000D01*
X14045000Y-11025000D02*
X14015000Y-11055000D01*
X14055000Y-9355000D02*
X14085000Y-9385000D01*
X14085000Y-9355000D02*
X14055000Y-9385000D01*
X14056793Y-10315577D02*
X14086793Y-10345577D01*
X14086793Y-10315577D02*
X14056793Y-10345577D01*
X14175000Y-10575000D02*
X14205000Y-10605000D01*
X14205000Y-10575000D02*
X14175000Y-10605000D01*
X14314605Y-10956500D02*
X14344605Y-10986500D01*
X14344605Y-10956500D02*
X14314605Y-10986500D01*
X14345000Y-10435000D02*
X14375000Y-10465000D01*
X14375000Y-10435000D02*
X14345000Y-10465000D01*
X14445000Y-9295000D02*
X14475000Y-9325000D01*
X14475000Y-9295000D02*
X14445000Y-9325000D01*
X14495000Y-10275000D02*
X14525000Y-10305000D01*
X14525000Y-10275000D02*
X14495000Y-10305000D01*
X14504617Y-10956500D02*
X14534617Y-10986500D01*
X14534617Y-10956500D02*
X14504617Y-10986500D01*
X14515000Y-10575000D02*
X14545000Y-10605000D01*
X14545000Y-10575000D02*
X14515000Y-10605000D01*
X14545000Y-9295000D02*
X14575000Y-9325000D01*
X14575000Y-9295000D02*
X14545000Y-9325000D01*
X14605000Y-10956500D02*
X14635000Y-10986500D01*
X14635000Y-10956500D02*
X14605000Y-10986500D01*
X14615000Y-10575000D02*
X14645000Y-10605000D01*
X14645000Y-10575000D02*
X14615000Y-10605000D01*
X14690820Y-10801581D02*
X14720820Y-10831581D01*
X14720820Y-10801581D02*
X14690820Y-10831581D01*
X14785000Y-9845000D02*
X14815000Y-9875000D01*
X14815000Y-9845000D02*
X14785000Y-9875000D01*
X14805000Y-10485000D02*
X14835000Y-10515000D01*
X14835000Y-10485000D02*
X14805000Y-10515000D01*
X14816494Y-10409874D02*
X14846494Y-10439874D01*
X14846494Y-10409874D02*
X14816494Y-10439874D01*
X14845000Y-9375000D02*
X14875000Y-9405000D01*
X14875000Y-9375000D02*
X14845000Y-9405000D01*
X14855000Y-10915000D02*
X14885000Y-10945000D01*
X14885000Y-10915000D02*
X14855000Y-10945000D01*
X14865000Y-10235000D02*
X14895000Y-10265000D01*
X14895000Y-10235000D02*
X14865000Y-10265000D01*
X14227500Y-10060000D02*
G75*
G02*
X14162500Y-10060000I-32500J0D01*
G01*
X14162500Y-10060000D02*
G75*
G02*
X14227500Y-10060000I32500J0D01*
G01*
X14261500Y-9780000D02*
G75*
G02*
X14196500Y-9780000I-32500J0D01*
G01*
X14196500Y-9780000D02*
G75*
G02*
X14261500Y-9780000I32500J0D01*
G01*
X14354500Y-10060000D02*
G75*
G02*
X14289500Y-10060000I-32500J0D01*
G01*
X14289500Y-10060000D02*
G75*
G02*
X14354500Y-10060000I32500J0D01*
G01*
X14388500Y-9780000D02*
G75*
G02*
X14323500Y-9780000I-32500J0D01*
G01*
X14323500Y-9780000D02*
G75*
G02*
X14388500Y-9780000I32500J0D01*
G01*
X14481500Y-10060000D02*
G75*
G02*
X14416500Y-10060000I-32500J0D01*
G01*
X14416500Y-10060000D02*
G75*
G02*
X14481500Y-10060000I32500J0D01*
G01*
X14515500Y-9780000D02*
G75*
G02*
X14450500Y-9780000I-32500J0D01*
G01*
X14450500Y-9780000D02*
G75*
G02*
X14515500Y-9780000I32500J0D01*
G01*
X14608500Y-10060000D02*
G75*
G02*
X14543500Y-10060000I-32500J0D01*
G01*
X14543500Y-10060000D02*
G75*
G02*
X14608500Y-10060000I32500J0D01*
G01*
X14642500Y-9780000D02*
G75*
G02*
X14577500Y-9780000I-32500J0D01*
G01*
X14577500Y-9780000D02*
G75*
G02*
X14642500Y-9780000I32500J0D01*
G01*
X14735500Y-10060000D02*
G75*
G02*
X14670500Y-10060000I-32500J0D01*
G01*
X14670500Y-10060000D02*
G75*
G02*
X14735500Y-10060000I32500J0D01*
G01*
D11*
X14208277Y-11543984D02*
X14208277Y-11343984D01*
X14208277Y-11343984D02*
X14255896Y-11343984D01*
X14255896Y-11343984D02*
X14284467Y-11353508D01*
X14284467Y-11353508D02*
X14303515Y-11372555D01*
X14303515Y-11372555D02*
X14313039Y-11391603D01*
X14313039Y-11391603D02*
X14322562Y-11429698D01*
X14322562Y-11429698D02*
X14322562Y-11458269D01*
X14322562Y-11458269D02*
X14313039Y-11496365D01*
X14313039Y-11496365D02*
X14303515Y-11515412D01*
X14303515Y-11515412D02*
X14284467Y-11534460D01*
X14284467Y-11534460D02*
X14255896Y-11543984D01*
X14255896Y-11543984D02*
X14208277Y-11543984D01*
X14408277Y-11543984D02*
X14408277Y-11410650D01*
X14408277Y-11448746D02*
X14417801Y-11429698D01*
X14417801Y-11429698D02*
X14427324Y-11420174D01*
X14427324Y-11420174D02*
X14446372Y-11410650D01*
X14446372Y-11410650D02*
X14465420Y-11410650D01*
X14532086Y-11543984D02*
X14532086Y-11410650D01*
X14532086Y-11343984D02*
X14522562Y-11353508D01*
X14522562Y-11353508D02*
X14532086Y-11363031D01*
X14532086Y-11363031D02*
X14541610Y-11353508D01*
X14541610Y-11353508D02*
X14532086Y-11343984D01*
X14532086Y-11343984D02*
X14532086Y-11363031D01*
X14655896Y-11543984D02*
X14636848Y-11534460D01*
X14636848Y-11534460D02*
X14627324Y-11515412D01*
X14627324Y-11515412D02*
X14627324Y-11343984D01*
X14760658Y-11543984D02*
X14741610Y-11534460D01*
X14741610Y-11534460D02*
X14732086Y-11515412D01*
X14732086Y-11515412D02*
X14732086Y-11343984D01*
X14989229Y-11543984D02*
X14989229Y-11343984D01*
X14989229Y-11343984D02*
X15055896Y-11486841D01*
X15055896Y-11486841D02*
X15122562Y-11343984D01*
X15122562Y-11343984D02*
X15122562Y-11543984D01*
X15303515Y-11543984D02*
X15303515Y-11439222D01*
X15303515Y-11439222D02*
X15293991Y-11420174D01*
X15293991Y-11420174D02*
X15274943Y-11410650D01*
X15274943Y-11410650D02*
X15236848Y-11410650D01*
X15236848Y-11410650D02*
X15217801Y-11420174D01*
X15303515Y-11534460D02*
X15284467Y-11543984D01*
X15284467Y-11543984D02*
X15236848Y-11543984D01*
X15236848Y-11543984D02*
X15217801Y-11534460D01*
X15217801Y-11534460D02*
X15208277Y-11515412D01*
X15208277Y-11515412D02*
X15208277Y-11496365D01*
X15208277Y-11496365D02*
X15217801Y-11477317D01*
X15217801Y-11477317D02*
X15236848Y-11467793D01*
X15236848Y-11467793D02*
X15284467Y-11467793D01*
X15284467Y-11467793D02*
X15303515Y-11458269D01*
X15398753Y-11410650D02*
X15398753Y-11610650D01*
X15398753Y-11420174D02*
X15417801Y-11410650D01*
X15417801Y-11410650D02*
X15455896Y-11410650D01*
X15455896Y-11410650D02*
X15474943Y-11420174D01*
X15474943Y-11420174D02*
X15484467Y-11429698D01*
X15484467Y-11429698D02*
X15493991Y-11448746D01*
X15493991Y-11448746D02*
X15493991Y-11505888D01*
X15493991Y-11505888D02*
X15484467Y-11524936D01*
X15484467Y-11524936D02*
X15474943Y-11534460D01*
X15474943Y-11534460D02*
X15455896Y-11543984D01*
X15455896Y-11543984D02*
X15417801Y-11543984D01*
X15417801Y-11543984D02*
X15398753Y-11534460D01*
X15579705Y-11524936D02*
X15589229Y-11534460D01*
X15589229Y-11534460D02*
X15579705Y-11543984D01*
X15579705Y-11543984D02*
X15570182Y-11534460D01*
X15570182Y-11534460D02*
X15579705Y-11524936D01*
X15579705Y-11524936D02*
X15579705Y-11543984D01*
X15579705Y-11420174D02*
X15589229Y-11429698D01*
X15589229Y-11429698D02*
X15579705Y-11439222D01*
X15579705Y-11439222D02*
X15570182Y-11429698D01*
X15570182Y-11429698D02*
X15579705Y-11420174D01*
X15579705Y-11420174D02*
X15579705Y-11439222D01*
D12*
X13917500Y-11857500D02*
X13947500Y-11887500D01*
X13947500Y-11857500D02*
X13917500Y-11887500D01*
D11*
X14246372Y-11763984D02*
X14265420Y-11763984D01*
X14265420Y-11763984D02*
X14284467Y-11773508D01*
X14284467Y-11773508D02*
X14293991Y-11783031D01*
X14293991Y-11783031D02*
X14303515Y-11802079D01*
X14303515Y-11802079D02*
X14313039Y-11840174D01*
X14313039Y-11840174D02*
X14313039Y-11887793D01*
X14313039Y-11887793D02*
X14303515Y-11925888D01*
X14303515Y-11925888D02*
X14293991Y-11944936D01*
X14293991Y-11944936D02*
X14284467Y-11954460D01*
X14284467Y-11954460D02*
X14265420Y-11963984D01*
X14265420Y-11963984D02*
X14246372Y-11963984D01*
X14246372Y-11963984D02*
X14227324Y-11954460D01*
X14227324Y-11954460D02*
X14217801Y-11944936D01*
X14217801Y-11944936D02*
X14208277Y-11925888D01*
X14208277Y-11925888D02*
X14198753Y-11887793D01*
X14198753Y-11887793D02*
X14198753Y-11840174D01*
X14198753Y-11840174D02*
X14208277Y-11802079D01*
X14208277Y-11802079D02*
X14217801Y-11783031D01*
X14217801Y-11783031D02*
X14227324Y-11773508D01*
X14227324Y-11773508D02*
X14246372Y-11763984D01*
X14398753Y-11944936D02*
X14408277Y-11954460D01*
X14408277Y-11954460D02*
X14398753Y-11963984D01*
X14398753Y-11963984D02*
X14389229Y-11954460D01*
X14389229Y-11954460D02*
X14398753Y-11944936D01*
X14398753Y-11944936D02*
X14398753Y-11963984D01*
X14474943Y-11763984D02*
X14598753Y-11763984D01*
X14598753Y-11763984D02*
X14532086Y-11840174D01*
X14532086Y-11840174D02*
X14560658Y-11840174D01*
X14560658Y-11840174D02*
X14579705Y-11849698D01*
X14579705Y-11849698D02*
X14589229Y-11859222D01*
X14589229Y-11859222D02*
X14598753Y-11878269D01*
X14598753Y-11878269D02*
X14598753Y-11925888D01*
X14598753Y-11925888D02*
X14589229Y-11944936D01*
X14589229Y-11944936D02*
X14579705Y-11954460D01*
X14579705Y-11954460D02*
X14560658Y-11963984D01*
X14560658Y-11963984D02*
X14503515Y-11963984D01*
X14503515Y-11963984D02*
X14484467Y-11954460D01*
X14484467Y-11954460D02*
X14474943Y-11944936D01*
X14722562Y-11763984D02*
X14741610Y-11763984D01*
X14741610Y-11763984D02*
X14760658Y-11773508D01*
X14760658Y-11773508D02*
X14770182Y-11783031D01*
X14770182Y-11783031D02*
X14779705Y-11802079D01*
X14779705Y-11802079D02*
X14789229Y-11840174D01*
X14789229Y-11840174D02*
X14789229Y-11887793D01*
X14789229Y-11887793D02*
X14779705Y-11925888D01*
X14779705Y-11925888D02*
X14770182Y-11944936D01*
X14770182Y-11944936D02*
X14760658Y-11954460D01*
X14760658Y-11954460D02*
X14741610Y-11963984D01*
X14741610Y-11963984D02*
X14722562Y-11963984D01*
X14722562Y-11963984D02*
X14703515Y-11954460D01*
X14703515Y-11954460D02*
X14693991Y-11944936D01*
X14693991Y-11944936D02*
X14684467Y-11925888D01*
X14684467Y-11925888D02*
X14674943Y-11887793D01*
X14674943Y-11887793D02*
X14674943Y-11840174D01*
X14674943Y-11840174D02*
X14684467Y-11802079D01*
X14684467Y-11802079D02*
X14693991Y-11783031D01*
X14693991Y-11783031D02*
X14703515Y-11773508D01*
X14703515Y-11773508D02*
X14722562Y-11763984D01*
X14913039Y-11763984D02*
X14932086Y-11763984D01*
X14932086Y-11763984D02*
X14951134Y-11773508D01*
X14951134Y-11773508D02*
X14960658Y-11783031D01*
X14960658Y-11783031D02*
X14970182Y-11802079D01*
X14970182Y-11802079D02*
X14979705Y-11840174D01*
X14979705Y-11840174D02*
X14979705Y-11887793D01*
X14979705Y-11887793D02*
X14970182Y-11925888D01*
X14970182Y-11925888D02*
X14960658Y-11944936D01*
X14960658Y-11944936D02*
X14951134Y-11954460D01*
X14951134Y-11954460D02*
X14932086Y-11963984D01*
X14932086Y-11963984D02*
X14913039Y-11963984D01*
X14913039Y-11963984D02*
X14893991Y-11954460D01*
X14893991Y-11954460D02*
X14884467Y-11944936D01*
X14884467Y-11944936D02*
X14874943Y-11925888D01*
X14874943Y-11925888D02*
X14865420Y-11887793D01*
X14865420Y-11887793D02*
X14865420Y-11840174D01*
X14865420Y-11840174D02*
X14874943Y-11802079D01*
X14874943Y-11802079D02*
X14884467Y-11783031D01*
X14884467Y-11783031D02*
X14893991Y-11773508D01*
X14893991Y-11773508D02*
X14913039Y-11763984D01*
X15065420Y-11963984D02*
X15065420Y-11830650D01*
X15065420Y-11849698D02*
X15074943Y-11840174D01*
X15074943Y-11840174D02*
X15093991Y-11830650D01*
X15093991Y-11830650D02*
X15122563Y-11830650D01*
X15122563Y-11830650D02*
X15141610Y-11840174D01*
X15141610Y-11840174D02*
X15151134Y-11859222D01*
X15151134Y-11859222D02*
X15151134Y-11963984D01*
X15151134Y-11859222D02*
X15160658Y-11840174D01*
X15160658Y-11840174D02*
X15179705Y-11830650D01*
X15179705Y-11830650D02*
X15208277Y-11830650D01*
X15208277Y-11830650D02*
X15227324Y-11840174D01*
X15227324Y-11840174D02*
X15236848Y-11859222D01*
X15236848Y-11859222D02*
X15236848Y-11963984D01*
X15332086Y-11963984D02*
X15332086Y-11830650D01*
X15332086Y-11849698D02*
X15341610Y-11840174D01*
X15341610Y-11840174D02*
X15360658Y-11830650D01*
X15360658Y-11830650D02*
X15389229Y-11830650D01*
X15389229Y-11830650D02*
X15408277Y-11840174D01*
X15408277Y-11840174D02*
X15417801Y-11859222D01*
X15417801Y-11859222D02*
X15417801Y-11963984D01*
X15417801Y-11859222D02*
X15427324Y-11840174D01*
X15427324Y-11840174D02*
X15446372Y-11830650D01*
X15446372Y-11830650D02*
X15474943Y-11830650D01*
X15474943Y-11830650D02*
X15493991Y-11840174D01*
X15493991Y-11840174D02*
X15503515Y-11859222D01*
X15503515Y-11859222D02*
X15503515Y-11963984D01*
X15893991Y-11754460D02*
X15722563Y-12011603D01*
X16151134Y-11763984D02*
X16170182Y-11763984D01*
X16170182Y-11763984D02*
X16189229Y-11773508D01*
X16189229Y-11773508D02*
X16198753Y-11783031D01*
X16198753Y-11783031D02*
X16208277Y-11802079D01*
X16208277Y-11802079D02*
X16217801Y-11840174D01*
X16217801Y-11840174D02*
X16217801Y-11887793D01*
X16217801Y-11887793D02*
X16208277Y-11925888D01*
X16208277Y-11925888D02*
X16198753Y-11944936D01*
X16198753Y-11944936D02*
X16189229Y-11954460D01*
X16189229Y-11954460D02*
X16170182Y-11963984D01*
X16170182Y-11963984D02*
X16151134Y-11963984D01*
X16151134Y-11963984D02*
X16132086Y-11954460D01*
X16132086Y-11954460D02*
X16122563Y-11944936D01*
X16122563Y-11944936D02*
X16113039Y-11925888D01*
X16113039Y-11925888D02*
X16103515Y-11887793D01*
X16103515Y-11887793D02*
X16103515Y-11840174D01*
X16103515Y-11840174D02*
X16113039Y-11802079D01*
X16113039Y-11802079D02*
X16122563Y-11783031D01*
X16122563Y-11783031D02*
X16132086Y-11773508D01*
X16132086Y-11773508D02*
X16151134Y-11763984D01*
X16303515Y-11944936D02*
X16313039Y-11954460D01*
X16313039Y-11954460D02*
X16303515Y-11963984D01*
X16303515Y-11963984D02*
X16293991Y-11954460D01*
X16293991Y-11954460D02*
X16303515Y-11944936D01*
X16303515Y-11944936D02*
X16303515Y-11963984D01*
X16436848Y-11763984D02*
X16455896Y-11763984D01*
X16455896Y-11763984D02*
X16474944Y-11773508D01*
X16474944Y-11773508D02*
X16484467Y-11783031D01*
X16484467Y-11783031D02*
X16493991Y-11802079D01*
X16493991Y-11802079D02*
X16503515Y-11840174D01*
X16503515Y-11840174D02*
X16503515Y-11887793D01*
X16503515Y-11887793D02*
X16493991Y-11925888D01*
X16493991Y-11925888D02*
X16484467Y-11944936D01*
X16484467Y-11944936D02*
X16474944Y-11954460D01*
X16474944Y-11954460D02*
X16455896Y-11963984D01*
X16455896Y-11963984D02*
X16436848Y-11963984D01*
X16436848Y-11963984D02*
X16417801Y-11954460D01*
X16417801Y-11954460D02*
X16408277Y-11944936D01*
X16408277Y-11944936D02*
X16398753Y-11925888D01*
X16398753Y-11925888D02*
X16389229Y-11887793D01*
X16389229Y-11887793D02*
X16389229Y-11840174D01*
X16389229Y-11840174D02*
X16398753Y-11802079D01*
X16398753Y-11802079D02*
X16408277Y-11783031D01*
X16408277Y-11783031D02*
X16417801Y-11773508D01*
X16417801Y-11773508D02*
X16436848Y-11763984D01*
X16693991Y-11963984D02*
X16579706Y-11963984D01*
X16636848Y-11963984D02*
X16636848Y-11763984D01*
X16636848Y-11763984D02*
X16617801Y-11792555D01*
X16617801Y-11792555D02*
X16598753Y-11811603D01*
X16598753Y-11811603D02*
X16579706Y-11821127D01*
X16884468Y-11963984D02*
X16770182Y-11963984D01*
X16827325Y-11963984D02*
X16827325Y-11763984D01*
X16827325Y-11763984D02*
X16808277Y-11792555D01*
X16808277Y-11792555D02*
X16789229Y-11811603D01*
X16789229Y-11811603D02*
X16770182Y-11821127D01*
X16998753Y-11849698D02*
X16979706Y-11840174D01*
X16979706Y-11840174D02*
X16970182Y-11830650D01*
X16970182Y-11830650D02*
X16960658Y-11811603D01*
X16960658Y-11811603D02*
X16960658Y-11802079D01*
X16960658Y-11802079D02*
X16970182Y-11783031D01*
X16970182Y-11783031D02*
X16979706Y-11773508D01*
X16979706Y-11773508D02*
X16998753Y-11763984D01*
X16998753Y-11763984D02*
X17036849Y-11763984D01*
X17036849Y-11763984D02*
X17055896Y-11773508D01*
X17055896Y-11773508D02*
X17065420Y-11783031D01*
X17065420Y-11783031D02*
X17074944Y-11802079D01*
X17074944Y-11802079D02*
X17074944Y-11811603D01*
X17074944Y-11811603D02*
X17065420Y-11830650D01*
X17065420Y-11830650D02*
X17055896Y-11840174D01*
X17055896Y-11840174D02*
X17036849Y-11849698D01*
X17036849Y-11849698D02*
X16998753Y-11849698D01*
X16998753Y-11849698D02*
X16979706Y-11859222D01*
X16979706Y-11859222D02*
X16970182Y-11868746D01*
X16970182Y-11868746D02*
X16960658Y-11887793D01*
X16960658Y-11887793D02*
X16960658Y-11925888D01*
X16960658Y-11925888D02*
X16970182Y-11944936D01*
X16970182Y-11944936D02*
X16979706Y-11954460D01*
X16979706Y-11954460D02*
X16998753Y-11963984D01*
X16998753Y-11963984D02*
X17036849Y-11963984D01*
X17036849Y-11963984D02*
X17055896Y-11954460D01*
X17055896Y-11954460D02*
X17065420Y-11944936D01*
X17065420Y-11944936D02*
X17074944Y-11925888D01*
X17074944Y-11925888D02*
X17074944Y-11887793D01*
X17074944Y-11887793D02*
X17065420Y-11868746D01*
X17065420Y-11868746D02*
X17055896Y-11859222D01*
X17055896Y-11859222D02*
X17036849Y-11849698D01*
X17151134Y-11763984D02*
X17151134Y-11802079D01*
X17227325Y-11763984D02*
X17227325Y-11802079D01*
X17522563Y-12040174D02*
X17513039Y-12030650D01*
X17513039Y-12030650D02*
X17493991Y-12002079D01*
X17493991Y-12002079D02*
X17484468Y-11983031D01*
X17484468Y-11983031D02*
X17474944Y-11954460D01*
X17474944Y-11954460D02*
X17465420Y-11906841D01*
X17465420Y-11906841D02*
X17465420Y-11868746D01*
X17465420Y-11868746D02*
X17474944Y-11821127D01*
X17474944Y-11821127D02*
X17484468Y-11792555D01*
X17484468Y-11792555D02*
X17493991Y-11773508D01*
X17493991Y-11773508D02*
X17513039Y-11744936D01*
X17513039Y-11744936D02*
X17522563Y-11735412D01*
X17589230Y-11783031D02*
X17598753Y-11773508D01*
X17598753Y-11773508D02*
X17617801Y-11763984D01*
X17617801Y-11763984D02*
X17665420Y-11763984D01*
X17665420Y-11763984D02*
X17684468Y-11773508D01*
X17684468Y-11773508D02*
X17693991Y-11783031D01*
X17693991Y-11783031D02*
X17703515Y-11802079D01*
X17703515Y-11802079D02*
X17703515Y-11821127D01*
X17703515Y-11821127D02*
X17693991Y-11849698D01*
X17693991Y-11849698D02*
X17579706Y-11963984D01*
X17579706Y-11963984D02*
X17703515Y-11963984D01*
X17779706Y-11783031D02*
X17789230Y-11773508D01*
X17789230Y-11773508D02*
X17808277Y-11763984D01*
X17808277Y-11763984D02*
X17855896Y-11763984D01*
X17855896Y-11763984D02*
X17874944Y-11773508D01*
X17874944Y-11773508D02*
X17884468Y-11783031D01*
X17884468Y-11783031D02*
X17893991Y-11802079D01*
X17893991Y-11802079D02*
X17893991Y-11821127D01*
X17893991Y-11821127D02*
X17884468Y-11849698D01*
X17884468Y-11849698D02*
X17770182Y-11963984D01*
X17770182Y-11963984D02*
X17893991Y-11963984D01*
X18132087Y-11963984D02*
X18132087Y-11763984D01*
X18217801Y-11963984D02*
X18217801Y-11859222D01*
X18217801Y-11859222D02*
X18208277Y-11840174D01*
X18208277Y-11840174D02*
X18189230Y-11830650D01*
X18189230Y-11830650D02*
X18160658Y-11830650D01*
X18160658Y-11830650D02*
X18141611Y-11840174D01*
X18141611Y-11840174D02*
X18132087Y-11849698D01*
X18341611Y-11963984D02*
X18322563Y-11954460D01*
X18322563Y-11954460D02*
X18313039Y-11944936D01*
X18313039Y-11944936D02*
X18303515Y-11925888D01*
X18303515Y-11925888D02*
X18303515Y-11868746D01*
X18303515Y-11868746D02*
X18313039Y-11849698D01*
X18313039Y-11849698D02*
X18322563Y-11840174D01*
X18322563Y-11840174D02*
X18341611Y-11830650D01*
X18341611Y-11830650D02*
X18370182Y-11830650D01*
X18370182Y-11830650D02*
X18389230Y-11840174D01*
X18389230Y-11840174D02*
X18398753Y-11849698D01*
X18398753Y-11849698D02*
X18408277Y-11868746D01*
X18408277Y-11868746D02*
X18408277Y-11925888D01*
X18408277Y-11925888D02*
X18398753Y-11944936D01*
X18398753Y-11944936D02*
X18389230Y-11954460D01*
X18389230Y-11954460D02*
X18370182Y-11963984D01*
X18370182Y-11963984D02*
X18341611Y-11963984D01*
X18522563Y-11963984D02*
X18503515Y-11954460D01*
X18503515Y-11954460D02*
X18493992Y-11935412D01*
X18493992Y-11935412D02*
X18493992Y-11763984D01*
X18674944Y-11954460D02*
X18655896Y-11963984D01*
X18655896Y-11963984D02*
X18617801Y-11963984D01*
X18617801Y-11963984D02*
X18598753Y-11954460D01*
X18598753Y-11954460D02*
X18589230Y-11935412D01*
X18589230Y-11935412D02*
X18589230Y-11859222D01*
X18589230Y-11859222D02*
X18598753Y-11840174D01*
X18598753Y-11840174D02*
X18617801Y-11830650D01*
X18617801Y-11830650D02*
X18655896Y-11830650D01*
X18655896Y-11830650D02*
X18674944Y-11840174D01*
X18674944Y-11840174D02*
X18684468Y-11859222D01*
X18684468Y-11859222D02*
X18684468Y-11878269D01*
X18684468Y-11878269D02*
X18589230Y-11897317D01*
X18760658Y-11954460D02*
X18779706Y-11963984D01*
X18779706Y-11963984D02*
X18817801Y-11963984D01*
X18817801Y-11963984D02*
X18836849Y-11954460D01*
X18836849Y-11954460D02*
X18846373Y-11935412D01*
X18846373Y-11935412D02*
X18846373Y-11925888D01*
X18846373Y-11925888D02*
X18836849Y-11906841D01*
X18836849Y-11906841D02*
X18817801Y-11897317D01*
X18817801Y-11897317D02*
X18789230Y-11897317D01*
X18789230Y-11897317D02*
X18770182Y-11887793D01*
X18770182Y-11887793D02*
X18760658Y-11868746D01*
X18760658Y-11868746D02*
X18760658Y-11859222D01*
X18760658Y-11859222D02*
X18770182Y-11840174D01*
X18770182Y-11840174D02*
X18789230Y-11830650D01*
X18789230Y-11830650D02*
X18817801Y-11830650D01*
X18817801Y-11830650D02*
X18836849Y-11840174D01*
X18913039Y-12040174D02*
X18922563Y-12030650D01*
X18922563Y-12030650D02*
X18941611Y-12002079D01*
X18941611Y-12002079D02*
X18951134Y-11983031D01*
X18951134Y-11983031D02*
X18960658Y-11954460D01*
X18960658Y-11954460D02*
X18970182Y-11906841D01*
X18970182Y-11906841D02*
X18970182Y-11868746D01*
X18970182Y-11868746D02*
X18960658Y-11821127D01*
X18960658Y-11821127D02*
X18951134Y-11792555D01*
X18951134Y-11792555D02*
X18941611Y-11773508D01*
X18941611Y-11773508D02*
X18922563Y-11744936D01*
X18922563Y-11744936D02*
X18913039Y-11735412D01*
D12*
X13947500Y-12136500D02*
G75*
G02*
X13882500Y-12136500I-32500J0D01*
G01*
X13882500Y-12136500D02*
G75*
G02*
X13947500Y-12136500I32500J0D01*
G01*
D11*
X14246372Y-12027984D02*
X14265420Y-12027984D01*
X14265420Y-12027984D02*
X14284467Y-12037508D01*
X14284467Y-12037508D02*
X14293991Y-12047031D01*
X14293991Y-12047031D02*
X14303515Y-12066079D01*
X14303515Y-12066079D02*
X14313039Y-12104174D01*
X14313039Y-12104174D02*
X14313039Y-12151793D01*
X14313039Y-12151793D02*
X14303515Y-12189888D01*
X14303515Y-12189888D02*
X14293991Y-12208936D01*
X14293991Y-12208936D02*
X14284467Y-12218460D01*
X14284467Y-12218460D02*
X14265420Y-12227984D01*
X14265420Y-12227984D02*
X14246372Y-12227984D01*
X14246372Y-12227984D02*
X14227324Y-12218460D01*
X14227324Y-12218460D02*
X14217801Y-12208936D01*
X14217801Y-12208936D02*
X14208277Y-12189888D01*
X14208277Y-12189888D02*
X14198753Y-12151793D01*
X14198753Y-12151793D02*
X14198753Y-12104174D01*
X14198753Y-12104174D02*
X14208277Y-12066079D01*
X14208277Y-12066079D02*
X14217801Y-12047031D01*
X14217801Y-12047031D02*
X14227324Y-12037508D01*
X14227324Y-12037508D02*
X14246372Y-12027984D01*
X14398753Y-12208936D02*
X14408277Y-12218460D01*
X14408277Y-12218460D02*
X14398753Y-12227984D01*
X14398753Y-12227984D02*
X14389229Y-12218460D01*
X14389229Y-12218460D02*
X14398753Y-12208936D01*
X14398753Y-12208936D02*
X14398753Y-12227984D01*
X14579705Y-12027984D02*
X14541610Y-12027984D01*
X14541610Y-12027984D02*
X14522562Y-12037508D01*
X14522562Y-12037508D02*
X14513039Y-12047031D01*
X14513039Y-12047031D02*
X14493991Y-12075603D01*
X14493991Y-12075603D02*
X14484467Y-12113698D01*
X14484467Y-12113698D02*
X14484467Y-12189888D01*
X14484467Y-12189888D02*
X14493991Y-12208936D01*
X14493991Y-12208936D02*
X14503515Y-12218460D01*
X14503515Y-12218460D02*
X14522562Y-12227984D01*
X14522562Y-12227984D02*
X14560658Y-12227984D01*
X14560658Y-12227984D02*
X14579705Y-12218460D01*
X14579705Y-12218460D02*
X14589229Y-12208936D01*
X14589229Y-12208936D02*
X14598753Y-12189888D01*
X14598753Y-12189888D02*
X14598753Y-12142269D01*
X14598753Y-12142269D02*
X14589229Y-12123222D01*
X14589229Y-12123222D02*
X14579705Y-12113698D01*
X14579705Y-12113698D02*
X14560658Y-12104174D01*
X14560658Y-12104174D02*
X14522562Y-12104174D01*
X14522562Y-12104174D02*
X14503515Y-12113698D01*
X14503515Y-12113698D02*
X14493991Y-12123222D01*
X14493991Y-12123222D02*
X14484467Y-12142269D01*
X14779705Y-12027984D02*
X14684467Y-12027984D01*
X14684467Y-12027984D02*
X14674943Y-12123222D01*
X14674943Y-12123222D02*
X14684467Y-12113698D01*
X14684467Y-12113698D02*
X14703515Y-12104174D01*
X14703515Y-12104174D02*
X14751134Y-12104174D01*
X14751134Y-12104174D02*
X14770182Y-12113698D01*
X14770182Y-12113698D02*
X14779705Y-12123222D01*
X14779705Y-12123222D02*
X14789229Y-12142269D01*
X14789229Y-12142269D02*
X14789229Y-12189888D01*
X14789229Y-12189888D02*
X14779705Y-12208936D01*
X14779705Y-12208936D02*
X14770182Y-12218460D01*
X14770182Y-12218460D02*
X14751134Y-12227984D01*
X14751134Y-12227984D02*
X14703515Y-12227984D01*
X14703515Y-12227984D02*
X14684467Y-12218460D01*
X14684467Y-12218460D02*
X14674943Y-12208936D01*
X14913039Y-12027984D02*
X14932086Y-12027984D01*
X14932086Y-12027984D02*
X14951134Y-12037508D01*
X14951134Y-12037508D02*
X14960658Y-12047031D01*
X14960658Y-12047031D02*
X14970182Y-12066079D01*
X14970182Y-12066079D02*
X14979705Y-12104174D01*
X14979705Y-12104174D02*
X14979705Y-12151793D01*
X14979705Y-12151793D02*
X14970182Y-12189888D01*
X14970182Y-12189888D02*
X14960658Y-12208936D01*
X14960658Y-12208936D02*
X14951134Y-12218460D01*
X14951134Y-12218460D02*
X14932086Y-12227984D01*
X14932086Y-12227984D02*
X14913039Y-12227984D01*
X14913039Y-12227984D02*
X14893991Y-12218460D01*
X14893991Y-12218460D02*
X14884467Y-12208936D01*
X14884467Y-12208936D02*
X14874943Y-12189888D01*
X14874943Y-12189888D02*
X14865420Y-12151793D01*
X14865420Y-12151793D02*
X14865420Y-12104174D01*
X14865420Y-12104174D02*
X14874943Y-12066079D01*
X14874943Y-12066079D02*
X14884467Y-12047031D01*
X14884467Y-12047031D02*
X14893991Y-12037508D01*
X14893991Y-12037508D02*
X14913039Y-12027984D01*
X15065420Y-12227984D02*
X15065420Y-12094650D01*
X15065420Y-12113698D02*
X15074943Y-12104174D01*
X15074943Y-12104174D02*
X15093991Y-12094650D01*
X15093991Y-12094650D02*
X15122563Y-12094650D01*
X15122563Y-12094650D02*
X15141610Y-12104174D01*
X15141610Y-12104174D02*
X15151134Y-12123222D01*
X15151134Y-12123222D02*
X15151134Y-12227984D01*
X15151134Y-12123222D02*
X15160658Y-12104174D01*
X15160658Y-12104174D02*
X15179705Y-12094650D01*
X15179705Y-12094650D02*
X15208277Y-12094650D01*
X15208277Y-12094650D02*
X15227324Y-12104174D01*
X15227324Y-12104174D02*
X15236848Y-12123222D01*
X15236848Y-12123222D02*
X15236848Y-12227984D01*
X15332086Y-12227984D02*
X15332086Y-12094650D01*
X15332086Y-12113698D02*
X15341610Y-12104174D01*
X15341610Y-12104174D02*
X15360658Y-12094650D01*
X15360658Y-12094650D02*
X15389229Y-12094650D01*
X15389229Y-12094650D02*
X15408277Y-12104174D01*
X15408277Y-12104174D02*
X15417801Y-12123222D01*
X15417801Y-12123222D02*
X15417801Y-12227984D01*
X15417801Y-12123222D02*
X15427324Y-12104174D01*
X15427324Y-12104174D02*
X15446372Y-12094650D01*
X15446372Y-12094650D02*
X15474943Y-12094650D01*
X15474943Y-12094650D02*
X15493991Y-12104174D01*
X15493991Y-12104174D02*
X15503515Y-12123222D01*
X15503515Y-12123222D02*
X15503515Y-12227984D01*
X15893991Y-12018460D02*
X15722563Y-12275603D01*
X16151134Y-12027984D02*
X16170182Y-12027984D01*
X16170182Y-12027984D02*
X16189229Y-12037508D01*
X16189229Y-12037508D02*
X16198753Y-12047031D01*
X16198753Y-12047031D02*
X16208277Y-12066079D01*
X16208277Y-12066079D02*
X16217801Y-12104174D01*
X16217801Y-12104174D02*
X16217801Y-12151793D01*
X16217801Y-12151793D02*
X16208277Y-12189888D01*
X16208277Y-12189888D02*
X16198753Y-12208936D01*
X16198753Y-12208936D02*
X16189229Y-12218460D01*
X16189229Y-12218460D02*
X16170182Y-12227984D01*
X16170182Y-12227984D02*
X16151134Y-12227984D01*
X16151134Y-12227984D02*
X16132086Y-12218460D01*
X16132086Y-12218460D02*
X16122563Y-12208936D01*
X16122563Y-12208936D02*
X16113039Y-12189888D01*
X16113039Y-12189888D02*
X16103515Y-12151793D01*
X16103515Y-12151793D02*
X16103515Y-12104174D01*
X16103515Y-12104174D02*
X16113039Y-12066079D01*
X16113039Y-12066079D02*
X16122563Y-12047031D01*
X16122563Y-12047031D02*
X16132086Y-12037508D01*
X16132086Y-12037508D02*
X16151134Y-12027984D01*
X16303515Y-12208936D02*
X16313039Y-12218460D01*
X16313039Y-12218460D02*
X16303515Y-12227984D01*
X16303515Y-12227984D02*
X16293991Y-12218460D01*
X16293991Y-12218460D02*
X16303515Y-12208936D01*
X16303515Y-12208936D02*
X16303515Y-12227984D01*
X16436848Y-12027984D02*
X16455896Y-12027984D01*
X16455896Y-12027984D02*
X16474944Y-12037508D01*
X16474944Y-12037508D02*
X16484467Y-12047031D01*
X16484467Y-12047031D02*
X16493991Y-12066079D01*
X16493991Y-12066079D02*
X16503515Y-12104174D01*
X16503515Y-12104174D02*
X16503515Y-12151793D01*
X16503515Y-12151793D02*
X16493991Y-12189888D01*
X16493991Y-12189888D02*
X16484467Y-12208936D01*
X16484467Y-12208936D02*
X16474944Y-12218460D01*
X16474944Y-12218460D02*
X16455896Y-12227984D01*
X16455896Y-12227984D02*
X16436848Y-12227984D01*
X16436848Y-12227984D02*
X16417801Y-12218460D01*
X16417801Y-12218460D02*
X16408277Y-12208936D01*
X16408277Y-12208936D02*
X16398753Y-12189888D01*
X16398753Y-12189888D02*
X16389229Y-12151793D01*
X16389229Y-12151793D02*
X16389229Y-12104174D01*
X16389229Y-12104174D02*
X16398753Y-12066079D01*
X16398753Y-12066079D02*
X16408277Y-12047031D01*
X16408277Y-12047031D02*
X16417801Y-12037508D01*
X16417801Y-12037508D02*
X16436848Y-12027984D01*
X16579706Y-12047031D02*
X16589229Y-12037508D01*
X16589229Y-12037508D02*
X16608277Y-12027984D01*
X16608277Y-12027984D02*
X16655896Y-12027984D01*
X16655896Y-12027984D02*
X16674944Y-12037508D01*
X16674944Y-12037508D02*
X16684467Y-12047031D01*
X16684467Y-12047031D02*
X16693991Y-12066079D01*
X16693991Y-12066079D02*
X16693991Y-12085127D01*
X16693991Y-12085127D02*
X16684467Y-12113698D01*
X16684467Y-12113698D02*
X16570182Y-12227984D01*
X16570182Y-12227984D02*
X16693991Y-12227984D01*
X16874944Y-12027984D02*
X16779706Y-12027984D01*
X16779706Y-12027984D02*
X16770182Y-12123222D01*
X16770182Y-12123222D02*
X16779706Y-12113698D01*
X16779706Y-12113698D02*
X16798753Y-12104174D01*
X16798753Y-12104174D02*
X16846372Y-12104174D01*
X16846372Y-12104174D02*
X16865420Y-12113698D01*
X16865420Y-12113698D02*
X16874944Y-12123222D01*
X16874944Y-12123222D02*
X16884468Y-12142269D01*
X16884468Y-12142269D02*
X16884468Y-12189888D01*
X16884468Y-12189888D02*
X16874944Y-12208936D01*
X16874944Y-12208936D02*
X16865420Y-12218460D01*
X16865420Y-12218460D02*
X16846372Y-12227984D01*
X16846372Y-12227984D02*
X16798753Y-12227984D01*
X16798753Y-12227984D02*
X16779706Y-12218460D01*
X16779706Y-12218460D02*
X16770182Y-12208936D01*
X17055896Y-12027984D02*
X17017801Y-12027984D01*
X17017801Y-12027984D02*
X16998753Y-12037508D01*
X16998753Y-12037508D02*
X16989229Y-12047031D01*
X16989229Y-12047031D02*
X16970182Y-12075603D01*
X16970182Y-12075603D02*
X16960658Y-12113698D01*
X16960658Y-12113698D02*
X16960658Y-12189888D01*
X16960658Y-12189888D02*
X16970182Y-12208936D01*
X16970182Y-12208936D02*
X16979706Y-12218460D01*
X16979706Y-12218460D02*
X16998753Y-12227984D01*
X16998753Y-12227984D02*
X17036849Y-12227984D01*
X17036849Y-12227984D02*
X17055896Y-12218460D01*
X17055896Y-12218460D02*
X17065420Y-12208936D01*
X17065420Y-12208936D02*
X17074944Y-12189888D01*
X17074944Y-12189888D02*
X17074944Y-12142269D01*
X17074944Y-12142269D02*
X17065420Y-12123222D01*
X17065420Y-12123222D02*
X17055896Y-12113698D01*
X17055896Y-12113698D02*
X17036849Y-12104174D01*
X17036849Y-12104174D02*
X16998753Y-12104174D01*
X16998753Y-12104174D02*
X16979706Y-12113698D01*
X16979706Y-12113698D02*
X16970182Y-12123222D01*
X16970182Y-12123222D02*
X16960658Y-12142269D01*
X17151134Y-12027984D02*
X17151134Y-12066079D01*
X17227325Y-12027984D02*
X17227325Y-12066079D01*
X17522563Y-12304174D02*
X17513039Y-12294650D01*
X17513039Y-12294650D02*
X17493991Y-12266079D01*
X17493991Y-12266079D02*
X17484468Y-12247031D01*
X17484468Y-12247031D02*
X17474944Y-12218460D01*
X17474944Y-12218460D02*
X17465420Y-12170841D01*
X17465420Y-12170841D02*
X17465420Y-12132746D01*
X17465420Y-12132746D02*
X17474944Y-12085127D01*
X17474944Y-12085127D02*
X17484468Y-12056555D01*
X17484468Y-12056555D02*
X17493991Y-12037508D01*
X17493991Y-12037508D02*
X17513039Y-12008936D01*
X17513039Y-12008936D02*
X17522563Y-11999412D01*
X17608277Y-12227984D02*
X17646372Y-12227984D01*
X17646372Y-12227984D02*
X17665420Y-12218460D01*
X17665420Y-12218460D02*
X17674944Y-12208936D01*
X17674944Y-12208936D02*
X17693991Y-12180365D01*
X17693991Y-12180365D02*
X17703515Y-12142269D01*
X17703515Y-12142269D02*
X17703515Y-12066079D01*
X17703515Y-12066079D02*
X17693991Y-12047031D01*
X17693991Y-12047031D02*
X17684468Y-12037508D01*
X17684468Y-12037508D02*
X17665420Y-12027984D01*
X17665420Y-12027984D02*
X17627325Y-12027984D01*
X17627325Y-12027984D02*
X17608277Y-12037508D01*
X17608277Y-12037508D02*
X17598753Y-12047031D01*
X17598753Y-12047031D02*
X17589230Y-12066079D01*
X17589230Y-12066079D02*
X17589230Y-12113698D01*
X17589230Y-12113698D02*
X17598753Y-12132746D01*
X17598753Y-12132746D02*
X17608277Y-12142269D01*
X17608277Y-12142269D02*
X17627325Y-12151793D01*
X17627325Y-12151793D02*
X17665420Y-12151793D01*
X17665420Y-12151793D02*
X17684468Y-12142269D01*
X17684468Y-12142269D02*
X17693991Y-12132746D01*
X17693991Y-12132746D02*
X17703515Y-12113698D01*
X17941611Y-12227984D02*
X17941611Y-12027984D01*
X18027325Y-12227984D02*
X18027325Y-12123222D01*
X18027325Y-12123222D02*
X18017801Y-12104174D01*
X18017801Y-12104174D02*
X17998753Y-12094650D01*
X17998753Y-12094650D02*
X17970182Y-12094650D01*
X17970182Y-12094650D02*
X17951134Y-12104174D01*
X17951134Y-12104174D02*
X17941611Y-12113698D01*
X18151134Y-12227984D02*
X18132087Y-12218460D01*
X18132087Y-12218460D02*
X18122563Y-12208936D01*
X18122563Y-12208936D02*
X18113039Y-12189888D01*
X18113039Y-12189888D02*
X18113039Y-12132746D01*
X18113039Y-12132746D02*
X18122563Y-12113698D01*
X18122563Y-12113698D02*
X18132087Y-12104174D01*
X18132087Y-12104174D02*
X18151134Y-12094650D01*
X18151134Y-12094650D02*
X18179706Y-12094650D01*
X18179706Y-12094650D02*
X18198753Y-12104174D01*
X18198753Y-12104174D02*
X18208277Y-12113698D01*
X18208277Y-12113698D02*
X18217801Y-12132746D01*
X18217801Y-12132746D02*
X18217801Y-12189888D01*
X18217801Y-12189888D02*
X18208277Y-12208936D01*
X18208277Y-12208936D02*
X18198753Y-12218460D01*
X18198753Y-12218460D02*
X18179706Y-12227984D01*
X18179706Y-12227984D02*
X18151134Y-12227984D01*
X18332087Y-12227984D02*
X18313039Y-12218460D01*
X18313039Y-12218460D02*
X18303515Y-12199412D01*
X18303515Y-12199412D02*
X18303515Y-12027984D01*
X18484468Y-12218460D02*
X18465420Y-12227984D01*
X18465420Y-12227984D02*
X18427325Y-12227984D01*
X18427325Y-12227984D02*
X18408277Y-12218460D01*
X18408277Y-12218460D02*
X18398753Y-12199412D01*
X18398753Y-12199412D02*
X18398753Y-12123222D01*
X18398753Y-12123222D02*
X18408277Y-12104174D01*
X18408277Y-12104174D02*
X18427325Y-12094650D01*
X18427325Y-12094650D02*
X18465420Y-12094650D01*
X18465420Y-12094650D02*
X18484468Y-12104174D01*
X18484468Y-12104174D02*
X18493992Y-12123222D01*
X18493992Y-12123222D02*
X18493992Y-12142269D01*
X18493992Y-12142269D02*
X18398753Y-12161317D01*
X18570182Y-12218460D02*
X18589230Y-12227984D01*
X18589230Y-12227984D02*
X18627325Y-12227984D01*
X18627325Y-12227984D02*
X18646373Y-12218460D01*
X18646373Y-12218460D02*
X18655896Y-12199412D01*
X18655896Y-12199412D02*
X18655896Y-12189888D01*
X18655896Y-12189888D02*
X18646373Y-12170841D01*
X18646373Y-12170841D02*
X18627325Y-12161317D01*
X18627325Y-12161317D02*
X18598753Y-12161317D01*
X18598753Y-12161317D02*
X18579706Y-12151793D01*
X18579706Y-12151793D02*
X18570182Y-12132746D01*
X18570182Y-12132746D02*
X18570182Y-12123222D01*
X18570182Y-12123222D02*
X18579706Y-12104174D01*
X18579706Y-12104174D02*
X18598753Y-12094650D01*
X18598753Y-12094650D02*
X18627325Y-12094650D01*
X18627325Y-12094650D02*
X18646373Y-12104174D01*
X18722563Y-12304174D02*
X18732087Y-12294650D01*
X18732087Y-12294650D02*
X18751134Y-12266079D01*
X18751134Y-12266079D02*
X18760658Y-12247031D01*
X18760658Y-12247031D02*
X18770182Y-12218460D01*
X18770182Y-12218460D02*
X18779706Y-12170841D01*
X18779706Y-12170841D02*
X18779706Y-12132746D01*
X18779706Y-12132746D02*
X18770182Y-12085127D01*
X18770182Y-12085127D02*
X18760658Y-12056555D01*
X18760658Y-12056555D02*
X18751134Y-12037508D01*
X18751134Y-12037508D02*
X18732087Y-12008936D01*
X18732087Y-12008936D02*
X18722563Y-11999412D01*
M02*
