M48
; DRILL file {KiCad 8.0.7-8.0.7-0~ubuntu24.04.1} date 2024-12-30T14:28:34-0700
; FORMAT={-:-/ absolute / metric / decimal}
; #@! TF.CreationDate,2024-12-30T14:28:34-07:00
; #@! TF.GenerationSoftware,Kicad,Pcbnew,8.0.7-8.0.7-0~ubuntu24.04.1
; #@! TF.FileFunction,Plated,1,2,PTH
FMAT,2
METRIC
; #@! TA.AperFunction,Plated,PTH,ViaDrill
T1C0.300
; #@! TA.AperFunction,Plated,PTH,ComponentDrill
T2C0.650
%
G90
G05
T1
X140.1Y-97.9
X140.1Y-102.44
X140.3Y-110.4
X140.7Y-93.7
X140.718Y-103.306
X141.9Y-105.9
X143.296Y-109.715
X143.6Y-104.5
X144.6Y-93.1
X145.1Y-102.9
X145.196Y-109.715
X145.3Y-105.9
X145.6Y-93.1
X146.2Y-109.715
X146.3Y-105.9
X147.058Y-108.166
X148.0Y-98.6
X148.2Y-105.0
X148.315Y-104.249
X148.6Y-93.9
X148.7Y-109.3
X148.8Y-102.5
T2
X141.95Y-100.6
X142.29Y-97.8
X143.22Y-100.6
X143.56Y-97.8
X144.49Y-100.6
X144.83Y-97.8
X145.76Y-100.6
X146.1Y-97.8
X147.03Y-100.6
M30
