G04 #@! TF.GenerationSoftware,KiCad,Pcbnew,8.0.7-8.0.7-0~ubuntu24.04.1*
G04 #@! TF.CreationDate,2024-12-30T14:28:34-07:00*
G04 #@! TF.ProjectId,2 connector Sensor Board,3220636f-6e6e-4656-9374-6f722053656e,V1*
G04 #@! TF.SameCoordinates,Original*
G04 #@! TF.FileFunction,Legend,Top*
G04 #@! TF.FilePolarity,Positive*
%FSLAX46Y46*%
G04 Gerber Fmt 4.6, Leading zero omitted, Abs format (unit mm)*
G04 Created by KiCad (PCBNEW 8.0.7-8.0.7-0~ubuntu24.04.1) date 2024-12-30 14:28:34*
%MOMM*%
%LPD*%
G01*
G04 APERTURE LIST*
G04 Aperture macros list*
%AMRoundRect*
0 Rectangle with rounded corners*
0 $1 Rounding radius*
0 $2 $3 $4 $5 $6 $7 $8 $9 X,Y pos of 4 corners*
0 Add a 4 corners polygon primitive as box body*
4,1,4,$2,$3,$4,$5,$6,$7,$8,$9,$2,$3,0*
0 Add four circle primitives for the rounded corners*
1,1,$1+$1,$2,$3*
1,1,$1+$1,$4,$5*
1,1,$1+$1,$6,$7*
1,1,$1+$1,$8,$9*
0 Add four rect primitives between the rounded corners*
20,1,$1+$1,$2,$3,$4,$5,0*
20,1,$1+$1,$4,$5,$6,$7,0*
20,1,$1+$1,$6,$7,$8,$9,0*
20,1,$1+$1,$8,$9,$2,$3,0*%
G04 Aperture macros list end*
%ADD10C,0.150000*%
%ADD11C,0.120000*%
%ADD12RoundRect,0.050000X0.500000X-0.500000X0.500000X0.500000X-0.500000X0.500000X-0.500000X-0.500000X0*%
%ADD13O,1.100000X1.100000*%
%ADD14RoundRect,0.175000X-0.175000X-0.650000X0.175000X-0.650000X0.175000X0.650000X-0.175000X0.650000X0*%
%ADD15RoundRect,0.270833X-0.379167X-0.679167X0.379167X-0.679167X0.379167X0.679167X-0.379167X0.679167X0*%
%ADD16C,1.100000*%
%ADD17RoundRect,0.160000X-0.210000X0.160000X-0.210000X-0.160000X0.210000X-0.160000X0.210000X0.160000X0*%
%ADD18RoundRect,0.050000X-0.500000X0.500000X-0.500000X-0.500000X0.500000X-0.500000X0.500000X0.500000X0*%
%ADD19RoundRect,0.050000X0.220000X-0.115000X0.220000X0.115000X-0.220000X0.115000X-0.220000X-0.115000X0*%
%ADD20RoundRect,0.050000X0.170000X-0.115000X0.170000X0.115000X-0.170000X0.115000X-0.170000X-0.115000X0*%
%ADD21RoundRect,0.050000X-0.220000X0.115000X-0.220000X-0.115000X0.220000X-0.115000X0.220000X0.115000X0*%
%ADD22RoundRect,0.050000X-0.170000X0.115000X-0.170000X-0.115000X0.170000X-0.115000X0.170000X0.115000X0*%
G04 APERTURE END LIST*
D10*
X141540124Y-94636779D02*
X142540124Y-94636779D01*
X142540124Y-95303445D02*
X142540124Y-95493921D01*
X142540124Y-95493921D02*
X142492505Y-95589159D01*
X142492505Y-95589159D02*
X142397267Y-95684397D01*
X142397267Y-95684397D02*
X142206791Y-95732016D01*
X142206791Y-95732016D02*
X141873458Y-95732016D01*
X141873458Y-95732016D02*
X141682982Y-95684397D01*
X141682982Y-95684397D02*
X141587744Y-95589159D01*
X141587744Y-95589159D02*
X141540124Y-95493921D01*
X141540124Y-95493921D02*
X141540124Y-95303445D01*
X141540124Y-95303445D02*
X141587744Y-95208207D01*
X141587744Y-95208207D02*
X141682982Y-95112969D01*
X141682982Y-95112969D02*
X141873458Y-95065350D01*
X141873458Y-95065350D02*
X142206791Y-95065350D01*
X142206791Y-95065350D02*
X142397267Y-95112969D01*
X142397267Y-95112969D02*
X142492505Y-95208207D01*
X142492505Y-95208207D02*
X142540124Y-95303445D01*
X141540124Y-96684397D02*
X141540124Y-96112969D01*
X141540124Y-96398683D02*
X142540124Y-96398683D01*
X142540124Y-96398683D02*
X142397267Y-96303445D01*
X142397267Y-96303445D02*
X142302029Y-96208207D01*
X142302029Y-96208207D02*
X142254410Y-96112969D01*
X139930180Y-94636779D02*
X140930180Y-94636779D01*
X140930180Y-95303445D02*
X140930180Y-95493921D01*
X140930180Y-95493921D02*
X140882561Y-95589159D01*
X140882561Y-95589159D02*
X140787323Y-95684397D01*
X140787323Y-95684397D02*
X140596847Y-95732016D01*
X140596847Y-95732016D02*
X140263514Y-95732016D01*
X140263514Y-95732016D02*
X140073038Y-95684397D01*
X140073038Y-95684397D02*
X139977800Y-95589159D01*
X139977800Y-95589159D02*
X139930180Y-95493921D01*
X139930180Y-95493921D02*
X139930180Y-95303445D01*
X139930180Y-95303445D02*
X139977800Y-95208207D01*
X139977800Y-95208207D02*
X140073038Y-95112969D01*
X140073038Y-95112969D02*
X140263514Y-95065350D01*
X140263514Y-95065350D02*
X140596847Y-95065350D01*
X140596847Y-95065350D02*
X140787323Y-95112969D01*
X140787323Y-95112969D02*
X140882561Y-95208207D01*
X140882561Y-95208207D02*
X140930180Y-95303445D01*
X140834942Y-96112969D02*
X140882561Y-96160588D01*
X140882561Y-96160588D02*
X140930180Y-96255826D01*
X140930180Y-96255826D02*
X140930180Y-96493921D01*
X140930180Y-96493921D02*
X140882561Y-96589159D01*
X140882561Y-96589159D02*
X140834942Y-96636778D01*
X140834942Y-96636778D02*
X140739704Y-96684397D01*
X140739704Y-96684397D02*
X140644466Y-96684397D01*
X140644466Y-96684397D02*
X140501609Y-96636778D01*
X140501609Y-96636778D02*
X139930180Y-96065350D01*
X139930180Y-96065350D02*
X139930180Y-96684397D01*
X140665350Y-105469819D02*
X140474874Y-105469819D01*
X140474874Y-105469819D02*
X140379636Y-105517438D01*
X140379636Y-105517438D02*
X140332017Y-105565057D01*
X140332017Y-105565057D02*
X140236779Y-105707914D01*
X140236779Y-105707914D02*
X140189160Y-105898390D01*
X140189160Y-105898390D02*
X140189160Y-106279342D01*
X140189160Y-106279342D02*
X140236779Y-106374580D01*
X140236779Y-106374580D02*
X140284398Y-106422200D01*
X140284398Y-106422200D02*
X140379636Y-106469819D01*
X140379636Y-106469819D02*
X140570112Y-106469819D01*
X140570112Y-106469819D02*
X140665350Y-106422200D01*
X140665350Y-106422200D02*
X140712969Y-106374580D01*
X140712969Y-106374580D02*
X140760588Y-106279342D01*
X140760588Y-106279342D02*
X140760588Y-106041247D01*
X140760588Y-106041247D02*
X140712969Y-105946009D01*
X140712969Y-105946009D02*
X140665350Y-105898390D01*
X140665350Y-105898390D02*
X140570112Y-105850771D01*
X140570112Y-105850771D02*
X140379636Y-105850771D01*
X140379636Y-105850771D02*
X140284398Y-105898390D01*
X140284398Y-105898390D02*
X140236779Y-105946009D01*
X140236779Y-105946009D02*
X140189160Y-106041247D01*
X143603445Y-106165057D02*
X143508207Y-106117438D01*
X143508207Y-106117438D02*
X143412969Y-106022200D01*
X143412969Y-106022200D02*
X143270112Y-105879342D01*
X143270112Y-105879342D02*
X143174874Y-105831723D01*
X143174874Y-105831723D02*
X143079636Y-105831723D01*
X143127255Y-106069819D02*
X143032017Y-106022200D01*
X143032017Y-106022200D02*
X142936779Y-105926961D01*
X142936779Y-105926961D02*
X142889160Y-105736485D01*
X142889160Y-105736485D02*
X142889160Y-105403152D01*
X142889160Y-105403152D02*
X142936779Y-105212676D01*
X142936779Y-105212676D02*
X143032017Y-105117438D01*
X143032017Y-105117438D02*
X143127255Y-105069819D01*
X143127255Y-105069819D02*
X143317731Y-105069819D01*
X143317731Y-105069819D02*
X143412969Y-105117438D01*
X143412969Y-105117438D02*
X143508207Y-105212676D01*
X143508207Y-105212676D02*
X143555826Y-105403152D01*
X143555826Y-105403152D02*
X143555826Y-105736485D01*
X143555826Y-105736485D02*
X143508207Y-105926961D01*
X143508207Y-105926961D02*
X143412969Y-106022200D01*
X143412969Y-106022200D02*
X143317731Y-106069819D01*
X143317731Y-106069819D02*
X143127255Y-106069819D01*
X143889160Y-105403152D02*
X144079636Y-106069819D01*
X144079636Y-106069819D02*
X144270112Y-105593628D01*
X144270112Y-105593628D02*
X144460588Y-106069819D01*
X144460588Y-106069819D02*
X144651064Y-105403152D01*
X145032017Y-106069819D02*
X145032017Y-105403152D01*
X145032017Y-105069819D02*
X144984398Y-105117438D01*
X144984398Y-105117438D02*
X145032017Y-105165057D01*
X145032017Y-105165057D02*
X145079636Y-105117438D01*
X145079636Y-105117438D02*
X145032017Y-105069819D01*
X145032017Y-105069819D02*
X145032017Y-105165057D01*
X145508207Y-106069819D02*
X145508207Y-105403152D01*
X145508207Y-105069819D02*
X145460588Y-105117438D01*
X145460588Y-105117438D02*
X145508207Y-105165057D01*
X145508207Y-105165057D02*
X145555826Y-105117438D01*
X145555826Y-105117438D02*
X145508207Y-105069819D01*
X145508207Y-105069819D02*
X145508207Y-105165057D01*
X146412968Y-106022200D02*
X146317730Y-106069819D01*
X146317730Y-106069819D02*
X146127254Y-106069819D01*
X146127254Y-106069819D02*
X146032016Y-106022200D01*
X146032016Y-106022200D02*
X145984397Y-105974580D01*
X145984397Y-105974580D02*
X145936778Y-105879342D01*
X145936778Y-105879342D02*
X145936778Y-105593628D01*
X145936778Y-105593628D02*
X145984397Y-105498390D01*
X145984397Y-105498390D02*
X146032016Y-105450771D01*
X146032016Y-105450771D02*
X146127254Y-105403152D01*
X146127254Y-105403152D02*
X146317730Y-105403152D01*
X146317730Y-105403152D02*
X146412968Y-105450771D01*
X143589160Y-102922200D02*
X143732017Y-102969819D01*
X143732017Y-102969819D02*
X143970112Y-102969819D01*
X143970112Y-102969819D02*
X144065350Y-102922200D01*
X144065350Y-102922200D02*
X144112969Y-102874580D01*
X144112969Y-102874580D02*
X144160588Y-102779342D01*
X144160588Y-102779342D02*
X144160588Y-102684104D01*
X144160588Y-102684104D02*
X144112969Y-102588866D01*
X144112969Y-102588866D02*
X144065350Y-102541247D01*
X144065350Y-102541247D02*
X143970112Y-102493628D01*
X143970112Y-102493628D02*
X143779636Y-102446009D01*
X143779636Y-102446009D02*
X143684398Y-102398390D01*
X143684398Y-102398390D02*
X143636779Y-102350771D01*
X143636779Y-102350771D02*
X143589160Y-102255533D01*
X143589160Y-102255533D02*
X143589160Y-102160295D01*
X143589160Y-102160295D02*
X143636779Y-102065057D01*
X143636779Y-102065057D02*
X143684398Y-102017438D01*
X143684398Y-102017438D02*
X143779636Y-101969819D01*
X143779636Y-101969819D02*
X144017731Y-101969819D01*
X144017731Y-101969819D02*
X144160588Y-102017438D01*
X144589160Y-102969819D02*
X144589160Y-101969819D01*
X144589160Y-101969819D02*
X144970112Y-101969819D01*
X144970112Y-101969819D02*
X145065350Y-102017438D01*
X145065350Y-102017438D02*
X145112969Y-102065057D01*
X145112969Y-102065057D02*
X145160588Y-102160295D01*
X145160588Y-102160295D02*
X145160588Y-102303152D01*
X145160588Y-102303152D02*
X145112969Y-102398390D01*
X145112969Y-102398390D02*
X145065350Y-102446009D01*
X145065350Y-102446009D02*
X144970112Y-102493628D01*
X144970112Y-102493628D02*
X144589160Y-102493628D01*
X145589160Y-102969819D02*
X145589160Y-101969819D01*
X149012969Y-105369819D02*
X148536779Y-105369819D01*
X148536779Y-105369819D02*
X148489160Y-105846009D01*
X148489160Y-105846009D02*
X148536779Y-105798390D01*
X148536779Y-105798390D02*
X148632017Y-105750771D01*
X148632017Y-105750771D02*
X148870112Y-105750771D01*
X148870112Y-105750771D02*
X148965350Y-105798390D01*
X148965350Y-105798390D02*
X149012969Y-105846009D01*
X149012969Y-105846009D02*
X149060588Y-105941247D01*
X149060588Y-105941247D02*
X149060588Y-106179342D01*
X149060588Y-106179342D02*
X149012969Y-106274580D01*
X149012969Y-106274580D02*
X148965350Y-106322200D01*
X148965350Y-106322200D02*
X148870112Y-106369819D01*
X148870112Y-106369819D02*
X148632017Y-106369819D01*
X148632017Y-106369819D02*
X148536779Y-106322200D01*
X148536779Y-106322200D02*
X148489160Y-106274580D01*
X148535363Y-94808207D02*
X148487744Y-94760588D01*
X148487744Y-94760588D02*
X148440124Y-94617731D01*
X148440124Y-94617731D02*
X148440124Y-94522493D01*
X148440124Y-94522493D02*
X148487744Y-94379636D01*
X148487744Y-94379636D02*
X148582982Y-94284398D01*
X148582982Y-94284398D02*
X148678220Y-94236779D01*
X148678220Y-94236779D02*
X148868696Y-94189160D01*
X148868696Y-94189160D02*
X149011553Y-94189160D01*
X149011553Y-94189160D02*
X149202029Y-94236779D01*
X149202029Y-94236779D02*
X149297267Y-94284398D01*
X149297267Y-94284398D02*
X149392505Y-94379636D01*
X149392505Y-94379636D02*
X149440124Y-94522493D01*
X149440124Y-94522493D02*
X149440124Y-94617731D01*
X149440124Y-94617731D02*
X149392505Y-94760588D01*
X149392505Y-94760588D02*
X149344886Y-94808207D01*
X148487744Y-95189160D02*
X148440124Y-95332017D01*
X148440124Y-95332017D02*
X148440124Y-95570112D01*
X148440124Y-95570112D02*
X148487744Y-95665350D01*
X148487744Y-95665350D02*
X148535363Y-95712969D01*
X148535363Y-95712969D02*
X148630601Y-95760588D01*
X148630601Y-95760588D02*
X148725839Y-95760588D01*
X148725839Y-95760588D02*
X148821077Y-95712969D01*
X148821077Y-95712969D02*
X148868696Y-95665350D01*
X148868696Y-95665350D02*
X148916315Y-95570112D01*
X148916315Y-95570112D02*
X148963934Y-95379636D01*
X148963934Y-95379636D02*
X149011553Y-95284398D01*
X149011553Y-95284398D02*
X149059172Y-95236779D01*
X149059172Y-95236779D02*
X149154410Y-95189160D01*
X149154410Y-95189160D02*
X149249648Y-95189160D01*
X149249648Y-95189160D02*
X149344886Y-95236779D01*
X149344886Y-95236779D02*
X149392505Y-95284398D01*
X149392505Y-95284398D02*
X149440124Y-95379636D01*
X149440124Y-95379636D02*
X149440124Y-95617731D01*
X149440124Y-95617731D02*
X149392505Y-95760588D01*
X149440124Y-96093922D02*
X149440124Y-96760588D01*
X149440124Y-96760588D02*
X148440124Y-96332017D01*
X146925419Y-94808207D02*
X146877800Y-94760588D01*
X146877800Y-94760588D02*
X146830180Y-94617731D01*
X146830180Y-94617731D02*
X146830180Y-94522493D01*
X146830180Y-94522493D02*
X146877800Y-94379636D01*
X146877800Y-94379636D02*
X146973038Y-94284398D01*
X146973038Y-94284398D02*
X147068276Y-94236779D01*
X147068276Y-94236779D02*
X147258752Y-94189160D01*
X147258752Y-94189160D02*
X147401609Y-94189160D01*
X147401609Y-94189160D02*
X147592085Y-94236779D01*
X147592085Y-94236779D02*
X147687323Y-94284398D01*
X147687323Y-94284398D02*
X147782561Y-94379636D01*
X147782561Y-94379636D02*
X147830180Y-94522493D01*
X147830180Y-94522493D02*
X147830180Y-94617731D01*
X147830180Y-94617731D02*
X147782561Y-94760588D01*
X147782561Y-94760588D02*
X147734942Y-94808207D01*
X146877800Y-95189160D02*
X146830180Y-95332017D01*
X146830180Y-95332017D02*
X146830180Y-95570112D01*
X146830180Y-95570112D02*
X146877800Y-95665350D01*
X146877800Y-95665350D02*
X146925419Y-95712969D01*
X146925419Y-95712969D02*
X147020657Y-95760588D01*
X147020657Y-95760588D02*
X147115895Y-95760588D01*
X147115895Y-95760588D02*
X147211133Y-95712969D01*
X147211133Y-95712969D02*
X147258752Y-95665350D01*
X147258752Y-95665350D02*
X147306371Y-95570112D01*
X147306371Y-95570112D02*
X147353990Y-95379636D01*
X147353990Y-95379636D02*
X147401609Y-95284398D01*
X147401609Y-95284398D02*
X147449228Y-95236779D01*
X147449228Y-95236779D02*
X147544466Y-95189160D01*
X147544466Y-95189160D02*
X147639704Y-95189160D01*
X147639704Y-95189160D02*
X147734942Y-95236779D01*
X147734942Y-95236779D02*
X147782561Y-95284398D01*
X147782561Y-95284398D02*
X147830180Y-95379636D01*
X147830180Y-95379636D02*
X147830180Y-95617731D01*
X147830180Y-95617731D02*
X147782561Y-95760588D01*
X147401609Y-96332017D02*
X147449228Y-96236779D01*
X147449228Y-96236779D02*
X147496847Y-96189160D01*
X147496847Y-96189160D02*
X147592085Y-96141541D01*
X147592085Y-96141541D02*
X147639704Y-96141541D01*
X147639704Y-96141541D02*
X147734942Y-96189160D01*
X147734942Y-96189160D02*
X147782561Y-96236779D01*
X147782561Y-96236779D02*
X147830180Y-96332017D01*
X147830180Y-96332017D02*
X147830180Y-96522493D01*
X147830180Y-96522493D02*
X147782561Y-96617731D01*
X147782561Y-96617731D02*
X147734942Y-96665350D01*
X147734942Y-96665350D02*
X147639704Y-96712969D01*
X147639704Y-96712969D02*
X147592085Y-96712969D01*
X147592085Y-96712969D02*
X147496847Y-96665350D01*
X147496847Y-96665350D02*
X147449228Y-96617731D01*
X147449228Y-96617731D02*
X147401609Y-96522493D01*
X147401609Y-96522493D02*
X147401609Y-96332017D01*
X147401609Y-96332017D02*
X147353990Y-96236779D01*
X147353990Y-96236779D02*
X147306371Y-96189160D01*
X147306371Y-96189160D02*
X147211133Y-96141541D01*
X147211133Y-96141541D02*
X147020657Y-96141541D01*
X147020657Y-96141541D02*
X146925419Y-96189160D01*
X146925419Y-96189160D02*
X146877800Y-96236779D01*
X146877800Y-96236779D02*
X146830180Y-96332017D01*
X146830180Y-96332017D02*
X146830180Y-96522493D01*
X146830180Y-96522493D02*
X146877800Y-96617731D01*
X146877800Y-96617731D02*
X146925419Y-96665350D01*
X146925419Y-96665350D02*
X147020657Y-96712969D01*
X147020657Y-96712969D02*
X147211133Y-96712969D01*
X147211133Y-96712969D02*
X147306371Y-96665350D01*
X147306371Y-96665350D02*
X147353990Y-96617731D01*
X147353990Y-96617731D02*
X147401609Y-96522493D01*
X145708207Y-93669819D02*
X145374874Y-93193628D01*
X145136779Y-93669819D02*
X145136779Y-92669819D01*
X145136779Y-92669819D02*
X145517731Y-92669819D01*
X145517731Y-92669819D02*
X145612969Y-92717438D01*
X145612969Y-92717438D02*
X145660588Y-92765057D01*
X145660588Y-92765057D02*
X145708207Y-92860295D01*
X145708207Y-92860295D02*
X145708207Y-93003152D01*
X145708207Y-93003152D02*
X145660588Y-93098390D01*
X145660588Y-93098390D02*
X145612969Y-93146009D01*
X145612969Y-93146009D02*
X145517731Y-93193628D01*
X145517731Y-93193628D02*
X145136779Y-93193628D01*
X146089160Y-93622200D02*
X146232017Y-93669819D01*
X146232017Y-93669819D02*
X146470112Y-93669819D01*
X146470112Y-93669819D02*
X146565350Y-93622200D01*
X146565350Y-93622200D02*
X146612969Y-93574580D01*
X146612969Y-93574580D02*
X146660588Y-93479342D01*
X146660588Y-93479342D02*
X146660588Y-93384104D01*
X146660588Y-93384104D02*
X146612969Y-93288866D01*
X146612969Y-93288866D02*
X146565350Y-93241247D01*
X146565350Y-93241247D02*
X146470112Y-93193628D01*
X146470112Y-93193628D02*
X146279636Y-93146009D01*
X146279636Y-93146009D02*
X146184398Y-93098390D01*
X146184398Y-93098390D02*
X146136779Y-93050771D01*
X146136779Y-93050771D02*
X146089160Y-92955533D01*
X146089160Y-92955533D02*
X146089160Y-92860295D01*
X146089160Y-92860295D02*
X146136779Y-92765057D01*
X146136779Y-92765057D02*
X146184398Y-92717438D01*
X146184398Y-92717438D02*
X146279636Y-92669819D01*
X146279636Y-92669819D02*
X146517731Y-92669819D01*
X146517731Y-92669819D02*
X146660588Y-92717438D01*
X147089160Y-93288866D02*
X147851065Y-93288866D01*
X147470112Y-93669819D02*
X147470112Y-92907914D01*
X142308207Y-93669819D02*
X141974874Y-93193628D01*
X141736779Y-93669819D02*
X141736779Y-92669819D01*
X141736779Y-92669819D02*
X142117731Y-92669819D01*
X142117731Y-92669819D02*
X142212969Y-92717438D01*
X142212969Y-92717438D02*
X142260588Y-92765057D01*
X142260588Y-92765057D02*
X142308207Y-92860295D01*
X142308207Y-92860295D02*
X142308207Y-93003152D01*
X142308207Y-93003152D02*
X142260588Y-93098390D01*
X142260588Y-93098390D02*
X142212969Y-93146009D01*
X142212969Y-93146009D02*
X142117731Y-93193628D01*
X142117731Y-93193628D02*
X141736779Y-93193628D01*
X142689160Y-93622200D02*
X142832017Y-93669819D01*
X142832017Y-93669819D02*
X143070112Y-93669819D01*
X143070112Y-93669819D02*
X143165350Y-93622200D01*
X143165350Y-93622200D02*
X143212969Y-93574580D01*
X143212969Y-93574580D02*
X143260588Y-93479342D01*
X143260588Y-93479342D02*
X143260588Y-93384104D01*
X143260588Y-93384104D02*
X143212969Y-93288866D01*
X143212969Y-93288866D02*
X143165350Y-93241247D01*
X143165350Y-93241247D02*
X143070112Y-93193628D01*
X143070112Y-93193628D02*
X142879636Y-93146009D01*
X142879636Y-93146009D02*
X142784398Y-93098390D01*
X142784398Y-93098390D02*
X142736779Y-93050771D01*
X142736779Y-93050771D02*
X142689160Y-92955533D01*
X142689160Y-92955533D02*
X142689160Y-92860295D01*
X142689160Y-92860295D02*
X142736779Y-92765057D01*
X142736779Y-92765057D02*
X142784398Y-92717438D01*
X142784398Y-92717438D02*
X142879636Y-92669819D01*
X142879636Y-92669819D02*
X143117731Y-92669819D01*
X143117731Y-92669819D02*
X143260588Y-92717438D01*
X143689160Y-93288866D02*
X144451065Y-93288866D01*
D11*
G04 #@! TO.C,J1*
X141190000Y-101710000D02*
X141190000Y-100600000D01*
X141950000Y-101710000D02*
X141190000Y-101710000D01*
X142710000Y-99490000D02*
X147725000Y-99490000D01*
X142710000Y-100036529D02*
X142710000Y-99490000D01*
X142710000Y-101710000D02*
X142710000Y-101163471D01*
X142710000Y-101710000D02*
X147725000Y-101710000D01*
X147725000Y-100292470D02*
X147725000Y-99490000D01*
X147725000Y-101710000D02*
X147725000Y-100907530D01*
G04 #@! TO.C,J7*
X141390000Y-107265000D02*
X142440000Y-107265000D01*
X141390000Y-109765000D02*
X141390000Y-107265000D01*
X142440000Y-107265000D02*
X142440000Y-106275000D01*
X142560000Y-111735000D02*
X146440000Y-111735000D01*
X147610000Y-107265000D02*
X146560000Y-107265000D01*
X147610000Y-109765000D02*
X147610000Y-107265000D01*
G04 #@! TO.C,TP2*
X146200000Y-94700000D02*
G75*
G02*
X144800000Y-94700000I-700000J0D01*
G01*
X144800000Y-94700000D02*
G75*
G02*
X146200000Y-94700000I700000J0D01*
G01*
G04 #@! TO.C,R2*
X139920000Y-101046359D02*
X139920000Y-101353641D01*
X140680000Y-101046359D02*
X140680000Y-101353641D01*
G04 #@! TO.C,J3*
X141595000Y-96690000D02*
X141595000Y-97492470D01*
X141595000Y-98107530D02*
X141595000Y-98910000D01*
X145340000Y-96690000D02*
X141595000Y-96690000D01*
X145340000Y-96690000D02*
X145340000Y-97236529D01*
X145340000Y-98363471D02*
X145340000Y-98910000D01*
X145340000Y-98910000D02*
X141595000Y-98910000D01*
X146100000Y-96690000D02*
X146860000Y-96690000D01*
X146860000Y-96690000D02*
X146860000Y-97800000D01*
G04 #@! TO.C,R4*
X148320000Y-101046359D02*
X148320000Y-101353641D01*
X149080000Y-101046359D02*
X149080000Y-101353641D01*
G04 #@! TO.C,TP1*
X144200000Y-94600000D02*
G75*
G02*
X142800000Y-94600000I-700000J0D01*
G01*
X142800000Y-94600000D02*
G75*
G02*
X144200000Y-94600000I700000J0D01*
G01*
G04 #@! TD*
%LPC*%
D12*
G04 #@! TO.C,J1*
X141950000Y-100600000D03*
D13*
X143220000Y-100600000D03*
X144490000Y-100600000D03*
X145760000Y-100600000D03*
X147030000Y-100600000D03*
G04 #@! TD*
D14*
G04 #@! TO.C,J7*
X143000000Y-107050000D03*
X144000000Y-107050000D03*
X145000000Y-107050000D03*
X146000000Y-107050000D03*
D15*
X141700000Y-110925000D03*
X147300000Y-110925000D03*
G04 #@! TD*
D16*
G04 #@! TO.C,TP2*
X145500000Y-94700000D03*
G04 #@! TD*
D17*
G04 #@! TO.C,R2*
X140300000Y-100690000D03*
X140300000Y-101710000D03*
G04 #@! TD*
D18*
G04 #@! TO.C,J3*
X146100000Y-97800000D03*
D13*
X144830000Y-97800000D03*
X143560000Y-97800000D03*
X142290000Y-97800000D03*
G04 #@! TD*
D19*
G04 #@! TO.C,J2*
X148940000Y-104850000D03*
D20*
X146180000Y-104550000D03*
D19*
X148940000Y-104250000D03*
D20*
X146180000Y-103950000D03*
D19*
X148940000Y-103650000D03*
D20*
X146180000Y-103350000D03*
D19*
X148940000Y-103050000D03*
G04 #@! TD*
D17*
G04 #@! TO.C,R4*
X148700000Y-100690000D03*
X148700000Y-101710000D03*
G04 #@! TD*
D21*
G04 #@! TO.C,J5*
X140060000Y-103050000D03*
D22*
X142820000Y-103350000D03*
D21*
X140060000Y-103650000D03*
D22*
X142820000Y-103950000D03*
D21*
X140060000Y-104250000D03*
D22*
X142820000Y-104550000D03*
D21*
X140060000Y-104850000D03*
G04 #@! TD*
D16*
G04 #@! TO.C,TP1*
X143500000Y-94600000D03*
G04 #@! TD*
%LPD*%
M02*
