G04 #@! TF.GenerationSoftware,KiCad,Pcbnew,8.0.7-8.0.7-0~ubuntu24.04.1*
G04 #@! TF.CreationDate,2024-12-30T14:28:34-07:00*
G04 #@! TF.ProjectId,2 connector Sensor Board,3220636f-6e6e-4656-9374-6f722053656e,V1*
G04 #@! TF.SameCoordinates,Original*
G04 #@! TF.FileFunction,Copper,L2,Bot*
G04 #@! TF.FilePolarity,Positive*
%FSLAX46Y46*%
G04 Gerber Fmt 4.6, Leading zero omitted, Abs format (unit mm)*
G04 Created by KiCad (PCBNEW 8.0.7-8.0.7-0~ubuntu24.04.1) date 2024-12-30 14:28:34*
%MOMM*%
%LPD*%
G01*
G04 APERTURE LIST*
G04 #@! TA.AperFunction,ComponentPad*
%ADD10R,1.000000X1.000000*%
G04 #@! TD*
G04 #@! TA.AperFunction,ComponentPad*
%ADD11O,1.000000X1.000000*%
G04 #@! TD*
G04 #@! TA.AperFunction,SMDPad,CuDef*
%ADD12R,0.230000X0.650000*%
G04 #@! TD*
G04 #@! TA.AperFunction,SMDPad,CuDef*
%ADD13R,0.450000X0.530000*%
G04 #@! TD*
G04 #@! TA.AperFunction,ViaPad*
%ADD14C,0.600000*%
G04 #@! TD*
G04 #@! TA.AperFunction,Conductor*
%ADD15C,0.160000*%
G04 #@! TD*
G04 #@! TA.AperFunction,Conductor*
%ADD16C,0.200000*%
G04 #@! TD*
G04 APERTURE END LIST*
D10*
G04 #@! TO.P,J1,1,Pin_1*
G04 #@! TO.N,VDD*
X141950000Y-100600000D03*
D11*
G04 #@! TO.P,J1,2,Pin_2*
G04 #@! TO.N,SCK1*
X143220000Y-100600000D03*
G04 #@! TO.P,J1,3,Pin_3*
G04 #@! TO.N,MISO1*
X144490000Y-100600000D03*
G04 #@! TO.P,J1,4,Pin_4*
G04 #@! TO.N,MOSI1*
X145760000Y-100600000D03*
G04 #@! TO.P,J1,5,Pin_5*
G04 #@! TO.N,GND*
X147030000Y-100600000D03*
G04 #@! TD*
D10*
G04 #@! TO.P,J3,1,Pin_1*
G04 #@! TO.N,CS7*
X146100000Y-97800000D03*
D11*
G04 #@! TO.P,J3,2,Pin_2*
G04 #@! TO.N,CS8*
X144830000Y-97800000D03*
G04 #@! TO.P,J3,3,Pin_3*
G04 #@! TO.N,Free1*
X143560000Y-97800000D03*
G04 #@! TO.P,J3,4,Pin_4*
G04 #@! TO.N,Free2*
X142290000Y-97800000D03*
G04 #@! TD*
D12*
G04 #@! TO.P,J4,1,Pin_1*
G04 #@! TO.N,VDD*
X147310000Y-95680000D03*
G04 #@! TO.P,J4,2,Pin_2*
X147310000Y-93930000D03*
G04 #@! TO.P,J4,3,Pin_3*
G04 #@! TO.N,SDA1*
X146910000Y-95680000D03*
G04 #@! TO.P,J4,4,Pin_4*
G04 #@! TO.N,CS7*
X146910000Y-93930000D03*
G04 #@! TO.P,J4,5,Pin_5*
G04 #@! TO.N,SCL1*
X146510000Y-95680000D03*
G04 #@! TO.P,J4,6,Pin_6*
G04 #@! TO.N,CS8*
X146510000Y-93930000D03*
G04 #@! TO.P,J4,7,Pin_7*
G04 #@! TO.N,GND*
X146110000Y-95680000D03*
G04 #@! TO.P,J4,8,Pin_8*
X146110000Y-93930000D03*
G04 #@! TO.P,J4,9,Pin_9*
G04 #@! TO.N,MISO1*
X145710000Y-95680000D03*
G04 #@! TO.P,J4,10,Pin_10*
G04 #@! TO.N,Free2*
X145710000Y-93930000D03*
G04 #@! TO.P,J4,11,Pin_11*
G04 #@! TO.N,MOSI1*
X145310000Y-95680000D03*
G04 #@! TO.P,J4,12,Pin_12*
G04 #@! TO.N,RS485+*
X145310000Y-93930000D03*
G04 #@! TO.P,J4,13,Pin_13*
G04 #@! TO.N,SCK1*
X144910000Y-95680000D03*
G04 #@! TO.P,J4,14,Pin_14*
G04 #@! TO.N,RS485-*
X144910000Y-93930000D03*
G04 #@! TO.P,J4,15,Pin_15*
G04 #@! TO.N,GND*
X144510000Y-95680000D03*
G04 #@! TO.P,J4,16,Pin_16*
X144510000Y-93930000D03*
G04 #@! TO.P,J4,17,Pin_17*
G04 #@! TO.N,RS485-*
X144110000Y-95680000D03*
G04 #@! TO.P,J4,18,Pin_18*
G04 #@! TO.N,SCK1*
X144110000Y-93930000D03*
G04 #@! TO.P,J4,19,Pin_19*
G04 #@! TO.N,RS485+*
X143710000Y-95680000D03*
G04 #@! TO.P,J4,20,Pin_20*
G04 #@! TO.N,MOSI1*
X143710000Y-93930000D03*
G04 #@! TO.P,J4,21,Pin_21*
G04 #@! TO.N,Free2*
X143310000Y-95680000D03*
G04 #@! TO.P,J4,22,Pin_22*
G04 #@! TO.N,MISO1*
X143310000Y-93930000D03*
G04 #@! TO.P,J4,23,Pin_23*
G04 #@! TO.N,GND*
X142910000Y-95680000D03*
G04 #@! TO.P,J4,24,Pin_24*
X142910000Y-93930000D03*
G04 #@! TO.P,J4,25,Pin_25*
G04 #@! TO.N,CS8*
X142510000Y-95680000D03*
G04 #@! TO.P,J4,26,Pin_26*
G04 #@! TO.N,SCL1*
X142510000Y-93930000D03*
G04 #@! TO.P,J4,27,Pin_27*
G04 #@! TO.N,CS7*
X142110000Y-95680000D03*
G04 #@! TO.P,J4,28,Pin_28*
G04 #@! TO.N,SDA1*
X142110000Y-93930000D03*
G04 #@! TO.P,J4,29,Pin_29*
G04 #@! TO.N,VDD*
X141710000Y-95680000D03*
G04 #@! TO.P,J4,30,Pin_30*
X141710000Y-93930000D03*
D13*
G04 #@! TO.P,J4,MP,MountPin*
G04 #@! TO.N,GND*
X148110000Y-95370000D03*
X148110000Y-94240000D03*
X140910000Y-95370000D03*
X140910000Y-94240000D03*
G04 #@! TD*
D12*
G04 #@! TO.P,J15,1,Pin_1*
G04 #@! TO.N,VDD*
X147310000Y-110680000D03*
G04 #@! TO.P,J15,2,Pin_2*
X147310000Y-108930000D03*
G04 #@! TO.P,J15,3,Pin_3*
G04 #@! TO.N,SDA1*
X146910000Y-110680000D03*
G04 #@! TO.P,J15,4,Pin_4*
G04 #@! TO.N,CS5*
X146910000Y-108930000D03*
G04 #@! TO.P,J15,5,Pin_5*
G04 #@! TO.N,SCL1*
X146510000Y-110680000D03*
G04 #@! TO.P,J15,6,Pin_6*
G04 #@! TO.N,CS6*
X146510000Y-108930000D03*
G04 #@! TO.P,J15,7,Pin_7*
G04 #@! TO.N,GND*
X146110000Y-110680000D03*
G04 #@! TO.P,J15,8,Pin_8*
X146110000Y-108930000D03*
G04 #@! TO.P,J15,9,Pin_9*
G04 #@! TO.N,MISO1*
X145710000Y-110680000D03*
G04 #@! TO.P,J15,10,Pin_10*
G04 #@! TO.N,Free1*
X145710000Y-108930000D03*
G04 #@! TO.P,J15,11,Pin_11*
G04 #@! TO.N,MOSI1*
X145310000Y-110680000D03*
G04 #@! TO.P,J15,12,Pin_12*
G04 #@! TO.N,RS485+*
X145310000Y-108930000D03*
G04 #@! TO.P,J15,13,Pin_13*
G04 #@! TO.N,SCK1*
X144910000Y-110680000D03*
G04 #@! TO.P,J15,14,Pin_14*
G04 #@! TO.N,RS485-*
X144910000Y-108930000D03*
G04 #@! TO.P,J15,15,Pin_15*
G04 #@! TO.N,GND*
X144510000Y-110680000D03*
G04 #@! TO.P,J15,16,Pin_16*
X144510000Y-108930000D03*
G04 #@! TO.P,J15,17,Pin_17*
G04 #@! TO.N,RS485-*
X144110000Y-110680000D03*
G04 #@! TO.P,J15,18,Pin_18*
G04 #@! TO.N,SCK1*
X144110000Y-108930000D03*
G04 #@! TO.P,J15,19,Pin_19*
G04 #@! TO.N,RS485+*
X143710000Y-110680000D03*
G04 #@! TO.P,J15,20,Pin_20*
G04 #@! TO.N,MOSI1*
X143710000Y-108930000D03*
G04 #@! TO.P,J15,21,Pin_21*
G04 #@! TO.N,Free1*
X143310000Y-110680000D03*
G04 #@! TO.P,J15,22,Pin_22*
G04 #@! TO.N,MISO1*
X143310000Y-108930000D03*
G04 #@! TO.P,J15,23,Pin_23*
G04 #@! TO.N,GND*
X142910000Y-110680000D03*
G04 #@! TO.P,J15,24,Pin_24*
X142910000Y-108930000D03*
G04 #@! TO.P,J15,25,Pin_25*
G04 #@! TO.N,CS6*
X142510000Y-110680000D03*
G04 #@! TO.P,J15,26,Pin_26*
G04 #@! TO.N,SCL1*
X142510000Y-108930000D03*
G04 #@! TO.P,J15,27,Pin_27*
G04 #@! TO.N,CS5*
X142110000Y-110680000D03*
G04 #@! TO.P,J15,28,Pin_28*
G04 #@! TO.N,SDA1*
X142110000Y-108930000D03*
G04 #@! TO.P,J15,29,Pin_29*
G04 #@! TO.N,VDD*
X141710000Y-110680000D03*
G04 #@! TO.P,J15,30,Pin_30*
X141710000Y-108930000D03*
D13*
G04 #@! TO.P,J15,MP,MountPin*
G04 #@! TO.N,GND*
X148110000Y-110370000D03*
X148110000Y-109240000D03*
X140910000Y-110370000D03*
X140910000Y-109240000D03*
G04 #@! TD*
D14*
G04 #@! TO.N,GND*
X148314936Y-104248741D03*
X140300000Y-110400000D03*
X148700000Y-109300000D03*
X148600000Y-93900000D03*
X141900000Y-105900000D03*
X140717934Y-103305765D03*
X140700000Y-93700000D03*
X148800000Y-102500000D03*
G04 #@! TO.N,MOSI1*
X143600000Y-104500000D03*
X145100000Y-102900000D03*
G04 #@! TO.N,VDD*
X148200000Y-105000000D03*
X143296053Y-109715002D03*
X140100000Y-102439997D03*
X140100000Y-97900000D03*
G04 #@! TO.N,MISO1*
X148000000Y-98600000D03*
G04 #@! TO.N,CS5*
X147058203Y-108165810D03*
G04 #@! TO.N,CS6*
X146200000Y-109715002D03*
G04 #@! TO.N,Free1*
X145196170Y-109715002D03*
G04 #@! TO.N,SCL1*
X146300000Y-105900000D03*
G04 #@! TO.N,RS485+*
X145600000Y-93100000D03*
G04 #@! TO.N,RS485-*
X144600000Y-93100000D03*
G04 #@! TO.N,SDA1*
X145300000Y-105900000D03*
G04 #@! TD*
D15*
G04 #@! TO.N,MOSI1*
X145810000Y-96700000D02*
X146947452Y-96700000D01*
X146947452Y-96700000D02*
X147460000Y-97212548D01*
X147460000Y-97212548D02*
X147460000Y-98900000D01*
X147460000Y-98900000D02*
X145760000Y-100600000D01*
X143600000Y-104400000D02*
X145100000Y-102900000D01*
X145310000Y-96200000D02*
X145810000Y-96700000D01*
X145310000Y-95680000D02*
X145310000Y-96200000D01*
X143600000Y-104500000D02*
X143600000Y-104400000D01*
D16*
G04 #@! TO.N,VDD*
X147310000Y-108930000D02*
X147310000Y-110680000D01*
X141950000Y-100600000D02*
X140700000Y-99350000D01*
X143296053Y-109715002D02*
X143281051Y-109700000D01*
X140700000Y-99350000D02*
X140700000Y-98100000D01*
X140700000Y-96690000D02*
X141710000Y-95680000D01*
X147310000Y-108890000D02*
X147310000Y-108930000D01*
X148200000Y-105000000D02*
X148200000Y-108000000D01*
X148200000Y-108000000D02*
X147310000Y-108890000D01*
X141710000Y-109490000D02*
X141710000Y-108930000D01*
X141710000Y-110090000D02*
X142100000Y-109700000D01*
X140700000Y-98100000D02*
X140700000Y-96690000D01*
X142100000Y-109700000D02*
X141920000Y-109700000D01*
X143281051Y-109700000D02*
X142100000Y-109700000D01*
X140300000Y-98100000D02*
X140700000Y-98100000D01*
X141939997Y-100600000D02*
X140100000Y-102439997D01*
X141950000Y-100600000D02*
X141939997Y-100600000D01*
X141920000Y-109700000D02*
X141710000Y-109490000D01*
X140100000Y-97900000D02*
X140300000Y-98100000D01*
X141710000Y-110680000D02*
X141710000Y-110090000D01*
X141710000Y-95680000D02*
X141710000Y-93930000D01*
D15*
G04 #@! TO.N,MISO1*
X147000000Y-96300000D02*
X145862548Y-96300000D01*
X148000000Y-97300000D02*
X147000000Y-96300000D01*
X145862548Y-96300000D02*
X145710000Y-96147452D01*
X145710000Y-96147452D02*
X145710000Y-95680000D01*
X148000000Y-98600000D02*
X148000000Y-97300000D01*
G04 #@! TO.N,CS5*
X146910000Y-108314013D02*
X147058203Y-108165810D01*
X146910000Y-108930000D02*
X146910000Y-108314013D01*
G04 #@! TO.N,SCK1*
X147140000Y-97345096D02*
X147140000Y-98760000D01*
X144910000Y-95680000D02*
X144910000Y-96252548D01*
X144020000Y-99800000D02*
X143220000Y-100600000D01*
X146100000Y-99800000D02*
X144020000Y-99800000D01*
X145677452Y-97020000D02*
X146814904Y-97020000D01*
X144910000Y-96252548D02*
X145677452Y-97020000D01*
X146814904Y-97020000D02*
X147140000Y-97345096D01*
X147140000Y-98760000D02*
X146100000Y-99800000D01*
G04 #@! TO.N,CS6*
X146510000Y-108930000D02*
X146510000Y-109405002D01*
X146510000Y-109405002D02*
X146200000Y-109715002D01*
G04 #@! TO.N,Free1*
X145710000Y-109450000D02*
X145710000Y-108930000D01*
X145196170Y-109715002D02*
X145444998Y-109715002D01*
X145444998Y-109715002D02*
X145710000Y-109450000D01*
G04 #@! TO.N,SCL1*
X144480000Y-106440000D02*
X142510000Y-108410000D01*
X142510000Y-108410000D02*
X142510000Y-108930000D01*
X145760000Y-106440000D02*
X144480000Y-106440000D01*
X146300000Y-105900000D02*
X145760000Y-106440000D01*
G04 #@! TO.N,RS485+*
X145600000Y-93100000D02*
X145310000Y-93390000D01*
X145310000Y-93390000D02*
X145310000Y-93930000D01*
G04 #@! TO.N,RS485-*
X144600000Y-93100000D02*
X144910000Y-93410000D01*
X144910000Y-93410000D02*
X144910000Y-93930000D01*
G04 #@! TO.N,SDA1*
X142110000Y-108357452D02*
X142110000Y-108930000D01*
X144567452Y-105900000D02*
X142110000Y-108357452D01*
X145300000Y-105900000D02*
X144567452Y-105900000D01*
G04 #@! TO.N,CS7*
X142110000Y-96118284D02*
X142110000Y-95680000D01*
X141040000Y-97188284D02*
X142110000Y-96118284D01*
X141800000Y-98860000D02*
X141040000Y-98100000D01*
X145040000Y-98860000D02*
X141800000Y-98860000D01*
X141040000Y-98100000D02*
X141040000Y-97188284D01*
X146100000Y-97800000D02*
X145040000Y-98860000D01*
G04 #@! TO.N,CS8*
X144830000Y-97800000D02*
X144090000Y-98540000D01*
X141983481Y-98540000D02*
X141500000Y-98056519D01*
X141500000Y-98056519D02*
X141500000Y-97180832D01*
X142510000Y-96170832D02*
X142510000Y-95680000D01*
X144090000Y-98540000D02*
X141983481Y-98540000D01*
X141500000Y-97180832D02*
X142510000Y-96170832D01*
G04 #@! TO.N,Free2*
X142290000Y-97800000D02*
X143310000Y-96780000D01*
X143310000Y-96780000D02*
X143310000Y-95680000D01*
G04 #@! TD*
G04 #@! TA.AperFunction,Conductor*
G04 #@! TO.N,GND*
G36*
X144307202Y-92618982D02*
G01*
X144334222Y-92665782D01*
X144324838Y-92719000D01*
X144299134Y-92745958D01*
X144295336Y-92748398D01*
X144295335Y-92748399D01*
X144208619Y-92848474D01*
X144153610Y-92968927D01*
X144153609Y-92968930D01*
X144134765Y-93100000D01*
X144153609Y-93231069D01*
X144153610Y-93231072D01*
X144163974Y-93253767D01*
X144200014Y-93332682D01*
X144204297Y-93386551D01*
X144172951Y-93430570D01*
X144128153Y-93444500D01*
X143979194Y-93444500D01*
X143925412Y-93455198D01*
X143894588Y-93455198D01*
X143840806Y-93444500D01*
X143579194Y-93444500D01*
X143525412Y-93455198D01*
X143494588Y-93455198D01*
X143440806Y-93444500D01*
X143179194Y-93444500D01*
X143132376Y-93453812D01*
X143079285Y-93489285D01*
X143043812Y-93542376D01*
X143034500Y-93589194D01*
X143034500Y-94270805D01*
X143043812Y-94317623D01*
X143079285Y-94370714D01*
X143105831Y-94388450D01*
X143132376Y-94406187D01*
X143179194Y-94415500D01*
X143440804Y-94415500D01*
X143440806Y-94415500D01*
X143487624Y-94406187D01*
X143487625Y-94406185D01*
X143494587Y-94404801D01*
X143525413Y-94404801D01*
X143532374Y-94406185D01*
X143532376Y-94406187D01*
X143579194Y-94415500D01*
X143579196Y-94415500D01*
X143840804Y-94415500D01*
X143840806Y-94415500D01*
X143887624Y-94406187D01*
X143887625Y-94406185D01*
X143894587Y-94404801D01*
X143925413Y-94404801D01*
X143932374Y-94406185D01*
X143932376Y-94406187D01*
X143979194Y-94415500D01*
X143979196Y-94415500D01*
X144240806Y-94415500D01*
X144287624Y-94406187D01*
X144340714Y-94370714D01*
X144376187Y-94317624D01*
X144385500Y-94270806D01*
X144385500Y-93622489D01*
X144403982Y-93571709D01*
X144450782Y-93544689D01*
X144486753Y-93546688D01*
X144533790Y-93560500D01*
X144555500Y-93560500D01*
X144606280Y-93578982D01*
X144633300Y-93625782D01*
X144634500Y-93639500D01*
X144634500Y-94270805D01*
X144643812Y-94317623D01*
X144679285Y-94370714D01*
X144705831Y-94388450D01*
X144732376Y-94406187D01*
X144779194Y-94415500D01*
X145040804Y-94415500D01*
X145040806Y-94415500D01*
X145087624Y-94406187D01*
X145087625Y-94406185D01*
X145094587Y-94404801D01*
X145125413Y-94404801D01*
X145132374Y-94406185D01*
X145132376Y-94406187D01*
X145179194Y-94415500D01*
X145179196Y-94415500D01*
X145440804Y-94415500D01*
X145440806Y-94415500D01*
X145487624Y-94406187D01*
X145487625Y-94406185D01*
X145494587Y-94404801D01*
X145525413Y-94404801D01*
X145532374Y-94406185D01*
X145532376Y-94406187D01*
X145579194Y-94415500D01*
X145579196Y-94415500D01*
X145840806Y-94415500D01*
X145887624Y-94406187D01*
X145940714Y-94370714D01*
X145976187Y-94317624D01*
X145985500Y-94270806D01*
X145985500Y-93589194D01*
X146234500Y-93589194D01*
X146234500Y-94270805D01*
X146243812Y-94317623D01*
X146279285Y-94370714D01*
X146305831Y-94388450D01*
X146332376Y-94406187D01*
X146379194Y-94415500D01*
X146640804Y-94415500D01*
X146640806Y-94415500D01*
X146687624Y-94406187D01*
X146687625Y-94406185D01*
X146694587Y-94404801D01*
X146725413Y-94404801D01*
X146732374Y-94406185D01*
X146732376Y-94406187D01*
X146779194Y-94415500D01*
X146779196Y-94415500D01*
X147040804Y-94415500D01*
X147040806Y-94415500D01*
X147087624Y-94406187D01*
X147087625Y-94406185D01*
X147094587Y-94404801D01*
X147125413Y-94404801D01*
X147132374Y-94406185D01*
X147132376Y-94406187D01*
X147179194Y-94415500D01*
X147179196Y-94415500D01*
X147440806Y-94415500D01*
X147487624Y-94406187D01*
X147540714Y-94370714D01*
X147576187Y-94317624D01*
X147585500Y-94270806D01*
X147585500Y-93589194D01*
X147576187Y-93542376D01*
X147563370Y-93523193D01*
X147540714Y-93489285D01*
X147494290Y-93458267D01*
X147487624Y-93453813D01*
X147487623Y-93453812D01*
X147440806Y-93444500D01*
X147179194Y-93444500D01*
X147125412Y-93455198D01*
X147094588Y-93455198D01*
X147040806Y-93444500D01*
X146779194Y-93444500D01*
X146725412Y-93455198D01*
X146694588Y-93455198D01*
X146640806Y-93444500D01*
X146379194Y-93444500D01*
X146332376Y-93453812D01*
X146279285Y-93489285D01*
X146243812Y-93542376D01*
X146234500Y-93589194D01*
X145985500Y-93589194D01*
X145976187Y-93542376D01*
X145976186Y-93542373D01*
X145944272Y-93494610D01*
X145931428Y-93442120D01*
X145950252Y-93398989D01*
X145991381Y-93351525D01*
X146046390Y-93231072D01*
X146065235Y-93100000D01*
X146046390Y-92968928D01*
X145991381Y-92848475D01*
X145904664Y-92748399D01*
X145904663Y-92748398D01*
X145900866Y-92745958D01*
X145868140Y-92702955D01*
X145870713Y-92648977D01*
X145907380Y-92609281D01*
X145943578Y-92600500D01*
X147452405Y-92600500D01*
X147497174Y-92600500D01*
X147502809Y-92600701D01*
X147529936Y-92602641D01*
X147736236Y-92617395D01*
X147747384Y-92618999D01*
X147973288Y-92668143D01*
X147984101Y-92671317D01*
X148200700Y-92752104D01*
X148210950Y-92756784D01*
X148413868Y-92867586D01*
X148423337Y-92873672D01*
X148548646Y-92967477D01*
X148608417Y-93012221D01*
X148616935Y-93019603D01*
X148780396Y-93183064D01*
X148787778Y-93191582D01*
X148817338Y-93231069D01*
X148909452Y-93354120D01*
X148926323Y-93376656D01*
X148932415Y-93386135D01*
X148977534Y-93468763D01*
X149043214Y-93589047D01*
X149047896Y-93599301D01*
X149128681Y-93815897D01*
X149131856Y-93826711D01*
X149181000Y-94052615D01*
X149182605Y-94063772D01*
X149199299Y-94297189D01*
X149199500Y-94302825D01*
X149199500Y-110297174D01*
X149199299Y-110302810D01*
X149182605Y-110536227D01*
X149181000Y-110547384D01*
X149131856Y-110773288D01*
X149128681Y-110784102D01*
X149047896Y-111000698D01*
X149043214Y-111010952D01*
X148932417Y-111213861D01*
X148926323Y-111223343D01*
X148787778Y-111408417D01*
X148780396Y-111416935D01*
X148616935Y-111580396D01*
X148608417Y-111587778D01*
X148423343Y-111726323D01*
X148413861Y-111732417D01*
X148210952Y-111843214D01*
X148200698Y-111847896D01*
X147984102Y-111928681D01*
X147973288Y-111931856D01*
X147747384Y-111981000D01*
X147736227Y-111982605D01*
X147502810Y-111999299D01*
X147497174Y-111999500D01*
X141502826Y-111999500D01*
X141497190Y-111999299D01*
X141263772Y-111982605D01*
X141252615Y-111981000D01*
X141026711Y-111931856D01*
X141015897Y-111928681D01*
X140799301Y-111847896D01*
X140789047Y-111843214D01*
X140586138Y-111732417D01*
X140576656Y-111726323D01*
X140391582Y-111587778D01*
X140383064Y-111580396D01*
X140219603Y-111416935D01*
X140212221Y-111408417D01*
X140073672Y-111223337D01*
X140067586Y-111213868D01*
X139956784Y-111010950D01*
X139952103Y-111000698D01*
X139871318Y-110784102D01*
X139868143Y-110773288D01*
X139818999Y-110547384D01*
X139817395Y-110536236D01*
X139800701Y-110302809D01*
X139800500Y-110297174D01*
X139800500Y-108589194D01*
X141434500Y-108589194D01*
X141434500Y-109270805D01*
X141445331Y-109325256D01*
X141445167Y-109325288D01*
X141449500Y-109347068D01*
X141449500Y-109541819D01*
X141489155Y-109637555D01*
X141489158Y-109637558D01*
X141489159Y-109637561D01*
X141585736Y-109734139D01*
X141608573Y-109783114D01*
X141594587Y-109835312D01*
X141585738Y-109845858D01*
X141562441Y-109869157D01*
X141562438Y-109869159D01*
X141489161Y-109942435D01*
X141489156Y-109942442D01*
X141449500Y-110038180D01*
X141449500Y-110262932D01*
X141445167Y-110284713D01*
X141445331Y-110284746D01*
X141443813Y-110292375D01*
X141443813Y-110292376D01*
X141434500Y-110339194D01*
X141434500Y-110339195D01*
X141434500Y-111020805D01*
X141443812Y-111067623D01*
X141479285Y-111120714D01*
X141505831Y-111138450D01*
X141532376Y-111156187D01*
X141579194Y-111165500D01*
X141840804Y-111165500D01*
X141840806Y-111165500D01*
X141887624Y-111156187D01*
X141887625Y-111156185D01*
X141894587Y-111154801D01*
X141925413Y-111154801D01*
X141932374Y-111156185D01*
X141932376Y-111156187D01*
X141979194Y-111165500D01*
X141979196Y-111165500D01*
X142240804Y-111165500D01*
X142240806Y-111165500D01*
X142287624Y-111156187D01*
X142287625Y-111156185D01*
X142294587Y-111154801D01*
X142325413Y-111154801D01*
X142332374Y-111156185D01*
X142332376Y-111156187D01*
X142379194Y-111165500D01*
X142379196Y-111165500D01*
X142640806Y-111165500D01*
X142687624Y-111156187D01*
X142740714Y-111120714D01*
X142776187Y-111067624D01*
X142785500Y-111020806D01*
X142785500Y-110339194D01*
X142776187Y-110292376D01*
X142761524Y-110270431D01*
X142740714Y-110239285D01*
X142700672Y-110212531D01*
X142687624Y-110203813D01*
X142687623Y-110203812D01*
X142640806Y-110194500D01*
X142379194Y-110194500D01*
X142325412Y-110205198D01*
X142294588Y-110205198D01*
X142240806Y-110194500D01*
X142164625Y-110194500D01*
X142113845Y-110176018D01*
X142086825Y-110129218D01*
X142096209Y-110076000D01*
X142108764Y-110059639D01*
X142184764Y-109983639D01*
X142233740Y-109960801D01*
X142240625Y-109960500D01*
X142863372Y-109960500D01*
X142914152Y-109978982D01*
X142923076Y-109987766D01*
X142991389Y-110066603D01*
X143067551Y-110115551D01*
X143100277Y-110158553D01*
X143097705Y-110212531D01*
X143080704Y-110237866D01*
X143079289Y-110239280D01*
X143043812Y-110292376D01*
X143034500Y-110339194D01*
X143034500Y-111020805D01*
X143043812Y-111067623D01*
X143079285Y-111120714D01*
X143105831Y-111138450D01*
X143132376Y-111156187D01*
X143179194Y-111165500D01*
X143440804Y-111165500D01*
X143440806Y-111165500D01*
X143487624Y-111156187D01*
X143487625Y-111156185D01*
X143494587Y-111154801D01*
X143525413Y-111154801D01*
X143532374Y-111156185D01*
X143532376Y-111156187D01*
X143579194Y-111165500D01*
X143579196Y-111165500D01*
X143840804Y-111165500D01*
X143840806Y-111165500D01*
X143887624Y-111156187D01*
X143887625Y-111156185D01*
X143894587Y-111154801D01*
X143925413Y-111154801D01*
X143932374Y-111156185D01*
X143932376Y-111156187D01*
X143979194Y-111165500D01*
X143979196Y-111165500D01*
X144240806Y-111165500D01*
X144287624Y-111156187D01*
X144340714Y-111120714D01*
X144376187Y-111067624D01*
X144385500Y-111020806D01*
X144385500Y-110339194D01*
X144376187Y-110292376D01*
X144361524Y-110270431D01*
X144340714Y-110239285D01*
X144300672Y-110212531D01*
X144287624Y-110203813D01*
X144287623Y-110203812D01*
X144240806Y-110194500D01*
X143979194Y-110194500D01*
X143925412Y-110205198D01*
X143894588Y-110205198D01*
X143840806Y-110194500D01*
X143662879Y-110194500D01*
X143612099Y-110176018D01*
X143585079Y-110129218D01*
X143594463Y-110076000D01*
X143603175Y-110063766D01*
X143625343Y-110038183D01*
X143687434Y-109966527D01*
X143742443Y-109846074D01*
X143761288Y-109715002D01*
X143742443Y-109583930D01*
X143716588Y-109527317D01*
X143712307Y-109473448D01*
X143743652Y-109429429D01*
X143788450Y-109415500D01*
X143840804Y-109415500D01*
X143840806Y-109415500D01*
X143887624Y-109406187D01*
X143887625Y-109406185D01*
X143894587Y-109404801D01*
X143925413Y-109404801D01*
X143932374Y-109406185D01*
X143932376Y-109406187D01*
X143979194Y-109415500D01*
X143979196Y-109415500D01*
X144240806Y-109415500D01*
X144287624Y-109406187D01*
X144340714Y-109370714D01*
X144376187Y-109317624D01*
X144385500Y-109270806D01*
X144385500Y-108589194D01*
X144634500Y-108589194D01*
X144634500Y-109270805D01*
X144643812Y-109317623D01*
X144679285Y-109370714D01*
X144705831Y-109388450D01*
X144732376Y-109406187D01*
X144732377Y-109406187D01*
X144739565Y-109409165D01*
X144738056Y-109412806D01*
X144770675Y-109432295D01*
X144788396Y-109483346D01*
X144781266Y-109514982D01*
X144749781Y-109583926D01*
X144749779Y-109583932D01*
X144730935Y-109715002D01*
X144749779Y-109846071D01*
X144749780Y-109846074D01*
X144804789Y-109966527D01*
X144889048Y-110063766D01*
X144908334Y-110114246D01*
X144890660Y-110165313D01*
X144844295Y-110193072D01*
X144829344Y-110194500D01*
X144779194Y-110194500D01*
X144732376Y-110203812D01*
X144679285Y-110239285D01*
X144643812Y-110292376D01*
X144634500Y-110339194D01*
X144634500Y-111020805D01*
X144643812Y-111067623D01*
X144679285Y-111120714D01*
X144705831Y-111138450D01*
X144732376Y-111156187D01*
X144779194Y-111165500D01*
X145040804Y-111165500D01*
X145040806Y-111165500D01*
X145087624Y-111156187D01*
X145087625Y-111156185D01*
X145094587Y-111154801D01*
X145125413Y-111154801D01*
X145132374Y-111156185D01*
X145132376Y-111156187D01*
X145179194Y-111165500D01*
X145179196Y-111165500D01*
X145440804Y-111165500D01*
X145440806Y-111165500D01*
X145487624Y-111156187D01*
X145487625Y-111156185D01*
X145494587Y-111154801D01*
X145525413Y-111154801D01*
X145532374Y-111156185D01*
X145532376Y-111156187D01*
X145579194Y-111165500D01*
X145579196Y-111165500D01*
X145840806Y-111165500D01*
X145887624Y-111156187D01*
X145940714Y-111120714D01*
X145976187Y-111067624D01*
X145985500Y-111020806D01*
X145985500Y-110339194D01*
X145976187Y-110292376D01*
X145961523Y-110270430D01*
X145948681Y-110217940D01*
X145972582Y-110169474D01*
X146022045Y-110147711D01*
X146049462Y-110150741D01*
X146133790Y-110175502D01*
X146174107Y-110175502D01*
X146224887Y-110193984D01*
X146251907Y-110240784D01*
X146244261Y-110284141D01*
X146246790Y-110285189D01*
X146243812Y-110292376D01*
X146234500Y-110339194D01*
X146234500Y-111020805D01*
X146243812Y-111067623D01*
X146279285Y-111120714D01*
X146305831Y-111138450D01*
X146332376Y-111156187D01*
X146379194Y-111165500D01*
X146640804Y-111165500D01*
X146640806Y-111165500D01*
X146687624Y-111156187D01*
X146687625Y-111156185D01*
X146694587Y-111154801D01*
X146725413Y-111154801D01*
X146732374Y-111156185D01*
X146732376Y-111156187D01*
X146779194Y-111165500D01*
X146779196Y-111165500D01*
X147040804Y-111165500D01*
X147040806Y-111165500D01*
X147087624Y-111156187D01*
X147087625Y-111156185D01*
X147094587Y-111154801D01*
X147125413Y-111154801D01*
X147132374Y-111156185D01*
X147132376Y-111156187D01*
X147179194Y-111165500D01*
X147179196Y-111165500D01*
X147440806Y-111165500D01*
X147487624Y-111156187D01*
X147540714Y-111120714D01*
X147576187Y-111067624D01*
X147585500Y-111020806D01*
X147585500Y-110339194D01*
X147576187Y-110292376D01*
X147576186Y-110292375D01*
X147574669Y-110284746D01*
X147574832Y-110284713D01*
X147570500Y-110262932D01*
X147570500Y-109347068D01*
X147574832Y-109325288D01*
X147574669Y-109325256D01*
X147585500Y-109270805D01*
X147585500Y-109015624D01*
X147603982Y-108964844D01*
X147608639Y-108959763D01*
X148420838Y-108147564D01*
X148420841Y-108147561D01*
X148460500Y-108051817D01*
X148460500Y-107948183D01*
X148460500Y-105423120D01*
X148478982Y-105372340D01*
X148496793Y-105356659D01*
X148504664Y-105351601D01*
X148591381Y-105251525D01*
X148646390Y-105131072D01*
X148665235Y-105000000D01*
X148646390Y-104868928D01*
X148591381Y-104748475D01*
X148504664Y-104648399D01*
X148393266Y-104576807D01*
X148266211Y-104539500D01*
X148266210Y-104539500D01*
X148133790Y-104539500D01*
X148133789Y-104539500D01*
X148006733Y-104576807D01*
X148006731Y-104576808D01*
X147895335Y-104648399D01*
X147808619Y-104748474D01*
X147753610Y-104868927D01*
X147753609Y-104868930D01*
X147734765Y-105000000D01*
X147753609Y-105131069D01*
X147753610Y-105131072D01*
X147808619Y-105251525D01*
X147895336Y-105351601D01*
X147903207Y-105356659D01*
X147935936Y-105399660D01*
X147939500Y-105423120D01*
X147939500Y-107859375D01*
X147921018Y-107910155D01*
X147916361Y-107915237D01*
X147652928Y-108178669D01*
X147603952Y-108201506D01*
X147551754Y-108187520D01*
X147520759Y-108143254D01*
X147518872Y-108134057D01*
X147504593Y-108034738D01*
X147449584Y-107914285D01*
X147362867Y-107814209D01*
X147251469Y-107742617D01*
X147124414Y-107705310D01*
X147124413Y-107705310D01*
X146991993Y-107705310D01*
X146991992Y-107705310D01*
X146864936Y-107742617D01*
X146864934Y-107742618D01*
X146753538Y-107814209D01*
X146666822Y-107914284D01*
X146611813Y-108034737D01*
X146611812Y-108034740D01*
X146592968Y-108165810D01*
X146611812Y-108296879D01*
X146611812Y-108296880D01*
X146611813Y-108296882D01*
X146628163Y-108332683D01*
X146632446Y-108386551D01*
X146601100Y-108430570D01*
X146556302Y-108444500D01*
X146379194Y-108444500D01*
X146332376Y-108453812D01*
X146279285Y-108489285D01*
X146243812Y-108542376D01*
X146234500Y-108589194D01*
X146234500Y-109175502D01*
X146216018Y-109226282D01*
X146169218Y-109253302D01*
X146155500Y-109254502D01*
X146133789Y-109254502D01*
X146086757Y-109268312D01*
X146032827Y-109264885D01*
X145993717Y-109227593D01*
X145985500Y-109192512D01*
X145985500Y-108589194D01*
X145976187Y-108542376D01*
X145940714Y-108489285D01*
X145900984Y-108462740D01*
X145887624Y-108453813D01*
X145887623Y-108453812D01*
X145840806Y-108444500D01*
X145579194Y-108444500D01*
X145525412Y-108455198D01*
X145494588Y-108455198D01*
X145440806Y-108444500D01*
X145179194Y-108444500D01*
X145125412Y-108455198D01*
X145094588Y-108455198D01*
X145040806Y-108444500D01*
X144779194Y-108444500D01*
X144732376Y-108453812D01*
X144679285Y-108489285D01*
X144643812Y-108542376D01*
X144634500Y-108589194D01*
X144385500Y-108589194D01*
X144376187Y-108542376D01*
X144352778Y-108507341D01*
X144340714Y-108489285D01*
X144300984Y-108462740D01*
X144287624Y-108453813D01*
X144287623Y-108453812D01*
X144240806Y-108444500D01*
X143979194Y-108444500D01*
X143925412Y-108455198D01*
X143894588Y-108455198D01*
X143840806Y-108444500D01*
X143579194Y-108444500D01*
X143525412Y-108455198D01*
X143494588Y-108455198D01*
X143440806Y-108444500D01*
X143179194Y-108444500D01*
X143132376Y-108453812D01*
X143079285Y-108489285D01*
X143043812Y-108542376D01*
X143034500Y-108589194D01*
X143034500Y-109270806D01*
X143035446Y-109275563D01*
X143027225Y-109328973D01*
X143000677Y-109357432D01*
X142991389Y-109363400D01*
X142963359Y-109395747D01*
X142951191Y-109409792D01*
X142949074Y-109412235D01*
X142901851Y-109438508D01*
X142889370Y-109439500D01*
X142842551Y-109439500D01*
X142791771Y-109421018D01*
X142764751Y-109374218D01*
X142773445Y-109324908D01*
X142773210Y-109324811D01*
X142773650Y-109323747D01*
X142774135Y-109321000D01*
X142776092Y-109317852D01*
X142776187Y-109317623D01*
X142785500Y-109270805D01*
X142785500Y-108589194D01*
X142774728Y-108535041D01*
X142782948Y-108481631D01*
X142796345Y-108463772D01*
X144556479Y-106703639D01*
X144605455Y-106680801D01*
X144612340Y-106680500D01*
X145807837Y-106680500D01*
X145807839Y-106680500D01*
X145896233Y-106643886D01*
X146158771Y-106381347D01*
X146207745Y-106358510D01*
X146228074Y-106360535D01*
X146228195Y-106359696D01*
X146233788Y-106360500D01*
X146233790Y-106360500D01*
X146366211Y-106360500D01*
X146408086Y-106348204D01*
X146493266Y-106323193D01*
X146604664Y-106251601D01*
X146691381Y-106151525D01*
X146746390Y-106031072D01*
X146765235Y-105900000D01*
X146746390Y-105768928D01*
X146691381Y-105648475D01*
X146604664Y-105548399D01*
X146493266Y-105476807D01*
X146366211Y-105439500D01*
X146366210Y-105439500D01*
X146233790Y-105439500D01*
X146233789Y-105439500D01*
X146106733Y-105476807D01*
X146106731Y-105476808D01*
X145995335Y-105548399D01*
X145908619Y-105648474D01*
X145871861Y-105728964D01*
X145833954Y-105767477D01*
X145780159Y-105772614D01*
X145735648Y-105741970D01*
X145728139Y-105728964D01*
X145713137Y-105696114D01*
X145691381Y-105648475D01*
X145604664Y-105548399D01*
X145493266Y-105476807D01*
X145366211Y-105439500D01*
X145366210Y-105439500D01*
X145233790Y-105439500D01*
X145233789Y-105439500D01*
X145106733Y-105476807D01*
X145106731Y-105476808D01*
X144995335Y-105548399D01*
X144922692Y-105632234D01*
X144875470Y-105658508D01*
X144862988Y-105659500D01*
X144615291Y-105659500D01*
X144519613Y-105659500D01*
X144475416Y-105677807D01*
X144431217Y-105696114D01*
X144431215Y-105696116D01*
X141906116Y-108221216D01*
X141906114Y-108221218D01*
X141906114Y-108221219D01*
X141874774Y-108296882D01*
X141869500Y-108309613D01*
X141869500Y-108365500D01*
X141851018Y-108416280D01*
X141804218Y-108443300D01*
X141790500Y-108444500D01*
X141579194Y-108444500D01*
X141532376Y-108453812D01*
X141479285Y-108489285D01*
X141443812Y-108542376D01*
X141434500Y-108589194D01*
X139800500Y-108589194D01*
X139800500Y-104500000D01*
X143134765Y-104500000D01*
X143153609Y-104631069D01*
X143153610Y-104631072D01*
X143208619Y-104751525D01*
X143295336Y-104851601D01*
X143406734Y-104923193D01*
X143496482Y-104949545D01*
X143533789Y-104960500D01*
X143533790Y-104960500D01*
X143666211Y-104960500D01*
X143695049Y-104952031D01*
X143793266Y-104923193D01*
X143904664Y-104851601D01*
X143991381Y-104751525D01*
X144046390Y-104631072D01*
X144065235Y-104500000D01*
X144046390Y-104368928D01*
X144045600Y-104367198D01*
X144045495Y-104365883D01*
X144044798Y-104363508D01*
X144045294Y-104363362D01*
X144041316Y-104313329D01*
X144061597Y-104278520D01*
X144958770Y-103381347D01*
X145007745Y-103358510D01*
X145028074Y-103360534D01*
X145028195Y-103359696D01*
X145033788Y-103360500D01*
X145033790Y-103360500D01*
X145166211Y-103360500D01*
X145208086Y-103348204D01*
X145293266Y-103323193D01*
X145404664Y-103251601D01*
X145491381Y-103151525D01*
X145546390Y-103031072D01*
X145565235Y-102900000D01*
X145546390Y-102768928D01*
X145491381Y-102648475D01*
X145404664Y-102548399D01*
X145293266Y-102476807D01*
X145166211Y-102439500D01*
X145166210Y-102439500D01*
X145033790Y-102439500D01*
X145033789Y-102439500D01*
X144906733Y-102476807D01*
X144906731Y-102476808D01*
X144795335Y-102548399D01*
X144708619Y-102648474D01*
X144653610Y-102768927D01*
X144653609Y-102768930D01*
X144634765Y-102900000D01*
X144644864Y-102970247D01*
X144633796Y-103023141D01*
X144622529Y-103037350D01*
X143643520Y-104016361D01*
X143594544Y-104039199D01*
X143587659Y-104039500D01*
X143533789Y-104039500D01*
X143406733Y-104076807D01*
X143406731Y-104076808D01*
X143295335Y-104148399D01*
X143208619Y-104248474D01*
X143153610Y-104368927D01*
X143153609Y-104368930D01*
X143134765Y-104500000D01*
X139800500Y-104500000D01*
X139800500Y-102937528D01*
X139818982Y-102886748D01*
X139865782Y-102859728D01*
X139901757Y-102861728D01*
X139906732Y-102863188D01*
X139906734Y-102863190D01*
X139986965Y-102886748D01*
X140033789Y-102900497D01*
X140033790Y-102900497D01*
X140166211Y-102900497D01*
X140195049Y-102892028D01*
X140293266Y-102863190D01*
X140404664Y-102791598D01*
X140491381Y-102691522D01*
X140546390Y-102571069D01*
X140565235Y-102439997D01*
X140558689Y-102394475D01*
X140569756Y-102341585D01*
X140581016Y-102327381D01*
X141624762Y-101283637D01*
X141673737Y-101260801D01*
X141680622Y-101260500D01*
X142465806Y-101260500D01*
X142512624Y-101251187D01*
X142565714Y-101215714D01*
X142601187Y-101162624D01*
X142601187Y-101162620D01*
X142604165Y-101155435D01*
X142607214Y-101156698D01*
X142628043Y-101122383D01*
X142677483Y-101105000D01*
X142764022Y-101105000D01*
X142814802Y-101123482D01*
X142816408Y-101124867D01*
X142842038Y-101147573D01*
X142842037Y-101147573D01*
X142971869Y-101215714D01*
X142984063Y-101222114D01*
X143139801Y-101260500D01*
X143300199Y-101260500D01*
X143455937Y-101222114D01*
X143597962Y-101147573D01*
X143718022Y-101041209D01*
X143789984Y-100936953D01*
X143834042Y-100905662D01*
X143887906Y-100910010D01*
X143920014Y-100936953D01*
X143991978Y-101041209D01*
X143991979Y-101041210D01*
X143991981Y-101041212D01*
X144112038Y-101147573D01*
X144112037Y-101147573D01*
X144241869Y-101215714D01*
X144254063Y-101222114D01*
X144409801Y-101260500D01*
X144570199Y-101260500D01*
X144725937Y-101222114D01*
X144867962Y-101147573D01*
X144988022Y-101041209D01*
X145059984Y-100936953D01*
X145104042Y-100905662D01*
X145157906Y-100910010D01*
X145190014Y-100936953D01*
X145261978Y-101041209D01*
X145261979Y-101041210D01*
X145261981Y-101041212D01*
X145382038Y-101147573D01*
X145382037Y-101147573D01*
X145511869Y-101215714D01*
X145524063Y-101222114D01*
X145679801Y-101260500D01*
X145840199Y-101260500D01*
X145995937Y-101222114D01*
X146114390Y-101159944D01*
X146167939Y-101152711D01*
X146212168Y-101179779D01*
X146319471Y-101310528D01*
X146471739Y-101435492D01*
X146645468Y-101528351D01*
X146645472Y-101528352D01*
X146780000Y-101569160D01*
X146780000Y-101569159D01*
X147280000Y-101569159D01*
X147414527Y-101528352D01*
X147414531Y-101528351D01*
X147588260Y-101435492D01*
X147740528Y-101310528D01*
X147865492Y-101158260D01*
X147958348Y-100984536D01*
X147958352Y-100984528D01*
X147999162Y-100850000D01*
X147280000Y-100850000D01*
X147280000Y-101569159D01*
X146780000Y-101569159D01*
X146780000Y-100809618D01*
X146830446Y-100860064D01*
X146904555Y-100902851D01*
X146987213Y-100925000D01*
X147072787Y-100925000D01*
X147155445Y-100902851D01*
X147229554Y-100860064D01*
X147290064Y-100799554D01*
X147332851Y-100725445D01*
X147355000Y-100642787D01*
X147355000Y-100557213D01*
X147332851Y-100474555D01*
X147290064Y-100400446D01*
X147239618Y-100350000D01*
X147999161Y-100350000D01*
X147999161Y-100349999D01*
X147958352Y-100215471D01*
X147958348Y-100215463D01*
X147865492Y-100041739D01*
X147740528Y-99889471D01*
X147588260Y-99764507D01*
X147414531Y-99671648D01*
X147414527Y-99671647D01*
X147244451Y-99620055D01*
X147201222Y-99587628D01*
X147188951Y-99535000D01*
X147211520Y-99488598D01*
X147663886Y-99036233D01*
X147663887Y-99036229D01*
X147668208Y-99029764D01*
X147670615Y-99031372D01*
X147698513Y-99000925D01*
X147752090Y-98993869D01*
X147777706Y-99004538D01*
X147806730Y-99023191D01*
X147806731Y-99023191D01*
X147806734Y-99023193D01*
X147896482Y-99049545D01*
X147933789Y-99060500D01*
X147933790Y-99060500D01*
X148066211Y-99060500D01*
X148095049Y-99052031D01*
X148193266Y-99023193D01*
X148304664Y-98951601D01*
X148391381Y-98851525D01*
X148446390Y-98731072D01*
X148465235Y-98600000D01*
X148446390Y-98468928D01*
X148391381Y-98348475D01*
X148304664Y-98248399D01*
X148304663Y-98248398D01*
X148276788Y-98230483D01*
X148244062Y-98187480D01*
X148240500Y-98164025D01*
X148240500Y-97252163D01*
X148234375Y-97237376D01*
X148203886Y-97163768D01*
X148136232Y-97096114D01*
X147738557Y-96698439D01*
X147340480Y-96300361D01*
X147317642Y-96251385D01*
X147331628Y-96199187D01*
X147375894Y-96168192D01*
X147396341Y-96165500D01*
X147440806Y-96165500D01*
X147487624Y-96156187D01*
X147540714Y-96120714D01*
X147576187Y-96067624D01*
X147585500Y-96020806D01*
X147585500Y-95339194D01*
X147576187Y-95292376D01*
X147570500Y-95283864D01*
X147540714Y-95239285D01*
X147500984Y-95212740D01*
X147487624Y-95203813D01*
X147487623Y-95203812D01*
X147440806Y-95194500D01*
X147179194Y-95194500D01*
X147125412Y-95205198D01*
X147094588Y-95205198D01*
X147040806Y-95194500D01*
X146779194Y-95194500D01*
X146725412Y-95205198D01*
X146694588Y-95205198D01*
X146640806Y-95194500D01*
X146379194Y-95194500D01*
X146332376Y-95203812D01*
X146279285Y-95239285D01*
X146243812Y-95292376D01*
X146234500Y-95339194D01*
X146234500Y-95980500D01*
X146216018Y-96031280D01*
X146169218Y-96058300D01*
X146155500Y-96059500D01*
X146064500Y-96059500D01*
X146013720Y-96041018D01*
X145986700Y-95994218D01*
X145985500Y-95980500D01*
X145985500Y-95339194D01*
X145976187Y-95292376D01*
X145940714Y-95239285D01*
X145900984Y-95212740D01*
X145887624Y-95203813D01*
X145887623Y-95203812D01*
X145840806Y-95194500D01*
X145579194Y-95194500D01*
X145525412Y-95205198D01*
X145494588Y-95205198D01*
X145440806Y-95194500D01*
X145179194Y-95194500D01*
X145125412Y-95205198D01*
X145094588Y-95205198D01*
X145040806Y-95194500D01*
X144779194Y-95194500D01*
X144732376Y-95203812D01*
X144679285Y-95239285D01*
X144643812Y-95292376D01*
X144634500Y-95339194D01*
X144634500Y-96020805D01*
X144643812Y-96067623D01*
X144643813Y-96067624D01*
X144656185Y-96086140D01*
X144669500Y-96130031D01*
X144669500Y-96204709D01*
X144669500Y-96300387D01*
X144672266Y-96307064D01*
X144706114Y-96388782D01*
X144706116Y-96388783D01*
X145445384Y-97128051D01*
X145468222Y-97177027D01*
X145455211Y-97227798D01*
X145448814Y-97237372D01*
X145448812Y-97237376D01*
X145439499Y-97284198D01*
X145439119Y-97288058D01*
X145437365Y-97287885D01*
X145421018Y-97332800D01*
X145374218Y-97359820D01*
X145321000Y-97350436D01*
X145308114Y-97341153D01*
X145207961Y-97252426D01*
X145207962Y-97252426D01*
X145065936Y-97177885D01*
X144910202Y-97139500D01*
X144910199Y-97139500D01*
X144749801Y-97139500D01*
X144749797Y-97139500D01*
X144594064Y-97177885D01*
X144594063Y-97177885D01*
X144452038Y-97252426D01*
X144331981Y-97358787D01*
X144331974Y-97358794D01*
X144260015Y-97463045D01*
X144215958Y-97494337D01*
X144162094Y-97489989D01*
X144129985Y-97463045D01*
X144058025Y-97358794D01*
X144058018Y-97358787D01*
X143937961Y-97252426D01*
X143937962Y-97252426D01*
X143795936Y-97177885D01*
X143640202Y-97139500D01*
X143640199Y-97139500D01*
X143481341Y-97139500D01*
X143430561Y-97121018D01*
X143403541Y-97074218D01*
X143412925Y-97021000D01*
X143425480Y-97004639D01*
X143513883Y-96916235D01*
X143513885Y-96916233D01*
X143513885Y-96916232D01*
X143513886Y-96916232D01*
X143550500Y-96827838D01*
X143550500Y-96732161D01*
X143550500Y-96244500D01*
X143568982Y-96193720D01*
X143615782Y-96166700D01*
X143629500Y-96165500D01*
X143840804Y-96165500D01*
X143840806Y-96165500D01*
X143887624Y-96156187D01*
X143887625Y-96156185D01*
X143894587Y-96154801D01*
X143925413Y-96154801D01*
X143932374Y-96156185D01*
X143932376Y-96156187D01*
X143979194Y-96165500D01*
X143979196Y-96165500D01*
X144240806Y-96165500D01*
X144287624Y-96156187D01*
X144340714Y-96120714D01*
X144376187Y-96067624D01*
X144385500Y-96020806D01*
X144385500Y-95339194D01*
X144376187Y-95292376D01*
X144370500Y-95283864D01*
X144340714Y-95239285D01*
X144300984Y-95212740D01*
X144287624Y-95203813D01*
X144287623Y-95203812D01*
X144240806Y-95194500D01*
X143979194Y-95194500D01*
X143925412Y-95205198D01*
X143894588Y-95205198D01*
X143840806Y-95194500D01*
X143579194Y-95194500D01*
X143525412Y-95205198D01*
X143494588Y-95205198D01*
X143440806Y-95194500D01*
X143179194Y-95194500D01*
X143132376Y-95203812D01*
X143079285Y-95239285D01*
X143043812Y-95292376D01*
X143034500Y-95339194D01*
X143034500Y-96020805D01*
X143043812Y-96067623D01*
X143043813Y-96067624D01*
X143056185Y-96086140D01*
X143069500Y-96130031D01*
X143069500Y-96647659D01*
X143051018Y-96698439D01*
X143046361Y-96703520D01*
X142594393Y-97155487D01*
X142545417Y-97178325D01*
X142519626Y-97176330D01*
X142370202Y-97139500D01*
X142370199Y-97139500D01*
X142209801Y-97139500D01*
X142209797Y-97139500D01*
X142049423Y-97179029D01*
X142048793Y-97176473D01*
X142004005Y-97176943D01*
X141962246Y-97142644D01*
X141952303Y-97089528D01*
X141974379Y-97046570D01*
X142713886Y-96307064D01*
X142750500Y-96218670D01*
X142750500Y-96130031D01*
X142763814Y-96086140D01*
X142776187Y-96067624D01*
X142785500Y-96020806D01*
X142785500Y-95339194D01*
X142776187Y-95292376D01*
X142770500Y-95283864D01*
X142740714Y-95239285D01*
X142700984Y-95212740D01*
X142687624Y-95203813D01*
X142687623Y-95203812D01*
X142640806Y-95194500D01*
X142379194Y-95194500D01*
X142325412Y-95205198D01*
X142294588Y-95205198D01*
X142240806Y-95194500D01*
X142049500Y-95194500D01*
X141998720Y-95176018D01*
X141971700Y-95129218D01*
X141970500Y-95115500D01*
X141970500Y-94494500D01*
X141988982Y-94443720D01*
X142035782Y-94416700D01*
X142049500Y-94415500D01*
X142240804Y-94415500D01*
X142240806Y-94415500D01*
X142287624Y-94406187D01*
X142287625Y-94406185D01*
X142294587Y-94404801D01*
X142325413Y-94404801D01*
X142332374Y-94406185D01*
X142332376Y-94406187D01*
X142379194Y-94415500D01*
X142379196Y-94415500D01*
X142640806Y-94415500D01*
X142687624Y-94406187D01*
X142740714Y-94370714D01*
X142776187Y-94317624D01*
X142785500Y-94270806D01*
X142785500Y-93589194D01*
X142776187Y-93542376D01*
X142763370Y-93523193D01*
X142740714Y-93489285D01*
X142694290Y-93458267D01*
X142687624Y-93453813D01*
X142687623Y-93453812D01*
X142640806Y-93444500D01*
X142379194Y-93444500D01*
X142325412Y-93455198D01*
X142294588Y-93455198D01*
X142240806Y-93444500D01*
X141979194Y-93444500D01*
X141925412Y-93455198D01*
X141894588Y-93455198D01*
X141840806Y-93444500D01*
X141579194Y-93444500D01*
X141532376Y-93453812D01*
X141479285Y-93489285D01*
X141443812Y-93542376D01*
X141434500Y-93589194D01*
X141434500Y-94270805D01*
X141445331Y-94325256D01*
X141445167Y-94325288D01*
X141449500Y-94347068D01*
X141449500Y-95262932D01*
X141445167Y-95284713D01*
X141445331Y-95284746D01*
X141434500Y-95339195D01*
X141434500Y-95554375D01*
X141416018Y-95605155D01*
X141411361Y-95610236D01*
X140980580Y-96041018D01*
X140552439Y-96469159D01*
X140515798Y-96505799D01*
X140479158Y-96542439D01*
X140479156Y-96542442D01*
X140439500Y-96638180D01*
X140439500Y-97426107D01*
X140421018Y-97476887D01*
X140374218Y-97503907D01*
X140321000Y-97494523D01*
X140317790Y-97492567D01*
X140293267Y-97476807D01*
X140166211Y-97439500D01*
X140166210Y-97439500D01*
X140033790Y-97439500D01*
X140033789Y-97439500D01*
X139901757Y-97478268D01*
X139847826Y-97474841D01*
X139808716Y-97437549D01*
X139800500Y-97402468D01*
X139800500Y-94302825D01*
X139800701Y-94297190D01*
X139810452Y-94160845D01*
X139817395Y-94063761D01*
X139818999Y-94052615D01*
X139868143Y-93826711D01*
X139871318Y-93815897D01*
X139937110Y-93639500D01*
X139952106Y-93599293D01*
X139956781Y-93589054D01*
X140067590Y-93386125D01*
X140073667Y-93376668D01*
X140212227Y-93191574D01*
X140219596Y-93183071D01*
X140383071Y-93019596D01*
X140391574Y-93012227D01*
X140576668Y-92873667D01*
X140586125Y-92867590D01*
X140789054Y-92756781D01*
X140799293Y-92752106D01*
X141015902Y-92671316D01*
X141026711Y-92668143D01*
X141252615Y-92618999D01*
X141263761Y-92617395D01*
X141472114Y-92602494D01*
X141497191Y-92600701D01*
X141502826Y-92600500D01*
X141547595Y-92600500D01*
X144256422Y-92600500D01*
X144307202Y-92618982D01*
G37*
G04 #@! TD.AperFunction*
G04 #@! TD*
M02*
